<?xml version="1.0" encoding="UTF-8"?><svg id="Calque_2" xmlns="http://www.w3.org/2000/svg" viewBox="0 0 147.5 162.5"><defs><style>.cls-1{fill:none;}.cls-2{fill:#fff;}</style></defs><g id="Groupe_646"><path id="Tracé_454" class="cls-2" d="m95.35,74.16c-7.82-12.43-16.47-25.33-26.03-38.53-7.01-9.67-13.98-18.82-20.92-27.44-6.21-.43-12.92-.65-20.07-.58-7.22.08-13.98.47-20.23,1.04-.94,29.51-1.29,59.95-1.04,91.31.16,17.05.5,33.83,1.04,50.32,15.2.12,30.4.23,45.61.34.43-12.32.62-25.06.57-38.22-.05-9.47-.24-18.72-.57-27.75,12.44,24.1,28.25,46.31,46.95,65.97h37.59c.89-30.55,1.43-61.62,1.63-93.21.1-16.22.1-32.3,0-48.25l-44.52-.98c-.86,8.2-1.46,17.03-1.65,26.4-.27,13.21.28,26.42,1.65,39.56"/><rect class="cls-1" width="147.5" height="162.5"/></g></svg>