<?xml version="1.0" encoding="UTF-8"?><svg id="Calque_2" xmlns="http://www.w3.org/2000/svg" viewBox="0 0 70.98 162.5"><defs><style>.cls-1{fill:none;}.cls-2{fill:#afcceb;}</style></defs><g id="Groupe_646"><path id="Tracé_457" class="cls-2" d="m9.09,153.26c0,.44.33.8.77.84,7.56.92,15.79,1.62,24.63,1.94,8.42.31,16.32.24,23.62-.07.43,0,.79-.34.83-.77,2.12-25.16,3.74-51.42,4.68-78.69.78-22.58,1.09-44.46.92-65.66-.01-.43-.34-.78-.77-.83-7.9-.95-16.51-1.68-25.75-1.99-8.19-.28-15.89-.21-23.04.09-.44.01-.8.35-.83.79-1.31,22.84-2.39,46.09-3.25,69.76-.9,25.31-1.5,50.17-1.8,74.57"/><rect class="cls-1" width="70.98" height="162.5"/></g></svg>