<?xml version="1.0" encoding="UTF-8"?><svg id="Calque_2" xmlns="http://www.w3.org/2000/svg" viewBox="0 0 771.64 70.79"><defs><style>.cls-1{fill:none;}.cls-2{fill:#fff;}.cls-3{fill:#afcceb;}.cls-4{fill:#e08030;}</style></defs><g id="Groupe_646"><path id="Tracé_458" class="cls-2" d="m473.4,56.68c-6.63.1-13.02-2.46-17.74-7.11-2.32-2.29-4.16-5.02-5.4-8.04-3.72-9.27-1.6-19.86,5.4-26.99,2.33-2.3,5.1-4.11,8.13-5.33,6.18-2.39,13.03-2.38,19.2.02,3.04,1.22,5.81,3.04,8.15,5.33,2.33,2.29,4.17,5.02,5.43,8.03,3.81,9.26,1.67,19.9-5.42,26.97-2.34,2.3-5.11,4.11-8.15,5.33-3.05,1.22-6.31,1.84-9.6,1.8m11.95-12.74c1.59-1.54,2.83-3.4,3.67-5.45.83-2.04,1.23-4.24,1.17-6.45.09-4.44-1.64-8.73-4.8-11.86-3.18-3.15-7.5-4.88-11.98-4.79-2.2-.05-4.38.35-6.42,1.17-4.12,1.68-7.39,4.93-9.1,9.03-.83,2.04-1.23,4.24-1.17,6.45-.1,4.43,1.63,8.7,4.76,11.83,1.56,1.56,3.42,2.79,5.47,3.62,2.05.83,4.25,1.25,6.46,1.23,2.21.05,4.42-.35,6.47-1.17,2.05-.82,3.91-2.05,5.47-3.62"/><path id="Tracé_459" class="cls-3" d="m448.46,32.06c0,1.67.14,3.33.44,4.97.29,1.57.74,3.1,1.35,4.58.6,1.46,1.35,2.86,2.24,4.17.93,1.36,2,2.63,3.17,3.78.81.81,1.67,1.56,2.58,2.25.88.67,1.81,1.28,2.77,1.81.95.54,1.94,1.01,2.96,1.41,1.02.4,2.07.72,3.14.97-4.41,3.92-9.8,6.56-15.6,7.64-2.01.38-4.05.56-6.1.56-8.69.14-17.07-3.18-23.31-9.23-3.07-2.98-5.51-6.54-7.18-10.48-3.36-7.92-3.36-16.87,0-24.79,1.67-3.93,4.11-7.49,7.17-10.47C428.34,3.18,436.73-.14,445.42,0c2.04,0,4.08.19,6.09.56,3.87.74,7.58,2.17,10.94,4.22,1.64.99,3.18,2.13,4.62,3.4-1.07.25-2.12.58-3.14.97-2.04.79-3.96,1.87-5.7,3.2-.9.67-1.76,1.41-2.56,2.2-1.18,1.15-2.24,2.41-3.17,3.77-.89,1.31-1.64,2.71-2.24,4.17-.6,1.47-1.05,3.01-1.35,4.57-.3,1.65-.45,3.32-.44,4.99h0Z"/><path id="Tracé_460" class="cls-4" d="m456.7,32.06c-.12-4.48,1.63-8.8,4.85-11.92,3.09-3.09,7.3-4.8,11.67-4.76,6.29,10.21,6.29,23.1,0,33.31-4.43,0-8.67-1.76-11.79-4.9-3.1-3.11-4.8-7.35-4.72-11.74"/><rect class="cls-1" y="0" width="771.64" height="70.79"/></g></svg>