<?xml version="1.0" encoding="UTF-8"?><svg id="Calque_2" xmlns="http://www.w3.org/2000/svg" viewBox="0 0 113.33 162.5"><defs><style>.cls-1{fill:none;}.cls-2{fill:#fff;}</style></defs><g id="Groupe_646"><path id="Tracé_452" class="cls-2" d="m61.59,95.83c.23,1.64.73,6.14-1.8,9.5-2.22,2.97-5.81,3.06-6.66,3.1-4.96.22-8.47-4.47-11.34-8.17-2.1-2.71-3.75-5.73-4.91-8.96-13.43,4.18-25.94,10.88-36.88,19.73,2.75,8.86,7.72,16.87,14.44,23.26,13.35,12.54,29.35,14.19,35.07,14.78,4.84.52,9.73.46,14.56-.17,10.92-1.63,21.17-6.27,29.6-13.4,18.88-16.54,15.92-51.18,9.56-116.37-.78-7.99-1.56-14.6-2.11-19.09-9.35-.09-18.7.34-28,1.29-8.35.86-16.09,2.08-23.14,3.49,6.13,47.72,10.43,82.53,11.62,91"/><rect class="cls-1" width="113.33" height="162.5"/></g></svg>