<?xml version="1.0" encoding="UTF-8"?><svg id="Calque_2" xmlns="http://www.w3.org/2000/svg" viewBox="0 0 771.64 233.29"><defs><style>.cls-1{fill:#fff;}.cls-2{fill:#afcceb;}.cls-3{fill:#e08030;}</style></defs><g id="Groupe_646"><path id="Tracé_452" class="cls-1" d="m61.59,166.62c.23,1.64.73,6.14-1.8,9.5-2.22,2.97-5.81,3.06-6.66,3.1-4.96.22-8.47-4.47-11.34-8.17-2.1-2.71-3.75-5.73-4.91-8.96-13.43,4.18-25.94,10.88-36.88,19.73,2.75,8.86,7.72,16.87,14.44,23.26,13.35,12.54,29.35,14.19,35.07,14.78,4.84.52,9.73.46,14.56-.17,10.92-1.63,21.17-6.27,29.6-13.4,18.88-16.54,15.92-51.18,9.56-116.37-.78-7.99-1.56-14.6-2.11-19.09-9.35-.09-18.7.34-28,1.29-8.35.86-16.09,2.08-23.14,3.49,6.13,47.72,10.43,82.53,11.62,91"/><path id="Tracé_453" class="cls-1" d="m201.89,169.67s-.32,13.1-5.51,18.41c-.95.95-2,1.79-3.14,2.5-3.8,2.26-7.53,2.17-10.17,2.11s-6.41-.15-10.11-2.62c-1.1-.77-2.11-1.66-3.01-2.66-3.25-3.69-4.79-9.97-4.57-18.66.73-26.92,1.45-53.85,2.18-80.77-15.49-1.93-31.15-2.16-46.69-.67-.46,9.78-.87,18.96-1.21,27.48-2,48.89-1.92,68.05,6.68,84.76,2.94,5.84,6.79,11.18,11.4,15.81,5.5,5.63,12.1,10.08,19.39,13.07,16.06,6.01,33.67,6.46,50.01,1.27,7.45-2.56,14.28-6.67,20.02-12.07,9.43-8.81,14.47-21.92,15.05-23.45,8.74-23.01,8.32-62.5,8.1-74.01-.23-12.21-.82-22.39-1.33-29.61-15.37-3.16-31.17-3.56-46.68-1.18-.13,39.77-.63,69.11-.4,80.29"/><path id="Tracé_454" class="cls-1" d="m352.71,144.95c-7.82-12.43-16.47-25.33-26.03-38.53-7.01-9.67-13.98-18.82-20.92-27.44-6.21-.43-12.92-.65-20.07-.58-7.22.08-13.98.47-20.23,1.04-.94,29.51-1.29,59.95-1.04,91.31.16,17.05.5,33.83,1.04,50.32,15.2.12,30.4.23,45.61.34.43-12.32.62-25.06.57-38.22-.05-9.47-.24-18.72-.57-27.75,12.44,24.1,28.25,46.31,46.95,65.97h37.59c.89-30.55,1.43-61.62,1.63-93.21.1-16.22.1-32.3,0-48.25l-44.52-.98c-.86,8.2-1.46,17.03-1.65,26.4-.27,13.21.28,26.42,1.65,39.56"/><path id="Tracé_455" class="cls-1" d="m607.48,102.54h0c-6.62-6.56-14.5-11.71-23.17-15.12-18.81-7.16-39.6-7.16-58.42,0-17.64,6.85-31.56,20.84-38.31,38.51-7.14,19.17-7.14,40.27,0,59.44,6.75,17.68,20.67,31.67,38.31,38.51,18.81,7.15,39.6,7.15,58.41,0,17.64-6.85,31.56-20.84,38.31-38.51,7.14-19.17,7.14-40.27,0-59.44-3.39-8.75-8.54-16.71-15.14-23.39m-35.9,73.18c-1.9,2.09-4.24,3.75-6.85,4.84-5.83,2.28-12.3,2.28-18.13,0-2.61-1.1-4.95-2.75-6.85-4.85-2.08-2.34-3.66-5.08-4.66-8.04-2.34-7.46-2.34-15.45,0-22.91,1-2.97,2.58-5.7,4.66-8.05,1.9-2.09,4.24-3.75,6.85-4.84,5.83-2.28,12.3-2.28,18.12,0,2.61,1.1,4.95,2.75,6.85,4.84,2.07,2.34,3.66,5.08,4.66,8.05,2.34,7.46,2.34,15.45,0,22.91-1,2.97-2.58,5.7-4.66,8.05"/><path id="Tracé_456" class="cls-1" d="m728.11,158.58c5.56-3.49,10.32-8.13,13.96-13.6,5.38-8.14,7.71-17.7,6.92-28.4-.79-10.68-3.99-19.67-9.54-26.88-2.43-3.09-5.25-5.86-8.38-8.23-18.2-13.71-45.96-11.32-74.57-8.51-6.23.61-15.1,1.65-25.75,3.47.59,11.15,1.25,22.37,1.98,33.67,2.39,36.81,5.4,72.77,9.04,107.88,7.49-.06,15.46-.39,23.87-1.08,6.62-.54,12.93-1.26,18.91-2.1-.05-9.5-.52-19.67-1.56-30.4-.51-5.25-1.12-10.32-1.83-15.22l2.65-.2c4.21,6.36,9.05,13.08,14.61,19.99,6.56,8.15,13.6,15.91,21.08,23.23,6.93.14,14.37.03,22.23-.44,10.03-.6,20.02-1.75,29.93-3.44-10.24-12.69-21.26-25.51-33.04-38.47-3.5-3.83-7-7.59-10.5-11.28m-33.38-36.88c.21,2.9-.21,4.9-1.3,6.13-1.39,1.57-3.68,2.48-6.82,2.71l-10.69.8-1.23-16.56,10.69-.79c3.09-.23,5.5.33,7.16,1.67,1.25,1,1.96,2.98,2.19,6.04"/><path id="Tracé_457" class="cls-2" d="m413.95,224.05c0,.44.33.8.77.84,7.56.92,15.79,1.62,24.63,1.94,8.42.31,16.32.24,23.62-.07.43,0,.79-.34.83-.77,2.12-25.16,3.74-51.42,4.68-78.69.78-22.58,1.09-44.46.92-65.66-.01-.43-.34-.78-.77-.83-7.9-.95-16.51-1.68-25.75-1.99-8.19-.28-15.89-.21-23.04.09-.44.01-.8.35-.83.79-1.31,22.84-2.39,46.09-3.25,69.76-.9,25.31-1.5,50.17-1.8,74.57"/><path id="Tracé_458" class="cls-1" d="m473.4,56.68c-6.63.1-13.02-2.46-17.74-7.11-2.32-2.29-4.16-5.02-5.4-8.04-3.72-9.27-1.6-19.86,5.4-26.99,2.33-2.3,5.1-4.11,8.13-5.33,6.18-2.39,13.03-2.38,19.2.02,3.04,1.22,5.81,3.04,8.15,5.33,2.33,2.29,4.17,5.02,5.43,8.03,3.81,9.26,1.67,19.9-5.42,26.97-2.34,2.3-5.11,4.11-8.15,5.33-3.05,1.22-6.31,1.84-9.6,1.8m11.95-12.74c1.59-1.54,2.83-3.4,3.67-5.45.83-2.04,1.23-4.24,1.17-6.45.09-4.44-1.64-8.73-4.8-11.86-3.18-3.15-7.5-4.88-11.98-4.79-2.2-.05-4.38.35-6.42,1.17-4.12,1.68-7.39,4.93-9.1,9.03-.83,2.04-1.23,4.24-1.17,6.45-.1,4.43,1.63,8.7,4.76,11.83,1.56,1.56,3.42,2.79,5.47,3.62,2.05.83,4.25,1.25,6.46,1.23,2.21.05,4.42-.35,6.47-1.17,2.05-.82,3.91-2.05,5.47-3.62"/><path id="Tracé_459" class="cls-2" d="m448.46,32.06c0,1.67.14,3.33.44,4.97.29,1.57.74,3.1,1.35,4.58.6,1.46,1.35,2.86,2.24,4.17.93,1.36,2,2.63,3.17,3.78.81.81,1.67,1.56,2.58,2.25.88.67,1.81,1.28,2.77,1.81.95.54,1.94,1.01,2.96,1.41,1.02.4,2.07.72,3.14.97-4.41,3.92-9.8,6.56-15.6,7.64-2.01.38-4.05.56-6.1.56-8.69.14-17.07-3.18-23.31-9.23-3.07-2.98-5.51-6.54-7.18-10.48-3.36-7.92-3.36-16.87,0-24.79,1.67-3.93,4.11-7.49,7.17-10.47C428.34,3.18,436.73-.14,445.42,0c2.04,0,4.08.19,6.09.56,3.87.74,7.58,2.17,10.94,4.22,1.64.99,3.18,2.13,4.62,3.4-1.07.25-2.12.58-3.14.97-2.04.79-3.96,1.87-5.7,3.2-.9.67-1.76,1.41-2.56,2.2-1.18,1.15-2.24,2.41-3.17,3.77-.89,1.31-1.64,2.71-2.24,4.17-.6,1.47-1.05,3.01-1.35,4.57-.3,1.65-.45,3.32-.44,4.99h0Z"/><path id="Tracé_460" class="cls-3" d="m456.7,32.06c-.12-4.48,1.63-8.8,4.85-11.92,3.09-3.09,7.3-4.8,11.67-4.76,6.29,10.21,6.29,23.1,0,33.31-4.43,0-8.67-1.76-11.79-4.9-3.1-3.11-4.8-7.35-4.72-11.74"/></g></svg>