<?xml version="1.0" encoding="utf-8"?>
<!-- Generator: Adobe Illustrator 26.3.1, SVG Export Plug-In . SVG Version: 6.00 Build 0)  -->
<svg version="1.1" id="Calque_1" xmlns="http://www.w3.org/2000/svg" xmlns:xlink="http://www.w3.org/1999/xlink" x="0px" y="0px"
	 viewBox="0 0 90 90" style="enable-background:new 0 0 90 90;" xml:space="preserve">
<style type="text/css">
	.st0{fill:#FFBC00;}
	.st1{fill:none;stroke:#25262B;stroke-width:2;stroke-miterlimit:10;}
</style>
<circle class="st0" cx="47.7" cy="41.2" r="18.1"/>
<g>
	<path class="st1" d="M52.3,61.1c6-2.9,10.1-9,10.1-16.1c0-9.9-8-17.9-17.9-17.9s-17.9,8-17.9,17.9c0,7.1,4.1,13.2,10,16.1
		c0,0,0,9.3,0,12.2s1.5,7.3,7.3,7.3s8.2-4.6,8.2-7.3C52.2,70.5,52.3,61.1,52.3,61.1z"/>
	<line class="st1" x1="36.7" y1="71.9" x2="52.2" y2="71.9"/>
	<line class="st1" x1="52.2" y1="64.9" x2="36.7" y2="64.9"/>
	<line class="st1" x1="68.2" y1="44.1" x2="80.9" y2="44.1"/>
	<line class="st1" x1="8.2" y1="44.1" x2="20.9" y2="44.1"/>
	<line class="st1" x1="44.6" y1="8.1" x2="44.6" y2="20.8"/>
	<line class="st1" x1="18.9" y1="18.4" x2="27.8" y2="27.8"/>
	<line class="st1" x1="70.3" y1="18.4" x2="61.3" y2="27.8"/>
</g>
</svg>
