<?xml version="1.0" encoding="UTF-8"?><svg id="Calque_2" xmlns="http://www.w3.org/2000/svg" viewBox="0 0 153.51 162.5"><defs><style>.cls-1{fill:none;}.cls-2{fill:#fff;}</style></defs><g id="Groupe_646"><path id="Tracé_455" class="cls-2" d="m131.64,31.75h0c-6.62-6.56-14.5-11.71-23.17-15.12-18.81-7.16-39.6-7.16-58.42,0-17.64,6.85-31.56,20.84-38.31,38.51-7.14,19.17-7.14,40.27,0,59.44,6.75,17.68,20.67,31.67,38.31,38.51,18.81,7.15,39.6,7.15,58.41,0,17.64-6.85,31.56-20.84,38.31-38.51,7.14-19.17,7.14-40.27,0-59.44-3.39-8.75-8.54-16.71-15.14-23.39m-35.9,73.18c-1.9,2.09-4.24,3.75-6.85,4.84-5.83,2.28-12.3,2.28-18.13,0-2.61-1.1-4.95-2.75-6.85-4.85-2.08-2.34-3.66-5.08-4.66-8.04-2.34-7.46-2.34-15.45,0-22.91,1-2.97,2.58-5.7,4.66-8.05,1.9-2.09,4.24-3.75,6.85-4.84,5.83-2.28,12.3-2.28,18.12,0,2.61,1.1,4.95,2.75,6.85,4.84,2.07,2.34,3.66,5.08,4.66,8.05,2.34,7.46,2.34,15.45,0,22.91-1,2.97-2.58,5.7-4.66,8.05"/><rect class="cls-1" width="153.51" height="162.5"/></g></svg>