<?xml version="1.0" encoding="utf-8"?>
<!-- Generator: Adobe Illustrator 27.8.1, SVG Export Plug-In . SVG Version: 6.00 Build 0)  -->
<svg version="1.1" id="Calque_2_00000183215243068464370000000003311304835798146238_"
	 xmlns="http://www.w3.org/2000/svg" xmlns:xlink="http://www.w3.org/1999/xlink" x="0px" y="0px" viewBox="0 0 216.9 26.1"
	 style="enable-background:new 0 0 216.9 26.1;" xml:space="preserve">
<style type="text/css">
	.st0{fill:none;}
	.st1{fill:#FFFFFF;}
	.st2{fill:#F0BC37;}
	.st3{fill:#59B0D0;}
</style>
<rect class="st0" width="216.9" height="26.1"/>
<g>
	<g>
		<g>
			<g>
				<path class="st1" d="M123.8,19.1c-1.4,0-2.6-0.5-3.6-1.5c-1-1-1.5-2.2-1.5-3.6c0-1.4,0.5-2.6,1.5-3.6c1-1,2.2-1.5,3.6-1.5
					c1.4,0,2.6,0.5,3.6,1.5s1.5,2.2,1.5,3.6c0,1.4-0.5,2.6-1.5,3.6C126.4,18.6,125.2,19.1,123.8,19.1z M126.2,16.4
					c0.7-0.7,1-1.5,1-2.5s-0.3-1.8-1-2.5c-0.7-0.7-1.5-1-2.4-1c-1,0-1.8,0.3-2.4,1c-0.7,0.7-1,1.5-1,2.5s0.3,1.8,1,2.5
					c0.7,0.7,1.5,1,2.4,1C124.7,17.4,125.5,17.1,126.2,16.4z"/>
				<path class="st1" d="M135.1,19.1c-1.4,0-2.6-0.5-3.6-1.5c-1-1-1.5-2.2-1.5-3.6c0-1.4,0.5-2.6,1.5-3.6s2.2-1.5,3.6-1.5
					c1.4,0,2.6,0.5,3.6,1.5c1,1,1.5,2.2,1.5,3.6c0,1.4-0.5,2.6-1.5,3.6C137.7,18.6,136.5,19.1,135.1,19.1z M137.5,16.4
					c0.7-0.7,1-1.5,1-2.5s-0.3-1.8-1-2.5c-0.7-0.7-1.5-1-2.4-1c-1,0-1.8,0.3-2.4,1c-0.7,0.7-1,1.5-1,2.5s0.3,1.8,1,2.5s1.5,1,2.4,1
					C136,17.4,136.9,17.1,137.5,16.4z"/>
				<path class="st1" d="M117.6,17.2v1.6h-7.3v-0.4c1-1,5-5.1,5-7.4c0-1.3-0.8-1.9-1.9-1.9c-0.9,0-1.6,0.3-2.4,0.8l-0.6-1.3
					c0.8-0.6,2-1.1,3-1.1c2.1,0,3.7,1.2,3.7,3.5c0,2.1-2.2,4.9-3.5,6.2H117.6z"/>
				<path class="st1" d="M142.8,17.6c-1-1-1.5-2.2-1.5-3.6c0-1.4,0.5-2.6,1.5-3.6c1-1,2.2-1.5,3.6-1.5c1.4,0,2.6,0.5,3.6,1.5
					s1.5,2.2,1.5,3.6c0,1.4-0.5,2.6-1.5,3.6s-2.2,1.5-3.6,1.5C145,19.1,143.8,18.6,142.8,17.6z M146.4,17.4c1,0,1.8-0.3,2.4-1
					c0.7-0.7,1-1.5,1-2.5s-0.3-1.8-1-2.5c-0.7-0.7-1.5-1-2.4-1c-1,0-1.8,0.3-2.4,1c-0.7,0.7-1,1.5-1,2.5s0.3,1.8,1,2.5
					C144.6,17.1,145.4,17.4,146.4,17.4z"/>
			</g>
			<g>
				<path class="st1" d="M67,9.1h1.7v9.7H67v-1.7c-0.8,1.3-2.1,1.9-3.7,1.9c-1.4,0-2.5-0.5-3.5-1.5s-1.4-2.2-1.4-3.6
					c0-1.4,0.5-2.6,1.4-3.6c1-1,2.1-1.5,3.5-1.5c1.6,0,2.8,0.6,3.7,1.9V9.1z M66,16.5c0.7-0.7,1-1.5,1-2.5s-0.3-1.8-1-2.5
					c-0.7-0.7-1.5-1-2.5-1c-1,0-1.8,0.3-2.4,1c-0.7,0.7-1,1.5-1,2.5s0.3,1.8,1,2.5c0.7,0.7,1.5,1,2.4,1C64.6,17.5,65.4,17.1,66,16.5
					z"/>
				<path class="st1" d="M101.5,19.1c-1.4,0-2.6-0.5-3.6-1.5c-1-1-1.5-2.2-1.5-3.6c0-1.4,0.5-2.6,1.5-3.6c1-1,2.2-1.5,3.6-1.5
					c1.4,0,2.6,0.5,3.6,1.5c1,1,1.5,2.2,1.5,3.6c0,1.4-0.5,2.6-1.5,3.6C104.1,18.6,102.9,19.1,101.5,19.1z M103.9,16.5
					c0.7-0.7,1-1.5,1-2.5s-0.3-1.8-1-2.5c-0.7-0.7-1.5-1-2.4-1c-1,0-1.8,0.3-2.4,1c-0.7,0.7-1,1.5-1,2.5s0.3,1.8,1,2.5
					c0.7,0.7,1.5,1,2.4,1C102.5,17.4,103.3,17.1,103.9,16.5z"/>
				<path class="st1" d="M77.5,9.1h1.7v9.7h-1.7v-1.4c-0.7,1.1-1.7,1.7-3.1,1.7c-2.3,0-3.8-1.5-3.8-4v-6h1.7V15
					c0,1.6,0.9,2.5,2.4,2.5c1.7,0,2.8-1,2.8-3.2V9.1z"/>
				<path class="st1" d="M89.3,6L91,5.5l0,13.3h-1.7v-1.7c-0.8,1.3-2.1,1.9-3.7,1.9c-1.4,0-2.5-0.5-3.5-1.5c-1-1-1.4-2.2-1.4-3.6
					c0-1.4,0.5-2.6,1.4-3.6c1-1,2.1-1.5,3.5-1.5c1.6,0,2.8,0.6,3.7,1.9L89.3,6z M88.4,16.5c0.7-0.7,1-1.5,1-2.5s-0.3-1.8-1-2.5
					c-0.7-0.7-1.5-1-2.5-1c-1,0-1.8,0.3-2.4,1c-0.7,0.7-1,1.5-1,2.5s0.3,1.8,1,2.5c0.7,0.7,1.5,1,2.4,1
					C86.9,17.5,87.7,17.1,88.4,16.5z"/>
				<path class="st1" d="M93.1,18.8V9.1h1.7v9.7H93.1z M92.9,6.6c0-0.6,0.5-1.1,1.1-1.1c0.6,0,1.1,0.5,1.1,1.1S94.6,7.7,94,7.7
					C93.4,7.7,92.9,7.2,92.9,6.6z"/>
			</g>
		</g>
		<g>
			<path class="st2" d="M149.8,14c0,0.2,0,0.5-0.1,0.7c0,0.2-0.1,0.4-0.2,0.6c-0.1,0.2-0.2,0.4-0.3,0.6s-0.3,0.4-0.4,0.5
				c-0.2,0.2-0.3,0.3-0.5,0.4c-0.2,0.1-0.4,0.2-0.6,0.3s-0.4,0.1-0.6,0.2c-0.2,0-0.4,0.1-0.7,0.1c-0.2-0.3-0.3-0.5-0.4-0.8
				s-0.2-0.6-0.3-0.8s-0.2-0.6-0.2-0.9c0-0.3-0.1-0.6-0.1-0.9c0-0.3,0-0.6,0.1-0.9c0-0.3,0.1-0.6,0.2-0.9c0.1-0.3,0.2-0.6,0.3-0.8
				c0.1-0.3,0.3-0.5,0.4-0.8c0.2,0,0.5,0,0.7,0.1c0.2,0,0.4,0.1,0.6,0.2c0.2,0.1,0.4,0.2,0.6,0.3c0.2,0.1,0.4,0.3,0.5,0.4
				c0.2,0.2,0.3,0.3,0.4,0.5c0.1,0.2,0.2,0.4,0.3,0.6s0.1,0.4,0.2,0.6C149.8,13.5,149.8,13.7,149.8,14z"/>
			<path class="st3" d="M151.5,14c0-0.4,0-0.7-0.1-1c-0.1-0.3-0.2-0.6-0.3-0.9c-0.1-0.3-0.3-0.6-0.5-0.9c-0.2-0.3-0.4-0.5-0.6-0.8
				c-0.2-0.2-0.3-0.3-0.5-0.5c-0.2-0.1-0.4-0.3-0.6-0.4c-0.2-0.1-0.4-0.2-0.6-0.3c-0.2-0.1-0.4-0.1-0.6-0.2c0.3-0.2,0.6-0.5,0.9-0.7
				c0.3-0.2,0.7-0.4,1-0.5c0.4-0.1,0.7-0.2,1.1-0.3c0.4-0.1,0.8-0.1,1.2-0.1c0.9,0,1.8,0.2,2.5,0.5c0.8,0.3,1.5,0.8,2.1,1.4
				c0.6,0.6,1.1,1.3,1.4,2.1c0.3,0.8,0.5,1.6,0.5,2.5s-0.2,1.8-0.5,2.5s-0.8,1.5-1.4,2.1c-0.6,0.6-1.3,1.1-2.1,1.4
				c-0.8,0.3-1.6,0.5-2.5,0.5c-0.4,0-0.8,0-1.2-0.1c-0.4-0.1-0.8-0.2-1.1-0.3c-0.4-0.1-0.7-0.3-1-0.5c-0.3-0.2-0.6-0.4-0.9-0.7
				c0.2-0.1,0.4-0.1,0.6-0.2c0.2-0.1,0.4-0.2,0.6-0.3c0.2-0.1,0.4-0.2,0.6-0.4c0.2-0.1,0.4-0.3,0.5-0.5c0.2-0.2,0.5-0.5,0.6-0.8
				c0.2-0.3,0.3-0.6,0.5-0.9s0.2-0.6,0.3-0.9C151.5,14.7,151.5,14.3,151.5,14z"/>
		</g>
	</g>
</g>
</svg>
