<?xml version="1.0" encoding="UTF-8"?><svg id="Calque_2" xmlns="http://www.w3.org/2000/svg" viewBox="0 0 142.29 162.5"><defs><style>.cls-1{fill:none;}.cls-2{fill:#fff;}</style></defs><g id="Groupe_646"><path id="Tracé_456" class="cls-2" d="m98.75,87.78c5.56-3.49,10.32-8.13,13.96-13.6,5.38-8.14,7.71-17.7,6.92-28.4-.79-10.68-3.99-19.67-9.54-26.88-2.43-3.09-5.25-5.86-8.38-8.23C83.51-3.04,55.75-.64,27.14,2.16c-6.23.61-15.1,1.65-25.75,3.47.59,11.15,1.25,22.37,1.98,33.67,2.39,36.81,5.4,72.77,9.04,107.88,7.49-.06,15.46-.39,23.87-1.08,6.62-.54,12.93-1.26,18.91-2.1-.05-9.5-.52-19.67-1.56-30.4-.51-5.25-1.12-10.32-1.83-15.22l2.65-.2c4.21,6.36,9.05,13.08,14.61,19.99,6.56,8.15,13.6,15.91,21.08,23.23,6.93.14,14.37.03,22.23-.44,10.03-.6,20.02-1.75,29.93-3.44-10.24-12.69-21.26-25.51-33.04-38.47-3.5-3.83-7-7.59-10.5-11.28m-33.38-36.88c.21,2.9-.21,4.9-1.3,6.13-1.39,1.57-3.68,2.48-6.82,2.71l-10.69.8-1.23-16.56,10.69-.79c3.09-.23,5.5.33,7.16,1.67,1.25,1,1.96,2.98,2.19,6.04"/><rect class="cls-1" y="0" width="142.29" height="162.5"/></g></svg>