<?xml version="1.0" encoding="UTF-8"?><svg id="Calque_2" xmlns="http://www.w3.org/2000/svg" viewBox="0 0 144.03 162.5"><defs><style>.cls-1{fill:none;}.cls-2{fill:#fff;}</style></defs><g id="Groupe_646"><path id="Tracé_453" class="cls-2" d="m88.56,98.88s-.32,13.1-5.51,18.41c-.95.95-2,1.79-3.14,2.5-3.8,2.26-7.53,2.17-10.17,2.11s-6.41-.15-10.11-2.62c-1.1-.77-2.11-1.66-3.01-2.66-3.25-3.69-4.79-9.97-4.57-18.66.73-26.92,1.45-53.85,2.18-80.77-15.49-1.93-31.15-2.16-46.69-.67-.46,9.78-.87,18.96-1.21,27.48-2,48.89-1.92,68.05,6.68,84.76,2.94,5.84,6.79,11.18,11.4,15.81,5.5,5.63,12.1,10.08,19.39,13.07,16.06,6.01,33.67,6.46,50.01,1.27,7.45-2.56,14.28-6.67,20.02-12.07,9.43-8.81,14.47-21.92,15.05-23.45,8.74-23.01,8.32-62.5,8.1-74.01-.23-12.21-.82-22.39-1.33-29.61-15.37-3.16-31.17-3.56-46.68-1.18-.13,39.77-.63,69.11-.4,80.29"/><rect class="cls-1" width="144.03" height="162.5"/></g></svg>