<?xml version="1.0" standalone="no"?>
<!DOCTYPE svg PUBLIC "-//W3C//DTD SVG 1.1//EN" "http://www.w3.org/Graphics/SVG/1.1/DTD/svg11.dtd" >
<svg xmlns="http://www.w3.org/2000/svg" xmlns:xlink="http://www.w3.org/1999/xlink" version="1.1">
<metadata>
Created by FontForge 20170731 at Fri Feb 12 12:10:17 2021
 By Aleksey,,,
Copyright (c) 2020 Fontwerk GmbH. All rights reserved.
</metadata>
<defs>
<font id="PangeaVAR2.000" horiz-adv-x="0" >
  <font-face 
    font-family="Pangea VAR 2.000"
    font-weight="300"
    font-stretch="normal"
    units-per-em="1000"
    panose-1="2 11 3 4 0 0 0 0 0 0"
    ascent="800"
    descent="-200"
    x-height="500"
    cap-height="700"
    bbox="-463 -232 1205 1029"
    underline-thickness="50"
    underline-position="-150"
    unicode-range="U+000D-1F16F"
  />
<missing-glyph horiz-adv-x="763" 
d="M132 800h499v-900h-499v900zM196 736v-772h371v772h-371z" />
    <glyph glyph-name="f_f" unicode="ff" horiz-adv-x="590" 
d="M229 704h54v-59h-49q-38 0 -54.5 -20.5t-16.5 -58.5v-566h-65v570q0 57 32 95.5t99 38.5zM267 500v-59h-255v59h255zM528 704h54v-59h-49q-38 0 -54.5 -20.5t-16.5 -58.5v-566h-65v570q0 57 32 95.5t99 38.5zM582 500v-59h-275v59h275z" />
    <glyph glyph-name="f_f_t" unicode="fft" horiz-adv-x="894" 
d="M397 570q0 57 32 95.5t99 38.5h54v-59h-49q-38 0 -54.5 -20.5t-16.5 -58.5v-566h-65v570zM98 570q0 57 32 95.5t99 38.5h54v-59h-49q-38 0 -54.5 -20.5t-16.5 -58.5v-566h-65v570zM12 441v59h255v-59h-255zM307 441v59h259v-59h-259zM825 0q-44 0 -73 17.5t-43 48
t-14 68.5v482l65 48v-523q0 -39 16.5 -60.5t53.5 -21.5h50v-59h-55zM606 441v59h274v-59h-274z" />
    <glyph glyph-name="f_t" unicode="ft" horiz-adv-x="595" 
d="M229 704h54v-59h-49q-38 0 -54.5 -20.5t-16.5 -58.5v-566h-65v570q0 57 32 95.5t99 38.5zM267 500v-59h-255v59h255zM526 0q-44 0 -73 17.5t-43 48t-14 68.5v482l65 48v-523q0 -39 16.5 -60.5t53.5 -21.5h50v-59h-55zM581 441h-274v59h274v-59z" />
    <glyph glyph-name="t_t" unicode="tt" horiz-adv-x="608" 
d="M539 0q-44 0 -73 17.5t-43 48t-14 68.5v482l65 48v-523q0 -39 16.5 -60.5t53.5 -21.5h50v-59h-55zM235 0q-44 0 -73 17.5t-43 48t-14 68.5v482l65 48v-523q0 -39 16.5 -60.5t53.5 -21.5h50v-59h-55zM10 441v59h270v-59h-270zM320 441v59h274v-59h-274z" />
    <glyph glyph-name=".notdef" horiz-adv-x="763" 
d="M132 800h499v-900h-499v900zM196 736v-772h371v772h-371z" />
    <glyph glyph-name=".null" 
 />
    <glyph glyph-name="nonmarkingreturn" horiz-adv-x="333" 
 />
    <glyph glyph-name="CR" unicode="&#xd;" horiz-adv-x="209" 
 />
    <glyph glyph-name="space" unicode=" " horiz-adv-x="209" 
 />
    <glyph glyph-name="exclam" unicode="!" horiz-adv-x="210" 
d="M82 213l-10 138v349h66v-349l-10 -138h-46zM104 -9q-21 0 -35 14.5t-14 36.5q0 21 14 35.5t35 14.5q22 0 36.5 -14.5t14.5 -35.5q0 -22 -14.5 -36.5t-36.5 -14.5z" />
    <glyph glyph-name="quotedbl" unicode="&#x22;" horiz-adv-x="323" 
d="M50 700h63v-155l-7 -81h-49l-7 81v155zM210 700h63v-155l-7 -81h-49l-7 81v155z" />
    <glyph glyph-name="numbersign" unicode="#" horiz-adv-x="606" 
d="M236 700l-71 -700h-61l71 700h61zM55 514h523v-56h-523v56zM501 700l-70 -700h-62l71 700h61zM28 246h523v-56h-523v56z" />
    <glyph glyph-name="dollar" unicode="$" horiz-adv-x="650" 
d="M355 16v-111h-58v111h58zM297 681v111h57v-111h-57zM297 16v665h58v-665h-58zM338 -9q-82 0 -141.5 27t-95.5 76.5t-50 116.5l69 16q17 -82 73 -126.5t145 -44.5q85 0 135.5 32.5t50.5 87.5q0 31 -16 56t-52.5 44.5t-98.5 35.5l-100 26q-55 15 -94 40.5t-59 61t-20 79.5
q0 56 30 99t84 67t125 24t124.5 -23t88.5 -68t49 -112l-65 -16q-17 81 -69.5 117.5t-125.5 36.5q-75 0 -122.5 -32.5t-47.5 -85.5q0 -51 33 -78t101 -46l99 -27q70 -19 115.5 -47t68 -64.5t22.5 -80.5q0 -58 -31.5 -101t-89 -67t-135.5 -24z" />
    <glyph glyph-name="percent" unicode="%" horiz-adv-x="720" 
d="M103 0l450 700h65l-450 -700h-65zM539 -9q-43 0 -78 20t-55 55.5t-20 79.5t20 79t55 55.5t78 20.5q45 0 80 -20.5t55 -55.5t20 -79t-20 -79.5t-55 -55.5t-80 -20zM539 45q42 0 70 28.5t28 72.5q0 43 -28 71.5t-70 28.5q-40 0 -67.5 -28.5t-27.5 -71.5q0 -44 27.5 -72.5
t67.5 -28.5zM179 399q-43 0 -78 20t-55 55.5t-20 79.5t20 79t55 55.5t78 20.5q45 0 80 -20.5t55 -55.5t20 -79t-20 -79.5t-55 -55.5t-80 -20zM179 453q42 0 70 28.5t28 72.5q0 43 -28 71.5t-70 28.5q-40 0 -67.5 -28.5t-27.5 -71.5q0 -44 27.5 -72.5t67.5 -28.5z" />
    <glyph glyph-name="ampersand" unicode="&#x26;" horiz-adv-x="628" 
d="M528 0l-106 115l-6 12l-211 226l-11 7q-37 40 -62.5 70.5t-38.5 59.5t-13 65q0 42 20.5 77t57 55.5t83.5 20.5q74 0 121.5 -43t60.5 -111l-61 -16q-13 54 -44 82.5t-77 28.5q-42 0 -68 -28t-26 -70q0 -17 8 -35t28 -44t55.5 -65t90.5 -99q11 -12 26 -28t29.5 -31.5
t24 -26l9.5 -10.5v0q2 17 3.5 36t1.5 40v137h173v-59h-113v-84q0 -36 -4 -67t-11 -57l146 -158h-86zM232 -8q-59 0 -102.5 21t-67.5 59.5t-24 90.5q0 39 14 71.5t37.5 60t52.5 51.5t59 46l43 -41q-35 -27 -67 -55t-52 -59.5t-20 -71.5q0 -51 36.5 -82.5t94.5 -31.5
q34 0 69 13t64 42.5t44 76.5l49 -42q-21 -51 -58 -84t-82 -49t-90 -16z" />
    <glyph glyph-name="quotesingle" unicode="'" horiz-adv-x="163" 
d="M50 700h63v-155l-7 -81h-49l-7 81v155z" />
    <glyph glyph-name="parenleft" unicode="(" horiz-adv-x="265" 
d="M213 -157q-53 55 -93.5 126.5t-62.5 152.5t-22 162q0 82 22 162.5t62.5 152.5t93.5 126l44 -41q-48 -52 -83 -118.5t-54 -138.5t-19 -143q0 -70 19 -142.5t54 -139t83 -118.5z" />
    <glyph glyph-name="parenright" unicode=")" horiz-adv-x="264" 
d="M51 726q53 -55 93.5 -126.5t62.5 -152.5t22 -162q0 -82 -22 -162.5t-62.5 -152.5t-93.5 -126l-44 41q48 52 83 118.5t54 138.5t19 143q0 70 -19 142.5t-54 139t-83 118.5z" />
    <glyph glyph-name="asterisk" unicode="*" horiz-adv-x="350" 
d="M149 401l1 100l-87 -52l-26 45l92 52l-97 54l26 45l92 -54l-1 109h52l-1 -109l91 54l26 -45l-96 -53l93 -53l-26 -45l-88 53l1 -101h-52z" />
    <glyph glyph-name="plus" unicode="+" horiz-adv-x="600" 
d="M485 305v-57h-370v57h370zM327 87h-58v380h58v-380z" />
    <glyph glyph-name="comma" unicode="," horiz-adv-x="180" 
d="M69 -148l-42 17l62 150l9 -29q-25 -2 -41.5 13t-16.5 39q0 22 14 36t35 14q22 0 36.5 -14t14.5 -37q0 -15 -4 -27t-13 -33z" />
    <glyph glyph-name="hyphen" unicode="-" horiz-adv-x="348" 
d="M294 306v-59h-240v59h240z" />
    <glyph glyph-name="period" unicode="." horiz-adv-x="174" 
d="M86 -9q-21 0 -35 14.5t-14 36.5q0 21 14 35.5t35 14.5q22 0 36.5 -14.5t14.5 -35.5q0 -22 -14.5 -36.5t-36.5 -14.5z" />
    <glyph glyph-name="slash" unicode="/" horiz-adv-x="473" 
d="M457 785l-372 -870h-68l371 870h69z" />
    <glyph glyph-name="zero" unicode="0" horiz-adv-x="600" 
d="M300 709q76 0 134 -41.5t91 -121.5t33 -196q0 -115 -33 -195.5t-91 -122t-134 -41.5t-134 41.5t-91 122t-33 195.5q0 116 33 196t91 121.5t134 41.5zM300 646q-54 0 -97 -30t-68 -95.5t-25 -170.5t25 -170t68 -95.5t97 -30.5q55 0 97.5 30.5t67.5 95.5t25 170t-25 170.5
t-67.5 95.5t-97.5 30z" />
    <glyph glyph-name="one" unicode="1" horiz-adv-x="251" 
d="M179 700v-700h-64v639h-84v61h148z" />
    <glyph glyph-name="two" unicode="2" horiz-adv-x="496" 
d="M40 0v49l269 308q21 25 38 48.5t27.5 51.5t10.5 64q0 54 -39.5 89t-100.5 35q-50 0 -82 -20.5t-50.5 -54t-28.5 -72.5l-59 16q7 36 22.5 70.5t42 62.5t65 44.5t90.5 16.5q60 0 106.5 -24t73.5 -66.5t27 -97.5q0 -44 -13.5 -79t-35 -64t-45.5 -56l-180 -206
q-11 -13 -22 -25.5t-18 -20.5l-7 -8v0h24h50h255v-61h-420z" />
    <glyph glyph-name="three" unicode="3" horiz-adv-x="524" 
d="M244 -8q-54 0 -98 17t-76.5 49t-53.5 78l57 30q25 -58 73.5 -84.5t103.5 -26.5q45 0 84 16.5t63.5 49t24.5 80.5q0 70 -51 109.5t-131 39.5h-85v52l19 5h74q75 0 129 -26t83 -71.5t29 -104.5q0 -63 -32.5 -111t-88 -75t-124.5 -27zM235 403l-80 -1l170 184q12 13 23 25
t18.5 20l7.5 8v0h-23h-50h-242v61h409v-50z" />
    <glyph glyph-name="four" unicode="4" horiz-adv-x="535" 
d="M411 248h102v-61h-102v-187h-65v187h-331v71l338 442h58v-452zM346 511v58.5v26.5v0l-16 -21t-36 -47l-172 -225q-15 -20 -28.5 -37.5l-13.5 -17.5v0h21.5h46.5h198v263z" />
    <glyph glyph-name="five" unicode="5" horiz-adv-x="530" 
d="M252 -8q-72 0 -135 36.5t-104 118.5l52 33q29 -65 81 -95t108 -30q55 0 94 21t60 57t21 80q0 45 -20 82t-57 59t-90 22q-35 0 -73.5 -10.5t-70.5 -52.5h-53l67 387h344v-61h-313l25 30l-54 -308l-14 -2q12 28 36.5 45.5t55.5 26t61 8.5q45 0 85 -16t71.5 -46.5t49 -72
t17.5 -92.5q0 -66 -32.5 -115.5t-87.5 -77t-124 -27.5z" />
    <glyph glyph-name="six" unicode="6" horiz-adv-x="521" 
d="M407 700l-252 -332v20q18 17 47.5 28.5t71.5 11.5q65 0 116 -28.5t80.5 -78t29.5 -111.5q0 -46 -17.5 -86t-49.5 -69.5t-75 -46t-95 -16.5q-69 0 -122.5 28.5t-84 78.5t-30.5 112q0 25 5 49.5t16.5 49t30.5 50.5l249 340h80zM263 366q-50 0 -88.5 -20t-60 -55t-21.5 -80
t21.5 -80.5t60 -55.5t88.5 -20t88 20.5t59.5 55.5t21.5 80t-21.5 80t-59.5 55t-88 20z" />
    <glyph glyph-name="seven" unicode="7" horiz-adv-x="472" 
d="M24 639v61h434v-49l-352 -651h-73l319 587q11 20 19.5 36l8.5 16v0h-18.5h-40.5h-297z" />
    <glyph glyph-name="eight" unicode="8" horiz-adv-x="571" 
d="M286 -8q-68 0 -124 23.5t-89 68.5t-33 110q0 53 21.5 90t57.5 60t79.5 34t87.5 11t87 -11t79 -34t57.5 -60t21.5 -90q0 -65 -33 -110t-88.5 -68.5t-123.5 -23.5zM286 53q49 0 89.5 16.5t64.5 49t24 79.5q0 46 -24 78t-64.5 48.5t-89.5 16.5t-89.5 -16.5t-65 -48.5
t-24.5 -78q0 -47 24.5 -79.5t65 -49t89.5 -16.5zM286 402q43 0 78 14t56 41.5t21 68.5q0 39 -21 66t-56 41t-78 14t-78.5 -14t-56.5 -41t-21 -66q0 -41 21 -68.5t56.5 -41.5t78.5 -14zM286 352q-40 0 -79 10t-71.5 31.5t-52 55t-19.5 79.5q0 58 30 98t80.5 61t111.5 21
t111 -21t80 -61t30 -98q0 -46 -19.5 -79.5t-51.5 -55t-71 -31.5t-79 -10z" />
    <glyph glyph-name="nine" unicode="9" horiz-adv-x="523" 
d="M115 -3l252 332l-1 -20q-17 -16 -47 -28t-71 -12q-64 0 -115.5 28.5t-81 78t-29.5 110.5q0 47 17.5 87t49 69.5t75 46t94.5 16.5q70 0 123.5 -28.5t84 -78t30.5 -112.5q0 -25 -5 -49t-15 -47t-27 -46l-253 -347h-81zM258 331q51 0 89 20t59.5 55.5t21.5 79.5
q0 68 -47 112t-123 44q-49 0 -87.5 -20t-60 -55.5t-21.5 -80.5q0 -44 21.5 -79.5t60 -55.5t87.5 -20z" />
    <glyph glyph-name="colon" unicode=":" horiz-adv-x="210" 
d="M104 407q-21 0 -35 14.5t-14 36.5q0 21 14 35.5t35 14.5q22 0 36.5 -14.5t14.5 -35.5q0 -22 -14.5 -36.5t-36.5 -14.5zM104 -9q-21 0 -35 14.5t-14 36.5q0 21 14 35.5t35 14.5q22 0 36.5 -14.5t14.5 -35.5q0 -22 -14.5 -36.5t-36.5 -14.5z" />
    <glyph glyph-name="semicolon" unicode=";" horiz-adv-x="225" 
d="M112 407q-21 0 -35 14.5t-14 36.5q0 21 14 35.5t35 14.5q22 0 36.5 -14.5t14.5 -35.5q0 -22 -14.5 -36.5t-36.5 -14.5zM95 -148l-42 17l62 150l9 -29q-25 -2 -41.5 13t-16.5 39q0 22 14 36t35 14q22 0 36.5 -14t14.5 -37q0 -15 -4 -27t-13 -33z" />
    <glyph glyph-name="less" unicode="&#x3c;" horiz-adv-x="600" 
d="M452 91l-335 165v42l335 166v-66l-296 -141v40l296 -140v-66z" />
    <glyph glyph-name="equal" unicode="=" horiz-adv-x="600" 
d="M484 217v-58h-369v58h369zM484 396v-57h-369v57h369z" />
    <glyph glyph-name="greater" unicode="&#x3e;" horiz-adv-x="600" 
d="M148 464l335 -165v-42l-335 -166v66l296 141v-40l-296 140v66z" />
    <glyph glyph-name="question" unicode="?" horiz-adv-x="472" 
d="M185 212q0 55 17 91.5t43 62.5t52 47q30 23 50.5 52t20.5 72q0 48 -36.5 77.5t-96.5 29.5q-34 0 -64 -13.5t-53.5 -43.5t-37.5 -80l-59 15q15 61 46.5 102.5t76 63t96.5 21.5q61 0 105 -21.5t68.5 -60t24.5 -90.5q0 -46 -15 -77.5t-38 -54t-48 -42.5q-26 -20 -46.5 -40
t-32.5 -46t-12 -65h-61zM216 -9q-21 0 -35 14.5t-14 36.5q0 21 14 35.5t35 14.5q22 0 36.5 -14.5t14.5 -35.5q0 -22 -14.5 -36.5t-36.5 -14.5z" />
    <glyph glyph-name="at" unicode="@" horiz-adv-x="845" 
d="M411 -150q-81 0 -149.5 29t-119.5 81t-79 123.5t-28 156.5t29 156t81 123t122 80.5t153 28.5t153.5 -27t122.5 -76.5t81 -116t29 -145.5q0 -48 -12.5 -89.5t-35.5 -72t-54 -47.5t-67 -17q-40 0 -67 18t-40.5 45.5t-13.5 55.5l22 93l-3 46l26 131h60l-43 -221
q-6 -31 -1 -57t20.5 -41t42.5 -15q22 0 40.5 11t32.5 33t21.5 53.5t7.5 73.5q0 92 -42 161t-115 107.5t-165 38.5q-69 0 -127.5 -23.5t-102 -67t-67.5 -104t-24 -135.5q0 -99 41 -174.5t112 -117.5t159 -42q62 0 120 21.5t99 71.5l42 -38q-36 -41 -79 -65.5t-89 -35
t-93 -10.5zM365 57q-41 0 -74 20.5t-52 57.5t-19 86q0 45 16.5 84t44.5 69.5t64 47.5t76 17q43 0 71.5 -16.5t43.5 -44t18.5 -61.5t-3.5 -69h10q-8 -47 -33.5 -91t-66.5 -72t-96 -28zM383 114q40 0 72.5 20.5t52.5 57t20 83.5q0 49 -26 78t-73 29q-39 0 -72 -20.5t-53 -56.5
t-20 -84q0 -49 26.5 -78t72.5 -29z" />
    <glyph glyph-name="A" unicode="A" horiz-adv-x="637" 
d="M5 0l282 700h63l283 -700h-72l-214 542q-11 28 -20 50.5l-9 22.5v0l-9 -22.5t-20 -50.5l-214 -542h-70zM146 221l25 63h294l25 -63h-344z" />
    <glyph glyph-name="B" unicode="B" horiz-adv-x="623" 
d="M112 0v63h235q79 0 126.5 29.5t47.5 106.5q0 52 -21.5 81.5t-60.5 42t-92 12.5h-238v63h215q49 0 85.5 10.5t57.5 36.5t21 73q0 69 -45.5 94t-118.5 25h-216v63h216q69 0 122 -19t82.5 -59t29.5 -104q0 -67 -45 -107.5t-115 -45.5l19 10q50 -4 89 -26t62 -59.5t23 -90.5
q0 -68 -31.5 -112.5t-86.5 -65.5t-126 -21h-235zM70 0v700h67v-700h-67z" />
    <glyph glyph-name="C" unicode="C" horiz-adv-x="700" 
d="M378 -9q-99 0 -176.5 45.5t-121.5 126.5t-44 187q0 80 25 146t71 113.5t108.5 73.5t137.5 26q72 0 132 -25t104 -71t69 -110l-63 -29q-19 54 -54.5 92t-83 58t-104.5 20q-58 0 -107.5 -20t-86.5 -58.5t-57.5 -93t-20.5 -122.5q0 -91 35.5 -157t97.5 -101.5t139 -35.5
q85 0 149 45t93 125l63 -29q-37 -95 -117 -150.5t-188 -55.5z" />
    <glyph glyph-name="D" unicode="D" horiz-adv-x="708" 
d="M315 700q110 0 190 -42.5t123.5 -121t43.5 -186.5t-43.5 -186.5t-123.5 -121t-190 -42.5h-201v63h200q94 0 158 35.5t97 100t33 151.5q0 88 -33 152t-97 99.5t-158 35.5h-203v63h204zM137 700v-700h-67v700h67z" />
    <glyph glyph-name="E" unicode="E" horiz-adv-x="569" 
d="M137 700v-700h-67v700h67zM535 63v-63h-438v63h438zM496 384v-63h-399v63h399zM535 700v-63h-438v63h438z" />
    <glyph glyph-name="F" unicode="F" horiz-adv-x="544" 
d="M137 700v-700h-67v700h67zM527 700v-64h-430v64h430zM490 370v-63h-393v63h393z" />
    <glyph glyph-name="G" unicode="G" horiz-adv-x="735" 
d="M375 -8q-72 0 -133.5 25t-108 71.5t-72 113t-25.5 148.5q0 83 26 149t72 113t108.5 72t135.5 25q67 0 126 -22.5t106.5 -69.5t77.5 -119l-61 -30q-36 88 -100.5 132t-149.5 44q-57 0 -106 -20t-86.5 -58t-58 -92.5t-20.5 -123.5q0 -92 36 -158t97 -101t136 -35
q78 0 135.5 34t89.5 97.5t33 152.5l26 -42h-284v63h328v-10.5v-10.5q0 -107 -41 -185t-114.5 -120.5t-172.5 -42.5z" />
    <glyph glyph-name="H" unicode="H" horiz-adv-x="691" 
d="M621 700v-700h-67v700h67zM137 700v-700h-67v700h67zM594 384v-63h-497v63h497z" />
    <glyph glyph-name="I" unicode="I" horiz-adv-x="207" 
d="M137 700v-700h-67v700h67z" />
    <glyph glyph-name="J" unicode="J" horiz-adv-x="484" 
d="M212 -8q-76 0 -128 39.5t-78 96.5l54 34q18 -44 56.5 -75t93.5 -31q63 0 102.5 39t39.5 123v482h67v-487q0 -53 -15.5 -94.5t-43.5 -69.5t-66 -42.5t-82 -14.5z" />
    <glyph glyph-name="K" unicode="K" horiz-adv-x="589" 
d="M137 700v-700h-67v700h67zM511 0l-388 351l367 349h91l-389 -364l-1 40l416 -376h-96z" />
    <glyph glyph-name="L" unicode="L" horiz-adv-x="512" 
d="M137 64h363v-64h-430v700h67v-636z" />
    <glyph glyph-name="M" unicode="M" horiz-adv-x="789" 
d="M396 331l263 370h60v-701h-67v491v61.5v26.5v0l-15.5 -21t-35.5 -50l-198 -277h-15l-198 274q-13 19 -25 35.5l-20 27.5l-8 11v0v-13.5v-34v-43.5v-488h-67v701h61z" />
    <glyph glyph-name="N" unicode="N" horiz-adv-x="702" 
d="M565 700h67v-700h-57l-385 510q-19 26 -36 48.5l-17 22.5v0v-27.5v-61.5v-492h-67v700h57l385 -510q20 -26 36.5 -48.5l16.5 -22.5v0v27.5v61.5v492z" />
    <glyph glyph-name="O" unicode="O" horiz-adv-x="767" 
d="M384 -9q-102 0 -181 45.5t-123.5 126.5t-44.5 187q0 80 25.5 146t72 113.5t110.5 73.5t141 26q103 0 181 -45.5t122.5 -126t44.5 -187.5q0 -80 -25.5 -146t-72 -113.5t-110 -73.5t-140.5 -26zM384 56q60 0 110.5 20t88.5 58.5t58.5 93t20.5 122.5q0 91 -36 157t-99 101.5
t-143 35.5q-60 0 -111 -20t-88.5 -58.5t-58.5 -93t-21 -122.5q0 -91 36.5 -157t99.5 -101.5t143 -35.5z" />
    <glyph glyph-name="P" unicode="P" horiz-adv-x="590" 
d="M110 255v63h196q91 0 141 40.5t50 119.5q0 80 -50 119.5t-141 39.5h-196v63h203q116 0 185 -58t69 -164q0 -70 -31.5 -120t-88.5 -76.5t-134 -26.5h-203zM70 0v700h67v-700h-67z" />
    <glyph glyph-name="Q" unicode="Q" horiz-adv-x="767" 
d="M500 244l226 -284l-48 -38l-227 284zM384 -9q-102 0 -181 45.5t-123.5 126.5t-44.5 187q0 80 25.5 146t72 113.5t110.5 73.5t141 26q103 0 181 -45.5t122.5 -126t44.5 -187.5q0 -80 -25.5 -146t-72 -113.5t-110 -73.5t-140.5 -26zM384 56q60 0 110.5 20t88.5 58.5
t58.5 93t20.5 122.5q0 91 -36 157t-99 101.5t-143 35.5q-60 0 -111 -20t-88.5 -58.5t-58.5 -93t-21 -122.5q0 -91 36.5 -157t99.5 -101.5t143 -35.5z" />
    <glyph glyph-name="R" unicode="R" horiz-adv-x="619" 
d="M121 275v63h208q84 0 128.5 38.5t44.5 111.5t-45 111t-128 38h-211v63h217q109 0 173 -55.5t64 -156.5q0 -65 -30.5 -113t-83.5 -74t-123 -26h-214zM70 0v700h67v-700h-67zM520 0l-242 307l77 1l248 -308h-83z" />
    <glyph glyph-name="S" unicode="S" horiz-adv-x="591" 
d="M305 -9q-82 0 -141.5 27t-95.5 76.5t-50 116.5l69 16q17 -82 73 -126.5t145 -44.5q85 0 135.5 32.5t50.5 87.5q0 31 -16 56t-52.5 44.5t-98.5 35.5l-100 26q-55 15 -94 40.5t-59 61t-20 79.5q0 56 30 99t84 67t125 24t124.5 -23t88.5 -68t49 -112l-65 -16
q-17 81 -69.5 117.5t-125.5 36.5q-75 0 -122.5 -32.5t-47.5 -85.5q0 -51 33 -78t101 -46l99 -27q70 -19 115.5 -47t68 -64.5t22.5 -80.5q0 -58 -31.5 -101t-89 -67t-135.5 -24z" />
    <glyph glyph-name="T" unicode="T" horiz-adv-x="553" 
d="M310 670v-670h-67v670h67zM541 700v-64h-529v64h529z" />
    <glyph glyph-name="U" unicode="U" horiz-adv-x="679" 
d="M616 281q0 -96 -37 -160.5t-99.5 -96.5t-139.5 -32q-58 0 -108 18t-88 54t-59.5 90.5t-21.5 126.5v419h68v-414q0 -78 27 -129t74.5 -76t107.5 -25t107 25t74.5 76t27.5 129v414h67v-419z" />
    <glyph glyph-name="V" unicode="V" horiz-adv-x="622" 
d="M283 169q8 -19 14.5 -36t10.5 -28l4 -11v0l4 11t11 28t14 36l204 531h70l-272 -700h-63l-273 700h72z" />
    <glyph glyph-name="W" unicode="W" horiz-adv-x="960" 
d="M228 -1l-218 701h70l153 -503q11 -34 19 -62l8 -28v0l4 13t10.5 33.5t13.5 42.5l161 505h63l161 -503q11 -34 19.5 -62l8.5 -28v0l4 13.5t10.5 34t12.5 42.5l154 502h68l-218 -701h-62l-162 505q-10 32 -19 60l-9 28v0l-8.5 -28t-19.5 -60l-162 -505h-62z" />
    <glyph glyph-name="X" unicode="X" horiz-adv-x="605" 
d="M-7 0l287 380v-46l-275 366h81l162 -215q12 -15 24.5 -32.5t21.5 -29.5l9 -12v0l9 12t22.5 29.5t24.5 32.5l162 215h79l-274 -364v46l286 -382h-81l-174 231q-11 16 -24 33t-22 29l-9 12v0l-9 -12t-22 -29.5t-25 -32.5l-174 -231h-79z" />
    <glyph glyph-name="Y" unicode="Y" horiz-adv-x="651" 
d="M326 300l-314 400h80l240 -297h-12l240 297h78zM292 0v392h67v-392h-67z" />
    <glyph glyph-name="Z" unicode="Z" horiz-adv-x="546" 
d="M19 0v52l380 532q14 20 26 36.5l12 16.5v0h-20.5h-44.5h-346v63h498v-52l-380 -532q-14 -19 -26 -36l-12 -17v0h20.5h44.5h354v-63h-506z" />
    <glyph glyph-name="bracketleft" unicode="[" horiz-adv-x="265" 
d="M133 700v-832h-64v832h64zM248 700v-58h-152v58h152zM248 -73v-59h-152v59h152z" />
    <glyph glyph-name="backslash" unicode="\" horiz-adv-x="473" 
d="M16 785h69l371 -870h-68z" />
    <glyph glyph-name="bracketright" unicode="]" horiz-adv-x="264" 
d="M131 -131v832h64v-832h-64zM16 -131v58h152v-58h-152zM16 642v59h152v-59h-152z" />
    <glyph glyph-name="asciicircum" unicode="^" horiz-adv-x="600" 
d="M162 377h-65l180 324h47l179 -324h-66l-156 285h37z" />
    <glyph glyph-name="underscore" unicode="_" horiz-adv-x="459" 
d="M459 -51v-59h-459v59h459z" />
    <glyph glyph-name="grave" unicode="`" horiz-adv-x="416" 
d="M287 584h-65l-95 134h74z" />
    <glyph glyph-name="a" unicode="a" horiz-adv-x="508" 
d="M390 0v97l3 14v80l-3 6v108q0 54 -21.5 85.5t-55 45t-70.5 13.5q-55 0 -94 -28.5t-51 -76.5l-56 18q16 69 71.5 107.5t129.5 38.5q40 0 77.5 -11t68 -34t48.5 -60.5t18 -90.5v-312h-65zM229 -9q-52 0 -98.5 17t-75.5 51.5t-29 84.5q0 51 29 85t75.5 51t97.5 17
q94 0 143 -41t49 -112v0q0 -71 -48.5 -112t-142.5 -41zM244 46q62 0 105 25t43 73t-43 73t-105 25t-106.5 -24t-44.5 -74q0 -49 44.5 -73.5t106.5 -24.5z" />
    <glyph glyph-name="b" unicode="b" horiz-adv-x="575" 
d="M307 -8q-53 0 -93.5 21t-68 57t-41.5 82.5t-14 97.5v0q0 51 14 97.5t41.5 82.5t68 57t93.5 21q66 0 119.5 -32t84.5 -90t31 -136q0 -58 -18 -105.5t-50 -81.5t-74.5 -52.5t-92.5 -18.5zM58 0v700h65v-384l-15 -66l15 -75v-175h-65zM299 52q39 0 71.5 13.5t56.5 39.5
t37 62.5t13 82.5q0 92 -50 145t-128 53q-39 0 -71.5 -13.5t-56.5 -39.5t-37 -62.5t-13 -82.5q0 -92 50 -145t128 -53z" />
    <glyph glyph-name="c" unicode="c" horiz-adv-x="518" 
d="M270 -8q-67 0 -120.5 33t-85 91.5t-31.5 133.5q0 57 18 104t50.5 81.5t75.5 53.5t93 19q48 0 91.5 -15.5t79.5 -52.5t58 -101l-58 -24q-25 73 -68.5 103t-102.5 30q-35 0 -66 -13t-54.5 -38.5t-37 -62.5t-13.5 -84q0 -63 23.5 -107.5t62.5 -67.5t85 -23q59 0 102.5 30
t68.5 103l58 -24q-22 -64 -58 -101t-79.5 -52.5t-91.5 -15.5z" />
    <glyph glyph-name="d" unicode="d" horiz-adv-x="575" 
d="M268 -8q-66 0 -119 32t-84.5 90t-31.5 136q0 59 18 106.5t50 81.5t75 52t92 18q53 0 93.5 -21t68 -57t41.5 -82.5t14 -97.5v0q0 -51 -14 -97.5t-41.5 -82.5t-68 -57t-93.5 -21zM276 52q39 0 71.5 13.5t56.5 39.5t37 62.5t13 82.5q0 92 -50 145t-128 53q-39 0 -71.5 -13.5
t-56.5 -39.5t-37 -62.5t-13 -82.5q0 -92 50 -145t128 -53zM452 0v175l15 75l-15 66v384h65v-700h-65z" />
    <glyph glyph-name="e" unicode="e" horiz-adv-x="528" 
d="M267 -9q-67 0 -120 32.5t-83.5 91t-30.5 135.5q0 60 17.5 107.5t49.5 81t75 51.5t94 18q65 0 116 -31t80.5 -87.5t29.5 -132.5v-11t-1 -10h-423v55h384l-28 -45v4v3q0 98 -45.5 146.5t-113.5 48.5q-38 0 -69 -13.5t-53.5 -39.5t-34.5 -62.5t-12 -82.5q0 -63 23 -107.5
t61.5 -68t86.5 -23.5q36 0 67 11.5t56.5 37t42.5 68.5l56 -26q-24 -57 -60 -90t-78.5 -47t-86.5 -14z" />
    <glyph glyph-name="f" unicode="f" horiz-adv-x="291" 
d="M98 570q0 57 32 95.5t99 38.5h54v-59h-49q-38 0 -54.5 -20.5t-16.5 -58.5v-566h-65v570zM12 441v59h271v-59h-271z" />
    <glyph glyph-name="g" unicode="g" horiz-adv-x="526" 
d="M271 -172q-87 0 -142 18t-81 48.5t-26 67.5q0 32 22.5 59t64.5 40q-36 11 -56 30.5t-20 47.5q0 38 29 62t81 31q-37 20 -58 51.5t-21 71.5q0 44 26.5 78.5t73 54.5t105.5 20q63 0 118 1.5t103 24.5l21 -56q-31 -13 -56.5 -18.5t-50.5 -6.5q32 -16 50.5 -43.5t18.5 -60.5
q0 -44 -26.5 -78t-74 -53.5t-110.5 -19.5q-38 0 -68.5 -2t-51.5 -7.5t-32 -15.5t-11 -27q0 -19 19 -29t53 -13.5t79 -3.5h26q88 0 141 -18.5t76.5 -50t23.5 -69.5q0 -28 -14.5 -52t-44 -42.5t-76 -29t-111.5 -10.5zM271 -114q100 0 140 20.5t40 56.5q0 37 -40 57t-140 20
q-66 0 -106.5 -9.5t-58.5 -27t-18 -40.5q0 -34 41.5 -55.5t141.5 -21.5zM269 254q39 0 70.5 11t50 33t18.5 54q0 48 -40 73t-99 25q-39 0 -70.5 -11t-50 -32.5t-18.5 -54.5q0 -49 40.5 -73.5t98.5 -24.5z" />
    <glyph glyph-name="h" unicode="h" horiz-adv-x="528" 
d="M58 0v700h65v-311l-10 9q24 58 71.5 84t98.5 26q56 0 99.5 -24.5t68 -69.5t24.5 -106v-308h-65v299q0 68 -37.5 108.5t-98.5 40.5q-67 0 -109 -40.5t-42 -108.5v-299h-65z" />
    <glyph glyph-name="i" unicode="i" horiz-adv-x="181" 
d="M123 500v-500h-65v500h65zM90 616q-21 0 -35 14.5t-14 36.5q0 21 14 35.5t35 14.5q22 0 36.5 -14.5t14.5 -35.5q0 -22 -14.5 -36.5t-36.5 -14.5z" />
    <glyph glyph-name="j" unicode="j" horiz-adv-x="181" 
d="M123 -41q0 -62 -29 -94.5t-81 -32.5h-23v61h17q25 0 38 17t13 52v538h65v-541zM90 616q-21 0 -35 14.5t-14 36.5q0 21 14 35.5t35 14.5q22 0 36.5 -14.5t14.5 -35.5q0 -22 -14.5 -36.5t-36.5 -14.5z" />
    <glyph glyph-name="k" unicode="k" horiz-adv-x="437" 
d="M365 0l-251 263l238 237h81l-262 -254l2 39l273 -285h-81zM58 0v700h65v-700h-65z" />
    <glyph glyph-name="l" unicode="l" horiz-adv-x="237" 
d="M183 0q-42 0 -69.5 17t-40.5 45.5t-13 64.5v573h65v-569q0 -34 14.5 -53t48.5 -19h44v-59h-49z" />
    <glyph glyph-name="m" unicode="m" horiz-adv-x="804" 
d="M574 507q52 0 92 -24t62.5 -67t22.5 -101v-315h-65v305q0 68 -33 105.5t-86 37.5q-57 0 -93.5 -37.5t-36.5 -105.5v-305h-65v305q0 68 -33 105.5t-86 37.5q-38 0 -67.5 -17t-46 -49t-16.5 -77v-305h-65v500h65v-105l-10 8q23 56 64.5 80t87.5 24q59 0 102 -32.5t60 -89.5
l-15 -3q19 68 65.5 96.5t96.5 28.5z" />
    <glyph glyph-name="n" unicode="n" horiz-adv-x="528" 
d="M283 508q56 0 99.5 -24.5t68 -69.5t24.5 -106v-308h-65v299q0 68 -37.5 108.5t-98.5 40.5q-67 0 -109 -40.5t-42 -108.5v-299h-65v500h65v-111l-10 9q24 58 71.5 84t98.5 26z" />
    <glyph glyph-name="o" unicode="o" horiz-adv-x="562" 
d="M281 -9q-71 0 -127 32.5t-88.5 91t-32.5 135.5q0 57 18.5 104.5t52 82t79 53t98.5 18.5q71 0 127 -32.5t88.5 -90.5t32.5 -135q0 -58 -18.5 -105.5t-52 -82t-79 -53t-98.5 -18.5zM281 51q39 0 72.5 13.5t58 39.5t38 63t13.5 83q0 61 -23.5 105.5t-64.5 68.5t-94 24
q-39 0 -72.5 -13.5t-58 -39.5t-38 -62.5t-13.5 -82.5q0 -61 23.5 -106t65 -69t93.5 -24z" />
    <glyph glyph-name="p" unicode="p" horiz-adv-x="575" 
d="M307 -8q-53 0 -93.5 21t-68 57t-41.5 82.5t-14 97.5v0q0 51 14 97.5t41.5 82.5t68 57t93.5 21q66 0 119.5 -32t84.5 -90t31 -136q0 -58 -18 -105.5t-50 -81.5t-74.5 -52.5t-92.5 -18.5zM58 -163v663h65v-175l-15 -75l15 -66v-347h-65zM299 52q39 0 71.5 13.5t56.5 39.5
t37 62.5t13 82.5q0 92 -50 145t-128 53q-39 0 -71.5 -13.5t-56.5 -39.5t-37 -62.5t-13 -82.5q0 -92 50 -145t128 -53z" />
    <glyph glyph-name="q" unicode="q" horiz-adv-x="575" 
d="M268 -8q-66 0 -119 32t-84.5 90t-31.5 136q0 59 18 106.5t50 81.5t75 52t92 18q53 0 93.5 -21t68 -57t41.5 -82.5t14 -97.5v0q0 -51 -14 -97.5t-41.5 -82.5t-68 -57t-93.5 -21zM276 52q39 0 71.5 13.5t56.5 39.5t37 62.5t13 82.5q0 92 -50 145t-128 53q-39 0 -71.5 -13.5
t-56.5 -39.5t-37 -62.5t-13 -82.5q0 -92 50 -145t128 -53zM452 -163v347l15 66l-15 75v175h65v-663h-65z" />
    <glyph glyph-name="r" unicode="r" horiz-adv-x="310" 
d="M122 500v-135l1 -17v-348h-65v500h64zM269 508h31v-68h-44q-59 0 -96 -47t-37 -121h-26q0 75 22 127.5t60.5 80.5t89.5 28z" />
    <glyph glyph-name="s" unicode="s" horiz-adv-x="458" 
d="M233 -9q-49 0 -91.5 15t-73.5 49.5t-46 92.5l57 16q10 -41 33.5 -66t54.5 -36t65 -11q59 0 94 23t35 57t-30 52.5t-91 33.5l-51 13q-79 20 -113 57t-34 87q0 39 22.5 69t62.5 47.5t92 17.5q48 0 91 -17t73 -52t38 -90l-58 -12q-12 62 -52.5 86t-91.5 24q-47 0 -78 -20
t-31 -53q0 -25 16.5 -41.5t43 -27t56.5 -18.5l51 -13q78 -20 114.5 -53.5t36.5 -88.5q0 -40 -24 -72t-68 -50.5t-103 -18.5z" />
    <glyph glyph-name="t" unicode="t" horiz-adv-x="304" 
d="M235 0q-44 0 -73 17.5t-43 48t-14 68.5v482l65 48v-523q0 -39 16.5 -60.5t53.5 -21.5h50v-59h-55zM290 441h-280v59h280v-59z" />
    <glyph glyph-name="u" unicode="u" horiz-adv-x="523" 
d="M262 -8q-60 0 -107.5 24t-74.5 71.5t-27 115.5v297h65v-291q0 -77 40.5 -116.5t103.5 -39.5q64 0 103.5 39.5t39.5 116.5v291h65v-297q0 -68 -27 -115.5t-73.5 -71.5t-107.5 -24z" />
    <glyph glyph-name="v" unicode="v" horiz-adv-x="489" 
d="M216 -1l-205 501h70l140 -349q5 -11 10.5 -25.5t9.5 -25l4 -10.5v0l4.5 10.5t10.5 25t10 25.5l139 349h69l-205 -501h-57z" />
    <glyph glyph-name="w" unicode="w" horiz-adv-x="737" 
d="M500 183q11 -32 20 -59l9 -27v0l4 12.5t10 32.5t13 42l100 316h66l-164 -500h-57l-104 318q-10 32 -19.5 58.5l-9.5 26.5v0l-8 -26.5t-19 -58.5l-105 -318h-56l-165 500h68l100 -316q7 -22 13.5 -42t10.5 -32.5l4 -12.5v0l4 12.5t10.5 32.5t13.5 42l104 316h52z" />
    <glyph glyph-name="x" unicode="x" horiz-adv-x="471" 
d="M186 145l-113 -145h-76l217 278v-46l-207 268h79l103 -132q9 -12 20 -26.5t19 -25l8 -10.5v0l8.5 10.5t20 25t20.5 26.5l103 132h76l-207 -266v46l217 -280h-79l-113 145q-9 12 -20 26.5t-19 25l-8 10.5v0l-8.5 -10.5t-19.5 -25t-21 -26.5z" />
    <glyph glyph-name="y" unicode="y" horiz-adv-x="495" 
d="M229 230q11 -22 20.5 -40.5l9.5 -18.5v0l9 18.5t20 40.5l136 270h72l-332 -663h-72l132 265l-208 398h74z" />
    <glyph glyph-name="z" unicode="z" horiz-adv-x="444" 
d="M149 112q-15 -19 -28 -36l-13 -17v0h21h46h246v-59h-401v47l268 341q16 20 29 36.5l13 16.5v0h-21h-47h-229v59h381v-48z" />
    <glyph glyph-name="braceleft" unicode="{" horiz-adv-x="302" 
d="M251 -131q-37 0 -69.5 13t-55.5 38t-30.5 60t5.5 78l25 73q14 40 -1 67.5t-46 42t-66 14.5v59q35 0 66 14.5t46 42t1 67.5l-25 72q-13 44 -5.5 79t30.5 60t55.5 38t69.5 13h32v-58h-32q-26 0 -50 -14.5t-35.5 -42t-0.5 -68.5l24 -72q16 -45 0.5 -79.5t-48 -56
t-68.5 -29.5v10q36 -8 68.5 -30t48 -56t-0.5 -80l-24 -72q-11 -41 0.5 -69t35.5 -42t50 -14h32v-58h-32z" />
    <glyph glyph-name="bar" unicode="|" horiz-adv-x="201" 
d="M132 760v-893h-63v893h63z" />
    <glyph glyph-name="braceright" unicode="}" horiz-adv-x="302" 
d="M51 700q37 0 69.5 -13t55.5 -38t30.5 -60t-5.5 -78l-25 -73q-14 -40 1 -67.5t46 -42t66 -14.5v-59q-35 0 -66 -14.5t-46 -42t-1 -67.5l25 -72q13 -44 5.5 -79t-30.5 -60t-55.5 -38t-69.5 -13h-32v58h32q26 0 50 14.5t35.5 42t0.5 68.5l-24 72q-16 45 -0.5 79.5t48 56
t68.5 29.5v-10q-36 8 -68.5 30t-48 56t0.5 80l24 72q11 41 -0.5 69t-35.5 42t-50 14h-32v58h32z" />
    <glyph glyph-name="asciitilde" unicode="~" horiz-adv-x="600" 
d="M383 217q-27 0 -49 9.5t-41.5 22.5t-37 22.5t-34.5 9.5q-16 0 -28 -11.5t-12 -46.5h-63q0 46 16 70.5t40 34.5t46 10q26 0 48 -9.5t41.5 -22.5t37 -22.5t35.5 -9.5q16 0 27.5 11.5t11.5 46.5h63q0 -45 -16 -70t-39 -35t-46 -10z" />
    <glyph glyph-name="uni00A0" unicode="&#xa0;" horiz-adv-x="209" 
 />
    <glyph glyph-name="exclamdown" unicode="&#xa1;" horiz-adv-x="192" 
d="M119 286l10 -138v-349h-66v349l10 138h46zM97 508q21 0 35 -14.5t14 -36.5q0 -21 -14 -35.5t-35 -14.5q-22 0 -36.5 14.5t-14.5 35.5q0 22 14.5 36.5t36.5 14.5z" />
    <glyph glyph-name="cent" unicode="&#xa2;" horiz-adv-x="650" 
d="M305 702h58v-111v-15v-445v-16v-115h-58v106v22v446v16v112zM332 92q-67 0 -120.5 33t-85 91.5t-31.5 133.5q0 57 18 104t50.5 81.5t75.5 53.5t93 19q48 0 91.5 -15.5t79.5 -52.5t58 -101l-58 -24q-25 73 -68.5 103t-102.5 30q-35 0 -66 -13t-54.5 -38.5t-37 -62.5
t-13.5 -84q0 -63 23.5 -107t62.5 -67.5t85 -23.5q59 0 102.5 30t68.5 103l58 -24q-22 -64 -58 -101t-79.5 -52.5t-91.5 -15.5z" />
    <glyph glyph-name="sterling" unicode="&#xa3;" horiz-adv-x="650" 
d="M102 52q46 32 70.5 58t34.5 51.5t10 55.5q0 34 -11.5 71t-26.5 75t-26.5 76.5t-11.5 75.5q0 63 28.5 106.5t76 65.5t104.5 22q79 0 136 -41t82 -128l-63 -21q-19 68 -61 96.5t-94 28.5q-58 0 -98.5 -33.5t-40.5 -98.5q0 -31 11.5 -66.5t26.5 -73t26.5 -76.5t11.5 -79
q0 -37 -12.5 -68t-40.5 -58t-75 -53l-6 25h417v-63h-468v52zM80 304v56h365v-56h-365z" />
    <glyph glyph-name="currency" unicode="&#xa4;" horiz-adv-x="650" 
d="M325 174q-47 0 -86.5 23.5t-62.5 64t-23 90.5q0 49 23 89t62.5 63.5t86.5 23.5q48 0 87 -23.5t62 -63.5t23 -89q0 -50 -23 -90.5t-62 -64t-87 -23.5zM136 120l-36 36l104 106l36 -37zM514 120l-106 108l38 33l104 -105zM325 224q34 0 61 17t43.5 46t16.5 65
q0 35 -16.5 63.5t-43.5 45.5t-61 17t-61.5 -17t-43.5 -45.5t-16 -63.5q0 -36 16 -65t43.5 -46t61.5 -17zM206 438l-106 108l35 36l105 -107zM445 440l-34 37l103 105l36 -36z" />
    <glyph glyph-name="yen" unicode="&#xa5;" horiz-adv-x="650" 
d="M326 301l-284 400h80l221 -313h-34l221 313h78zM132 112v52h387v-52h-387zM292 0v393h67v-393h-67zM132 262v52h387v-52h-387z" />
    <glyph glyph-name="brokenbar" unicode="&#xa6;" horiz-adv-x="201" 
d="M132 760v-377h-63v377h63zM132 245v-378h-63v378h63z" />
    <glyph glyph-name="section" unicode="&#xa7;" horiz-adv-x="549" 
d="M281 -138q-63 0 -113.5 22t-82.5 65t-42 105l62 19q9 -73 59 -111t117 -38q68 0 107 25.5t39 68.5q0 37 -27.5 61.5t-86.5 38.5l-119 29q-73 18 -114.5 55.5t-41.5 92.5q0 34 14 60.5t39.5 46.5t57.5 32l52 -28q-40 -10 -66.5 -36.5t-26.5 -66.5q0 -39 31.5 -58.5
t89.5 -34.5l119 -31q68 -18 108.5 -58t40.5 -97q0 -48 -26.5 -84.5t-75 -57t-114.5 -20.5zM344 165q46 7 72.5 34t26.5 69q0 37 -31.5 60.5t-98.5 39.5l-129 32q-57 14 -91 53t-34 95q0 48 25.5 84t71 56.5t104.5 20.5q57 0 103.5 -19.5t79 -58.5t45.5 -96l-63 -20
q-14 69 -60.5 100.5t-102.5 31.5q-39 0 -69 -11.5t-47 -32.5t-17 -50q0 -39 24 -59.5t67 -31.5l128 -33q76 -19 120.5 -58.5t44.5 -96.5q0 -39 -21 -71t-60 -54.5t-94 -33.5z" />
    <glyph glyph-name="dieresis" unicode="&#xa8;" horiz-adv-x="421" 
d="M101 596q-19 0 -32 12.5t-13 32.5t13 32.5t32 12.5q20 0 32.5 -12.5t12.5 -32.5t-12.5 -32.5t-32.5 -12.5zM321 596q-19 0 -32 12.5t-13 32.5t13 32.5t32 12.5q20 0 32.5 -12.5t12.5 -32.5t-12.5 -32.5t-32.5 -12.5z" />
    <glyph glyph-name="copyright" unicode="&#xa9;" horiz-adv-x="858" 
d="M428 751q82 0 153.5 -30t126 -83.5t85 -126t30.5 -158.5q0 -85 -30.5 -158t-85 -127t-126 -84t-153.5 -30t-153.5 30t-125.5 84t-84.5 127t-30.5 158q0 86 30.5 158.5t84.5 126t125.5 83.5t153.5 30zM428 699q-71 0 -132.5 -25.5t-108 -72.5t-73 -110.5t-26.5 -138.5
t26.5 -138t73 -109.5t108 -72.5t132.5 -26t133 26t108.5 72.5t73 109.5t26.5 138t-26.5 138.5t-73 110.5t-108.5 72.5t-133 25.5zM436 142q-60 0 -106.5 27.5t-73 76t-26.5 112.5t26.5 112.5t73 76t106.5 27.5q67 0 116 -33.5t71 -94.5l-53 -21q-16 45 -51.5 70.5
t-82.5 25.5q-63 0 -104.5 -43.5t-41.5 -119.5t41.5 -119.5t104.5 -43.5q47 0 82.5 25.5t51.5 70.5l53 -21q-22 -61 -71 -94.5t-116 -33.5z" />
    <glyph glyph-name="ordfeminine" unicode="&#xaa;" horiz-adv-x="319" 
d="M219 447v46l-1 8v51l-2 4v46q0 30 -18 43.5t-44 13.5q-24 0 -39 -8.5t-23 -23.5l-46 18q11 32 41 47.5t68 15.5q30 0 56 -10.5t42.5 -33t16.5 -57.5v-160h-51zM138 441q-44 0 -74 21t-30 59q0 37 30.5 58t76.5 21t70.5 -20.5t24.5 -54.5q0 -40 -25.5 -62t-72.5 -22z
M154 482q28 0 46 10t18 29t-18 29t-46 10t-46 -9.5t-18 -29.5q0 -19 18 -29t46 -10z" />
    <glyph glyph-name="guillemotleft" unicode="&#xab;" horiz-adv-x="463" 
d="M421 124l-44 -38l-165 191l165 191l44 -38l-153 -175v44zM238 124l-44 -38l-165 191l165 191l44 -38l-153 -175v44z" />
    <glyph glyph-name="logicalnot" unicode="&#xac;" horiz-adv-x="600" 
d="M431 164v139h-329v57h387v-196h-58z" />
    <glyph glyph-name="uni00AD" unicode="&#xad;" horiz-adv-x="348" 
d="M294 306v-59h-240v59h240z" />
    <glyph glyph-name="registered" unicode="&#xae;" horiz-adv-x="423" 
d="M211 709q51 0 92 -24t65.5 -64.5t24.5 -92.5q0 -51 -24.5 -92t-65.5 -65t-91 -24t-91.5 24t-66 65t-24.5 92q0 52 24.5 92.5t65.5 64.5t91 24zM211 670q-39 0 -70.5 -18.5t-50.5 -50.5t-19 -73t19 -73t51 -50.5t71 -18.5t71 18.5t50.5 50.5t18.5 73t-19 73t-50.5 50.5
t-71.5 18.5zM220 624q32 0 51.5 -16.5t19.5 -45.5q0 -26 -19.5 -42.5t-50.5 -16.5h-49v35h46q29 0 29 24q0 13 -7.5 19t-21.5 6h-47v37h49zM185 624v-189h-42v189h42zM241 517l56 -82h-49l-52 82h45z" />
    <glyph glyph-name="macron" unicode="&#xaf;" horiz-adv-x="395" 
d="M50 612v59h295v-59h-295z" />
    <glyph glyph-name="degree" unicode="&#xb0;" horiz-adv-x="370" 
d="M184 709q45 0 80 -20.5t55 -55.5t20 -79t-20 -79.5t-55 -55.5t-80 -20q-43 0 -78 20t-55 55.5t-20 79.5t20 79t55 55.5t78 20.5zM184 654q-40 0 -67.5 -28.5t-27.5 -71.5q0 -44 27.5 -72.5t67.5 -28.5q42 0 70 28.5t28 72.5q0 43 -28 71.5t-70 28.5z" />
    <glyph glyph-name="plusminus" unicode="&#xb1;" horiz-adv-x="600" 
d="M485 89v-57h-370v57h370zM485 365v-57h-370v57h370zM327 166h-58v341h58v-341z" />
    <glyph glyph-name="uni00B2" unicode="&#xb2;" horiz-adv-x="308" 
d="M41 350v45l131 143q10 11 18 21t12.5 21t4.5 24q0 22 -15.5 36t-39.5 14q-34 0 -48.5 -20t-20.5 -44l-49 16q5 24 17.5 47t37 38t63.5 15q53 0 83.5 -28.5t30.5 -71.5q0 -15 -4 -29t-12.5 -28.5t-23.5 -30.5l-77 -84q-8 -9 -19.5 -21l-11.5 -12v0h6.5h19h31.5h93v-51
h-227z" />
    <glyph glyph-name="uni00B3" unicode="&#xb3;" horiz-adv-x="318" 
d="M155 345q-40 0 -73.5 17.5t-52.5 57.5l42 32q14 -28 36 -42t47 -14q29 0 48.5 14.5t19.5 42.5q0 29 -22 43t-56 14h-38v44l64 67q7 8 17 18l10 10v0h-11.5h-26h-24.5h-86v51h221v-46l-95 -97q48 -5 77 -32t29 -71q0 -35 -17.5 -59.5t-46 -37t-62.5 -12.5z" />
    <glyph glyph-name="acute" unicode="&#xb4;" horiz-adv-x="260" 
d="M50 584l86 134h74l-95 -134h-65z" />
    <glyph glyph-name="uni00B5" unicode="&#xb5;" horiz-adv-x="549" 
d="M66 -163v663h65v-299q0 -67 37.5 -108t98.5 -41q67 0 109 41t42 108v299h65v-500h-65v110l10 -9q-23 -57 -70 -83t-97 -26q-46 0 -82.5 20t-59.5 56l12 13v-244h-65z" />
    <glyph glyph-name="paragraph" unicode="&#xb6;" horiz-adv-x="477" 
d="M215 367q-60 0 -103 16.5t-65.5 53t-22.5 96.5t22.5 97t65.5 53.5t103 16.5h40v-333h-40zM215 -163v863h50v-863h-50zM346 -163v863h50v-863h-50zM370 700l1 -47h-130v47h129z" />
    <glyph glyph-name="periodcentered" unicode="&#xb7;" horiz-adv-x="198" 
d="M98 227q-21 0 -35 14.5t-14 36.5q0 21 14 35.5t35 14.5q22 0 36.5 -14.5t14.5 -35.5q0 -22 -14.5 -36.5t-36.5 -14.5z" />
    <glyph glyph-name="cedilla" unicode="&#xb8;" horiz-adv-x="447" 
d="M149 -168v59h54q33 0 33 27q0 21 -22 43l-38 39l46 15l41 -38q20 -18 29 -37.5t9 -37.5q0 -29 -23.5 -49.5t-70.5 -20.5h-58z" />
    <glyph glyph-name="uni00B9" unicode="&#xb9;" horiz-adv-x="189" 
d="M135 700v-350h-57v299h-52v51h109z" />
    <glyph glyph-name="ordmasculine" unicode="&#xba;" horiz-adv-x="332" 
d="M166 708q58 0 96.5 -37t38.5 -96q0 -39 -17.5 -69.5t-48 -47.5t-69.5 -17t-69.5 17t-48 47.5t-17.5 69.5t17.5 69t48 47t69.5 17zM166 659q-34 0 -56.5 -22t-22.5 -62t22.5 -62.5t56.5 -22.5t56.5 22.5t22.5 62.5t-22.5 62t-56.5 22z" />
    <glyph glyph-name="guillemotright" unicode="&#xbb;" horiz-adv-x="463" 
d="M42 430l44 38l165 -191l-165 -191l-44 38l153 175v-44zM225 430l44 38l165 -191l-165 -191l-44 38l153 175v-44z" />
    <glyph glyph-name="onequarter" unicode="&#xbc;" horiz-adv-x="623" 
d="M135 700v-350h-57v299h-52v51h109zM502 700l-428 -700h-62l428 700h62zM487 0v82h-164v57l168 211h52v-217h50v-51h-50v-82h-56zM381 133h16h27h63v82v36.5v14.5v0l-5.5 -6.5t-12.5 -15.5t-13 -17l-47 -59q-5 -6 -11.5 -14.5t-11.5 -14.5z" />
    <glyph glyph-name="onehalf" unicode="&#xbd;" horiz-adv-x="637" 
d="M135 700v-350h-57v299h-52v51h109zM502 700l-428 -700h-62l428 700h62zM370 0v45l131 143q10 11 18 21t12.5 21t4.5 24q0 22 -15.5 36t-39.5 14q-34 0 -48.5 -20t-20.5 -44l-49 16q5 24 17.5 47t37 38t63.5 15q53 0 83.5 -28.5t30.5 -71.5q0 -15 -4 -29t-12.5 -28.5
t-23.5 -30.5l-77 -84q-8 -9 -19.5 -21l-11.5 -12v0h6.5h19h31.5h93v-51h-227z" />
    <glyph glyph-name="threequarters" unicode="&#xbe;" horiz-adv-x="741" 
d="M155 345q-40 0 -73.5 17.5t-52.5 57.5l42 32q14 -28 36 -42t47 -14q29 0 48.5 14.5t19.5 42.5q0 29 -22 43t-56 14h-38v44l64 67q7 8 17 18l10 10v0h-11.5h-26h-24.5h-86v51h221v-46l-95 -97q48 -5 77 -32t29 -71q0 -35 -17.5 -59.5t-46 -37t-62.5 -12.5zM620 700
l-428 -700h-62l428 700h62zM605 0v82h-164v57l168 211h52v-217h50v-51h-50v-82h-56zM499 133h16h27h63v82v36.5v14.5v0l-5.5 -6.5t-12.5 -15.5t-13 -17l-47 -59q-5 -6 -11.5 -14.5t-11.5 -14.5z" />
    <glyph glyph-name="questiondown" unicode="&#xbf;" horiz-adv-x="467" 
d="M283 287q0 -55 -17 -91.5t-43 -62.5t-52 -47q-30 -23 -50.5 -52t-20.5 -72q0 -48 36.5 -77.5t96.5 -29.5q34 0 64 13.5t53.5 43.5t37.5 80l59 -15q-15 -61 -46.5 -102.5t-76 -63t-96.5 -21.5q-61 0 -105 21.5t-68.5 60t-24.5 90.5q0 46 15 77.5t38 54t48 42.5
q26 20 46.5 40t32.5 46t12 65h61zM252 508q21 0 35 -14.5t14 -36.5q0 -21 -14 -35.5t-35 -14.5q-22 0 -36.5 14.5t-14.5 35.5q0 22 14.5 36.5t36.5 14.5z" />
    <glyph glyph-name="Agrave" unicode="&#xc0;" horiz-adv-x="637" 
d="M5 0l282 700h63l283 -700h-72l-214 542q-11 28 -20 50.5l-9 22.5v0l-9 -22.5t-20 -50.5l-214 -542h-70zM146 221l25 63h294l25 -63h-344zM301 784l-95 134h74l86 -134h-65z" />
    <glyph glyph-name="Aacute" unicode="&#xc1;" horiz-adv-x="637" 
d="M5 0l282 700h63l283 -700h-72l-214 542q-11 28 -20 50.5l-9 22.5v0l-9 -22.5t-20 -50.5l-214 -542h-70zM146 221l25 63h294l25 -63h-344zM272 784l86 134h74l-95 -134h-65z" />
    <glyph glyph-name="Acircumflex" unicode="&#xc2;" horiz-adv-x="637" 
d="M5 0l282 700h63l283 -700h-72l-214 542q-11 28 -20 50.5l-9 22.5v0l-9 -22.5t-20 -50.5l-214 -542h-70zM146 221l25 63h294l25 -63h-344zM160 784l131 134h57l131 -134h-81q-13 14 -31.5 34t-33 35l-14.5 15v0l-14 -15t-32.5 -35t-31.5 -34h-81z" />
    <glyph glyph-name="Atilde" unicode="&#xc3;" horiz-adv-x="637" 
d="M5 0l282 700h63l283 -700h-72l-214 542q-11 28 -20 50.5l-9 22.5v0l-9 -22.5t-20 -50.5l-214 -542h-70zM146 221l25 63h294l25 -63h-344zM380 789q-25 0 -42.5 9.5t-29.5 22.5t-22.5 22.5t-22.5 9.5t-21.5 -11.5t-9.5 -46.5h-58q0 46 13.5 70.5t34.5 34.5t41 10
q26 0 43 -9.5t29 -22.5t22.5 -22.5t22.5 -9.5t21.5 11.5t9.5 46.5h58q0 -45 -13.5 -70t-34 -35t-41.5 -10z" />
    <glyph glyph-name="Adieresis" unicode="&#xc4;" horiz-adv-x="637" 
d="M5 0l282 700h63l283 -700h-72l-214 542q-11 28 -20 50.5l-9 22.5v0l-9 -22.5t-20 -50.5l-214 -542h-70zM146 221l25 63h294l25 -63h-344zM209 796q-19 0 -32 12.5t-13 32.5t13 32.5t32 12.5q20 0 32.5 -12.5t12.5 -32.5t-12.5 -32.5t-32.5 -12.5zM429 796q-19 0 -32 12.5
t-13 32.5t13 32.5t32 12.5q20 0 32.5 -12.5t12.5 -32.5t-12.5 -32.5t-32.5 -12.5z" />
    <glyph glyph-name="Aring" unicode="&#xc5;" horiz-adv-x="637" 
d="M5 0l282 700h63l283 -700h-72l-214 542q-11 28 -20 50.5l-9 22.5v0l-9 -22.5t-20 -50.5l-214 -542h-70zM146 221l25 63h294l25 -63h-344zM320 755q-46 0 -79 27t-33 71t33 71.5t79 27.5q47 0 79 -27.5t32 -71.5t-32 -71t-79 -27zM320 805q25 0 40.5 13t15.5 35t-15.5 35
t-40.5 13t-40.5 -13t-15.5 -35t15.5 -35t40.5 -13z" />
    <glyph glyph-name="AE" unicode="&#xc6;" horiz-adv-x="968" 
d="M934 700v-63h-370v-253h331v-63h-331v-258h370v-63h-437v201h-288l-143 -201h-79l501 700h446zM497 516v44v34.5v13.5v0l-8 -11t-20 -28t-25 -36l-153 -216q-14 -20 -26 -36.5l-12 -16.5v0h20.5h44.5h179v252z" />
    <glyph glyph-name="Ccedilla" unicode="&#xc7;" horiz-adv-x="700" 
d="M378 -9q-99 0 -176.5 45.5t-121.5 126.5t-44 187q0 80 25 146t71 113.5t108.5 73.5t137.5 26q72 0 132 -25t104 -71t69 -110l-63 -29q-19 54 -54.5 92t-83 58t-104.5 20q-58 0 -107.5 -20t-86.5 -58.5t-57.5 -93t-20.5 -122.5q0 -91 35.5 -157t97.5 -101.5t139 -35.5
q85 0 149 45t93 125l63 -29q-37 -95 -117 -150.5t-188 -55.5zM317 -168v59h54q33 0 33 27q0 21 -22 43l-38 39l46 15l41 -38q20 -18 29 -37.5t9 -37.5q0 -29 -23.5 -49.5t-70.5 -20.5h-58z" />
    <glyph glyph-name="Egrave" unicode="&#xc8;" horiz-adv-x="569" 
d="M137 700v-700h-67v700h67zM535 63v-63h-438v63h438zM496 384v-63h-399v63h399zM535 700v-63h-438v63h438zM283 784l-95 134h74l86 -134h-65z" />
    <glyph glyph-name="Eacute" unicode="&#xc9;" horiz-adv-x="569" 
d="M137 700v-700h-67v700h67zM535 63v-63h-438v63h438zM496 384v-63h-399v63h399zM535 700v-63h-438v63h438zM254 784l86 134h74l-95 -134h-65z" />
    <glyph glyph-name="Ecircumflex" unicode="&#xca;" horiz-adv-x="569" 
d="M137 700v-700h-67v700h67zM535 63v-63h-438v63h438zM496 384v-63h-399v63h399zM535 700v-63h-438v63h438zM142 784l131 134h57l131 -134h-81q-13 14 -31.5 34t-33 35l-14.5 15v0l-14 -15t-32.5 -35t-31.5 -34h-81z" />
    <glyph glyph-name="Edieresis" unicode="&#xcb;" horiz-adv-x="569" 
d="M137 700v-700h-67v700h67zM535 63v-63h-438v63h438zM496 384v-63h-399v63h399zM535 700v-63h-438v63h438zM191 796q-19 0 -32 12.5t-13 32.5t13 32.5t32 12.5q20 0 32.5 -12.5t12.5 -32.5t-12.5 -32.5t-32.5 -12.5zM411 796q-19 0 -32 12.5t-13 32.5t13 32.5t32 12.5
q20 0 32.5 -12.5t12.5 -32.5t-12.5 -32.5t-32.5 -12.5z" />
    <glyph glyph-name="Igrave" unicode="&#xcc;" horiz-adv-x="207" 
d="M137 700v-700h-67v700h67zM85 784l-95 134h74l86 -134h-65z" />
    <glyph glyph-name="Iacute" unicode="&#xcd;" horiz-adv-x="207" 
d="M137 700v-700h-67v700h67zM56 784l86 134h74l-95 -134h-65z" />
    <glyph glyph-name="Icircumflex" unicode="&#xce;" horiz-adv-x="207" 
d="M137 700v-700h-67v700h67zM-56 784l131 134h57l131 -134h-81q-13 14 -31.5 34t-33 35l-14.5 15v0l-14 -15t-32.5 -35t-31.5 -34h-81z" />
    <glyph glyph-name="Idieresis" unicode="&#xcf;" horiz-adv-x="207" 
d="M137 700v-700h-67v700h67zM-7 796q-19 0 -32 12.5t-13 32.5t13 32.5t32 12.5q20 0 32.5 -12.5t12.5 -32.5t-12.5 -32.5t-32.5 -12.5zM213 796q-19 0 -32 12.5t-13 32.5t13 32.5t32 12.5q20 0 32.5 -12.5t12.5 -32.5t-12.5 -32.5t-32.5 -12.5z" />
    <glyph glyph-name="Eth" unicode="&#xd0;" horiz-adv-x="737" 
d="M330 384v-63h-320v63h320zM344 700q110 0 190 -42.5t123.5 -121t43.5 -186.5t-43.5 -186.5t-123.5 -121t-190 -42.5h-201v63h200q94 0 158 35.5t97 100t33 151.5q0 88 -33 152t-97 99.5t-158 35.5h-203v63h204zM166 700v-700h-67v700h67z" />
    <glyph glyph-name="Ntilde" unicode="&#xd1;" horiz-adv-x="702" 
d="M565 700h67v-700h-57l-385 510q-19 26 -36 48.5l-17 22.5v0v-27.5v-61.5v-492h-67v700h57l385 -510q20 -26 36.5 -48.5l16.5 -22.5v0v27.5v61.5v492zM412 789q-25 0 -42.5 9.5t-29.5 22.5t-22.5 22.5t-22.5 9.5t-21.5 -11.5t-9.5 -46.5h-58q0 46 13.5 70.5t34.5 34.5
t41 10q26 0 43 -9.5t29 -22.5t22.5 -22.5t22.5 -9.5t21.5 11.5t9.5 46.5h58q0 -45 -13.5 -70t-34 -35t-41.5 -10z" />
    <glyph glyph-name="Ograve" unicode="&#xd2;" horiz-adv-x="767" 
d="M384 -9q-102 0 -181 45.5t-123.5 126.5t-44.5 187q0 80 25.5 146t72 113.5t110.5 73.5t141 26q103 0 181 -45.5t122.5 -126t44.5 -187.5q0 -80 -25.5 -146t-72 -113.5t-110 -73.5t-140.5 -26zM384 56q60 0 110.5 20t88.5 58.5t58.5 93t20.5 122.5q0 91 -36 157t-99 101.5
t-143 35.5q-60 0 -111 -20t-88.5 -58.5t-58.5 -93t-21 -122.5q0 -91 36.5 -157t99.5 -101.5t143 -35.5zM366 784l-95 134h74l86 -134h-65z" />
    <glyph glyph-name="Oacute" unicode="&#xd3;" horiz-adv-x="767" 
d="M384 -9q-102 0 -181 45.5t-123.5 126.5t-44.5 187q0 80 25.5 146t72 113.5t110.5 73.5t141 26q103 0 181 -45.5t122.5 -126t44.5 -187.5q0 -80 -25.5 -146t-72 -113.5t-110 -73.5t-140.5 -26zM384 56q60 0 110.5 20t88.5 58.5t58.5 93t20.5 122.5q0 91 -36 157t-99 101.5
t-143 35.5q-60 0 -111 -20t-88.5 -58.5t-58.5 -93t-21 -122.5q0 -91 36.5 -157t99.5 -101.5t143 -35.5zM337 784l86 134h74l-95 -134h-65z" />
    <glyph glyph-name="Ocircumflex" unicode="&#xd4;" horiz-adv-x="767" 
d="M384 -9q-102 0 -181 45.5t-123.5 126.5t-44.5 187q0 80 25.5 146t72 113.5t110.5 73.5t141 26q103 0 181 -45.5t122.5 -126t44.5 -187.5q0 -80 -25.5 -146t-72 -113.5t-110 -73.5t-140.5 -26zM384 56q60 0 110.5 20t88.5 58.5t58.5 93t20.5 122.5q0 91 -36 157t-99 101.5
t-143 35.5q-60 0 -111 -20t-88.5 -58.5t-58.5 -93t-21 -122.5q0 -91 36.5 -157t99.5 -101.5t143 -35.5zM225 784l131 134h57l131 -134h-81q-13 14 -31.5 34t-33 35l-14.5 15v0l-14 -15t-32.5 -35t-31.5 -34h-81z" />
    <glyph glyph-name="Otilde" unicode="&#xd5;" horiz-adv-x="767" 
d="M384 -9q-102 0 -181 45.5t-123.5 126.5t-44.5 187q0 80 25.5 146t72 113.5t110.5 73.5t141 26q103 0 181 -45.5t122.5 -126t44.5 -187.5q0 -80 -25.5 -146t-72 -113.5t-110 -73.5t-140.5 -26zM384 56q60 0 110.5 20t88.5 58.5t58.5 93t20.5 122.5q0 91 -36 157t-99 101.5
t-143 35.5q-60 0 -111 -20t-88.5 -58.5t-58.5 -93t-21 -122.5q0 -91 36.5 -157t99.5 -101.5t143 -35.5zM445 789q-25 0 -42.5 9.5t-29.5 22.5t-22.5 22.5t-22.5 9.5t-21.5 -11.5t-9.5 -46.5h-58q0 46 13.5 70.5t34.5 34.5t41 10q26 0 43 -9.5t29 -22.5t22.5 -22.5t22.5 -9.5
t21.5 11.5t9.5 46.5h58q0 -45 -13.5 -70t-34 -35t-41.5 -10z" />
    <glyph glyph-name="Odieresis" unicode="&#xd6;" horiz-adv-x="767" 
d="M384 -9q-102 0 -181 45.5t-123.5 126.5t-44.5 187q0 80 25.5 146t72 113.5t110.5 73.5t141 26q103 0 181 -45.5t122.5 -126t44.5 -187.5q0 -80 -25.5 -146t-72 -113.5t-110 -73.5t-140.5 -26zM384 56q60 0 110.5 20t88.5 58.5t58.5 93t20.5 122.5q0 91 -36 157t-99 101.5
t-143 35.5q-60 0 -111 -20t-88.5 -58.5t-58.5 -93t-21 -122.5q0 -91 36.5 -157t99.5 -101.5t143 -35.5zM274 796q-19 0 -32 12.5t-13 32.5t13 32.5t32 12.5q20 0 32.5 -12.5t12.5 -32.5t-12.5 -32.5t-32.5 -12.5zM494 796q-19 0 -32 12.5t-13 32.5t13 32.5t32 12.5
q20 0 32.5 -12.5t12.5 -32.5t-12.5 -32.5t-32.5 -12.5z" />
    <glyph glyph-name="multiply" unicode="&#xd7;" horiz-adv-x="600" 
d="M477 134l-39 -40l-159 163l-157 162l40 41zM161 95l-38 39l316 327l38 -39z" />
    <glyph glyph-name="Oslash" unicode="&#xd8;" horiz-adv-x="767" 
d="M79 -19l-44 40l654 699l43 -41zM384 -9q-102 0 -181 45.5t-123.5 126.5t-44.5 187q0 80 25.5 146t72 113.5t110.5 73.5t141 26q103 0 181 -45.5t122.5 -126t44.5 -187.5q0 -80 -25.5 -146t-72 -113.5t-110 -73.5t-140.5 -26zM384 56q60 0 110.5 20t88.5 58.5t58.5 93
t20.5 122.5q0 91 -36 157t-99 101.5t-143 35.5q-60 0 -111 -20t-88.5 -58.5t-58.5 -93t-21 -122.5q0 -91 36.5 -157t99.5 -101.5t143 -35.5z" />
    <glyph glyph-name="Ugrave" unicode="&#xd9;" horiz-adv-x="679" 
d="M616 281q0 -96 -37 -160.5t-99.5 -96.5t-139.5 -32q-58 0 -108 18t-88 54t-59.5 90.5t-21.5 126.5v419h68v-414q0 -78 27 -129t74.5 -76t107.5 -25t107 25t74.5 76t27.5 129v414h67v-419zM322 784l-95 134h74l86 -134h-65z" />
    <glyph glyph-name="Uacute" unicode="&#xda;" horiz-adv-x="679" 
d="M616 281q0 -96 -37 -160.5t-99.5 -96.5t-139.5 -32q-58 0 -108 18t-88 54t-59.5 90.5t-21.5 126.5v419h68v-414q0 -78 27 -129t74.5 -76t107.5 -25t107 25t74.5 76t27.5 129v414h67v-419zM293 784l86 134h74l-95 -134h-65z" />
    <glyph glyph-name="Ucircumflex" unicode="&#xdb;" horiz-adv-x="679" 
d="M616 281q0 -96 -37 -160.5t-99.5 -96.5t-139.5 -32q-58 0 -108 18t-88 54t-59.5 90.5t-21.5 126.5v419h68v-414q0 -78 27 -129t74.5 -76t107.5 -25t107 25t74.5 76t27.5 129v414h67v-419zM181 784l131 134h57l131 -134h-81q-13 14 -31.5 34t-33 35l-14.5 15v0l-14 -15
t-32.5 -35t-31.5 -34h-81z" />
    <glyph glyph-name="Udieresis" unicode="&#xdc;" horiz-adv-x="679" 
d="M616 281q0 -96 -37 -160.5t-99.5 -96.5t-139.5 -32q-58 0 -108 18t-88 54t-59.5 90.5t-21.5 126.5v419h68v-414q0 -78 27 -129t74.5 -76t107.5 -25t107 25t74.5 76t27.5 129v414h67v-419zM230 796q-19 0 -32 12.5t-13 32.5t13 32.5t32 12.5q20 0 32.5 -12.5t12.5 -32.5
t-12.5 -32.5t-32.5 -12.5zM450 796q-19 0 -32 12.5t-13 32.5t13 32.5t32 12.5q20 0 32.5 -12.5t12.5 -32.5t-12.5 -32.5t-32.5 -12.5z" />
    <glyph glyph-name="Yacute" unicode="&#xdd;" horiz-adv-x="651" 
d="M326 300l-314 400h80l240 -297h-12l240 297h78zM292 0v392h67v-392h-67zM279 784l86 134h74l-95 -134h-65z" />
    <glyph glyph-name="Thorn" unicode="&#xde;" horiz-adv-x="588" 
d="M110 128v63h187q91 0 141 40.5t50 119.5q0 80 -50 119.5t-141 39.5h-187v63h189q122 0 190.5 -58t68.5 -164q0 -70 -31 -120t-89 -76.5t-139 -26.5h-189zM70 0v700h67v-700h-67z" />
    <glyph glyph-name="germandbls" unicode="&#xdf;" horiz-adv-x="559" 
d="M58 504q0 44 14 81.5t41 65t67.5 43t93.5 15.5q61 0 109.5 -23.5t77.5 -65t29 -97.5q0 -43 -16.5 -76.5t-45 -54t-64.5 -25.5l-1 4q46 -3 83 -27t59.5 -61.5t22.5 -83.5q0 -62 -30.5 -107t-81 -68.5t-112.5 -23.5h-79v59h69q49 0 86.5 16.5t59 47.5t21.5 76
q0 68 -46.5 103.5t-120.5 35.5h-22v58h1q40 0 74.5 12.5t55.5 40.5t21 73q0 62 -44 94.5t-107 32.5q-68 0 -109 -39.5t-41 -108.5v-501h-65v504z" />
    <glyph glyph-name="agrave" unicode="&#xe0;" horiz-adv-x="508" 
d="M390 0v97l3 14v80l-3 6v108q0 54 -21.5 85.5t-55 45t-70.5 13.5q-55 0 -94 -28.5t-51 -76.5l-56 18q16 69 71.5 107.5t129.5 38.5q40 0 77.5 -11t68 -34t48.5 -60.5t18 -90.5v-312h-65zM229 -9q-52 0 -98.5 17t-75.5 51.5t-29 84.5q0 51 29 85t75.5 51t97.5 17
q94 0 143 -41t49 -112v0q0 -71 -48.5 -112t-142.5 -41zM244 46q62 0 105 25t43 73t-43 73t-105 25t-106.5 -24t-44.5 -74q0 -49 44.5 -73.5t106.5 -24.5zM233 584l-95 134h74l86 -134h-65z" />
    <glyph glyph-name="aacute" unicode="&#xe1;" horiz-adv-x="508" 
d="M390 0v97l3 14v80l-3 6v108q0 54 -21.5 85.5t-55 45t-70.5 13.5q-55 0 -94 -28.5t-51 -76.5l-56 18q16 69 71.5 107.5t129.5 38.5q40 0 77.5 -11t68 -34t48.5 -60.5t18 -90.5v-312h-65zM229 -9q-52 0 -98.5 17t-75.5 51.5t-29 84.5q0 51 29 85t75.5 51t97.5 17
q94 0 143 -41t49 -112v0q0 -71 -48.5 -112t-142.5 -41zM244 46q62 0 105 25t43 73t-43 73t-105 25t-106.5 -24t-44.5 -74q0 -49 44.5 -73.5t106.5 -24.5zM204 584l86 134h74l-95 -134h-65z" />
    <glyph glyph-name="acircumflex" unicode="&#xe2;" horiz-adv-x="508" 
d="M390 0v97l3 14v80l-3 6v108q0 54 -21.5 85.5t-55 45t-70.5 13.5q-55 0 -94 -28.5t-51 -76.5l-56 18q16 69 71.5 107.5t129.5 38.5q40 0 77.5 -11t68 -34t48.5 -60.5t18 -90.5v-312h-65zM229 -9q-52 0 -98.5 17t-75.5 51.5t-29 84.5q0 51 29 85t75.5 51t97.5 17
q94 0 143 -41t49 -112v0q0 -71 -48.5 -112t-142.5 -41zM244 46q62 0 105 25t43 73t-43 73t-105 25t-106.5 -24t-44.5 -74q0 -49 44.5 -73.5t106.5 -24.5zM92 584l131 134h57l131 -134h-81q-13 14 -31.5 34t-33 35l-14.5 15v0l-14 -15t-32.5 -35t-31.5 -34h-81z" />
    <glyph glyph-name="atilde" unicode="&#xe3;" horiz-adv-x="508" 
d="M390 0v97l3 14v80l-3 6v108q0 54 -21.5 85.5t-55 45t-70.5 13.5q-55 0 -94 -28.5t-51 -76.5l-56 18q16 69 71.5 107.5t129.5 38.5q40 0 77.5 -11t68 -34t48.5 -60.5t18 -90.5v-312h-65zM229 -9q-52 0 -98.5 17t-75.5 51.5t-29 84.5q0 51 29 85t75.5 51t97.5 17
q94 0 143 -41t49 -112v0q0 -71 -48.5 -112t-142.5 -41zM244 46q62 0 105 25t43 73t-43 73t-105 25t-106.5 -24t-44.5 -74q0 -49 44.5 -73.5t106.5 -24.5zM312 589q-25 0 -42.5 9.5t-29.5 22.5t-22.5 22.5t-22.5 9.5t-21.5 -11.5t-9.5 -46.5h-58q0 46 13.5 70.5t34.5 34.5
t41 10q26 0 43 -9.5t29 -22.5t22.5 -22.5t22.5 -9.5t21.5 11.5t9.5 46.5h58q0 -45 -13.5 -70t-34 -35t-41.5 -10z" />
    <glyph glyph-name="adieresis" unicode="&#xe4;" horiz-adv-x="508" 
d="M390 0v97l3 14v80l-3 6v108q0 54 -21.5 85.5t-55 45t-70.5 13.5q-55 0 -94 -28.5t-51 -76.5l-56 18q16 69 71.5 107.5t129.5 38.5q40 0 77.5 -11t68 -34t48.5 -60.5t18 -90.5v-312h-65zM229 -9q-52 0 -98.5 17t-75.5 51.5t-29 84.5q0 51 29 85t75.5 51t97.5 17
q94 0 143 -41t49 -112v0q0 -71 -48.5 -112t-142.5 -41zM244 46q62 0 105 25t43 73t-43 73t-105 25t-106.5 -24t-44.5 -74q0 -49 44.5 -73.5t106.5 -24.5zM141 596q-19 0 -32 12.5t-13 32.5t13 32.5t32 12.5q20 0 32.5 -12.5t12.5 -32.5t-12.5 -32.5t-32.5 -12.5zM361 596
q-19 0 -32 12.5t-13 32.5t13 32.5t32 12.5q20 0 32.5 -12.5t12.5 -32.5t-12.5 -32.5t-32.5 -12.5z" />
    <glyph glyph-name="aring" unicode="&#xe5;" horiz-adv-x="508" 
d="M390 0v97l3 14v80l-3 6v108q0 54 -21.5 85.5t-55 45t-70.5 13.5q-55 0 -94 -28.5t-51 -76.5l-56 18q16 69 71.5 107.5t129.5 38.5q40 0 77.5 -11t68 -34t48.5 -60.5t18 -90.5v-312h-65zM229 -9q-52 0 -98.5 17t-75.5 51.5t-29 84.5q0 51 29 85t75.5 51t97.5 17
q94 0 143 -41t49 -112v0q0 -71 -48.5 -112t-142.5 -41zM244 46q62 0 105 25t43 73t-43 73t-105 25t-106.5 -24t-44.5 -74q0 -49 44.5 -73.5t106.5 -24.5zM252 555q-46 0 -79 27t-33 71t33 71.5t79 27.5q47 0 79 -27.5t32 -71.5t-32 -71t-79 -27zM252 605q25 0 40.5 13
t15.5 35t-15.5 35t-40.5 13t-40.5 -13t-15.5 -35t15.5 -35t40.5 -13z" />
    <glyph glyph-name="ae" unicode="&#xe6;" horiz-adv-x="884" 
d="M623 -9q-64 0 -115 32.5t-80.5 91t-29.5 135.5q0 60 17 107.5t47.5 81t72 51.5t90.5 18q65 0 116 -31t80.5 -87.5t29.5 -132.5v-11t-1 -10h-423v55h384l-28 -46v4v4q0 66 -21 109t-56.5 64.5t-81.5 21.5q-38 0 -69 -13.5t-53.5 -39.5t-34.5 -62.5t-12 -82.5
q0 -63 23 -107.5t61.5 -68t86.5 -23.5q36 0 67 11.5t56.5 37t42.5 68.5l56 -26q-24 -57 -60 -90t-78.5 -47t-86.5 -14zM238 -9q-58 0 -106 17t-77 51.5t-29 84.5q0 51 29 85t75.5 51t97.5 17q94 0 143 -41t49 -112h24q0 -46 -26.5 -80.5t-72.5 -53.5t-107 -19zM244 46
q62 0 105 25t43 73t-43 73t-105 25q-41 0 -75.5 -11t-55 -32.5t-20.5 -54.5q0 -49 44.5 -73.5t106.5 -24.5zM390 305q0 54 -21.5 85.5t-55 45t-70.5 13.5q-55 0 -94 -28.5t-51 -76.5l-56 18q16 69 71.5 107.5t129.5 38.5q52 0 98.5 -19.5t76 -62.5t29.5 -114l-57 -115v108z
" />
    <glyph glyph-name="ccedilla" unicode="&#xe7;" horiz-adv-x="518" 
d="M270 -8q-67 0 -120.5 33t-85 91.5t-31.5 133.5q0 57 18 104t50.5 81.5t75.5 53.5t93 19q48 0 91.5 -15.5t79.5 -52.5t58 -101l-58 -24q-25 73 -68.5 103t-102.5 30q-35 0 -66 -13t-54.5 -38.5t-37 -62.5t-13.5 -84q0 -63 23.5 -107.5t62.5 -67.5t85 -23q59 0 102.5 30
t68.5 103l58 -24q-22 -64 -58 -101t-79.5 -52.5t-91.5 -15.5zM206 -168v59h54q33 0 33 27q0 21 -22 43l-38 39l46 15l41 -38q20 -18 29 -37.5t9 -37.5q0 -29 -23.5 -49.5t-70.5 -20.5h-58z" />
    <glyph glyph-name="egrave" unicode="&#xe8;" horiz-adv-x="528" 
d="M267 -9q-67 0 -120 32.5t-83.5 91t-30.5 135.5q0 60 17.5 107.5t49.5 81t75 51.5t94 18q65 0 116 -31t80.5 -87.5t29.5 -132.5v-11t-1 -10h-423v55h384l-28 -45v4v3q0 98 -45.5 146.5t-113.5 48.5q-38 0 -69 -13.5t-53.5 -39.5t-34.5 -62.5t-12 -82.5q0 -63 23 -107.5
t61.5 -68t86.5 -23.5q36 0 67 11.5t56.5 37t42.5 68.5l56 -26q-24 -57 -60 -90t-78.5 -47t-86.5 -14zM251 584l-95 134h74l86 -134h-65z" />
    <glyph glyph-name="eacute" unicode="&#xe9;" horiz-adv-x="528" 
d="M267 -9q-67 0 -120 32.5t-83.5 91t-30.5 135.5q0 60 17.5 107.5t49.5 81t75 51.5t94 18q65 0 116 -31t80.5 -87.5t29.5 -132.5v-11t-1 -10h-423v55h384l-28 -45v4v3q0 98 -45.5 146.5t-113.5 48.5q-38 0 -69 -13.5t-53.5 -39.5t-34.5 -62.5t-12 -82.5q0 -63 23 -107.5
t61.5 -68t86.5 -23.5q36 0 67 11.5t56.5 37t42.5 68.5l56 -26q-24 -57 -60 -90t-78.5 -47t-86.5 -14zM222 584l86 134h74l-95 -134h-65z" />
    <glyph glyph-name="ecircumflex" unicode="&#xea;" horiz-adv-x="528" 
d="M267 -9q-67 0 -120 32.5t-83.5 91t-30.5 135.5q0 60 17.5 107.5t49.5 81t75 51.5t94 18q65 0 116 -31t80.5 -87.5t29.5 -132.5v-11t-1 -10h-423v55h384l-28 -45v4v3q0 98 -45.5 146.5t-113.5 48.5q-38 0 -69 -13.5t-53.5 -39.5t-34.5 -62.5t-12 -82.5q0 -63 23 -107.5
t61.5 -68t86.5 -23.5q36 0 67 11.5t56.5 37t42.5 68.5l56 -26q-24 -57 -60 -90t-78.5 -47t-86.5 -14zM110 584l131 134h57l131 -134h-81q-13 14 -31.5 34t-33 35l-14.5 15v0l-14 -15t-32.5 -35t-31.5 -34h-81z" />
    <glyph glyph-name="edieresis" unicode="&#xeb;" horiz-adv-x="528" 
d="M267 -9q-67 0 -120 32.5t-83.5 91t-30.5 135.5q0 60 17.5 107.5t49.5 81t75 51.5t94 18q65 0 116 -31t80.5 -87.5t29.5 -132.5v-11t-1 -10h-423v55h384l-28 -45v4v3q0 98 -45.5 146.5t-113.5 48.5q-38 0 -69 -13.5t-53.5 -39.5t-34.5 -62.5t-12 -82.5q0 -63 23 -107.5
t61.5 -68t86.5 -23.5q36 0 67 11.5t56.5 37t42.5 68.5l56 -26q-24 -57 -60 -90t-78.5 -47t-86.5 -14zM159 596q-19 0 -32 12.5t-13 32.5t13 32.5t32 12.5q20 0 32.5 -12.5t12.5 -32.5t-12.5 -32.5t-32.5 -12.5zM379 596q-19 0 -32 12.5t-13 32.5t13 32.5t32 12.5
q20 0 32.5 -12.5t12.5 -32.5t-12.5 -32.5t-32.5 -12.5z" />
    <glyph glyph-name="igrave" unicode="&#xec;" horiz-adv-x="181" 
d="M123 500v-500h-65v500h65zM72 584l-95 134h74l86 -134h-65z" />
    <glyph glyph-name="iacute" unicode="&#xed;" horiz-adv-x="181" 
d="M123 500v-500h-65v500h65zM43 584l86 134h74l-95 -134h-65z" />
    <glyph glyph-name="icircumflex" unicode="&#xee;" horiz-adv-x="181" 
d="M123 500v-500h-65v500h65zM-69 584l131 134h57l131 -134h-81q-13 14 -31.5 34t-33 35l-14.5 15v0l-14 -15t-32.5 -35t-31.5 -34h-81z" />
    <glyph glyph-name="idieresis" unicode="&#xef;" horiz-adv-x="181" 
d="M5 616q-19 0 -32 12.5t-13 32.5t13 32.5t32 12.5q20 0 32.5 -12.5t12.5 -32.5t-12.5 -32.5t-32.5 -12.5zM175 616q-19 0 -32 12.5t-13 32.5t13 32.5t32 12.5q20 0 32.5 -12.5t12.5 -32.5t-12.5 -32.5t-32.5 -12.5zM123 500v-500h-65v500h65z" />
    <glyph glyph-name="eth" unicode="&#xf0;" horiz-adv-x="552" 
d="M277 -8q-70 0 -125.5 32.5t-87 88.5t-31.5 126q0 54 18 100t49.5 79.5t74 52.5t91.5 19q43 0 74.5 -14t50.5 -37l1 -22l-186 283h79l189 -303q23 -37 34.5 -76t11.5 -82q0 -53 -18 -98t-50.5 -78.5t-77 -52t-97.5 -18.5zM277 52q51 0 91.5 24.5t63.5 67.5t23 97
q0 55 -23 97.5t-63.5 67t-91.5 24.5t-91.5 -24.5t-64 -67t-23.5 -97.5q0 -54 23.5 -97t64 -67.5t91.5 -24.5zM164 559v57h291v-57h-291z" />
    <glyph glyph-name="ntilde" unicode="&#xf1;" horiz-adv-x="528" 
d="M283 508q56 0 99.5 -24.5t68 -69.5t24.5 -106v-308h-65v299q0 68 -37.5 108.5t-98.5 40.5q-67 0 -109 -40.5t-42 -108.5v-299h-65v500h65v-111l-10 9q24 58 71.5 84t98.5 26zM332 589q-25 0 -42.5 9.5t-29.5 22.5t-22.5 22.5t-22.5 9.5t-21.5 -11.5t-9.5 -46.5h-58
q0 46 13.5 70.5t34.5 34.5t41 10q26 0 43 -9.5t29 -22.5t22.5 -22.5t22.5 -9.5t21.5 11.5t9.5 46.5h58q0 -45 -13.5 -70t-34 -35t-41.5 -10z" />
    <glyph glyph-name="ograve" unicode="&#xf2;" horiz-adv-x="562" 
d="M281 -9q-71 0 -127 32.5t-88.5 91t-32.5 135.5q0 57 18.5 104.5t52 82t79 53t98.5 18.5q71 0 127 -32.5t88.5 -90.5t32.5 -135q0 -58 -18.5 -105.5t-52 -82t-79 -53t-98.5 -18.5zM281 51q39 0 72.5 13.5t58 39.5t38 63t13.5 83q0 61 -23.5 105.5t-64.5 68.5t-94 24
q-39 0 -72.5 -13.5t-58 -39.5t-38 -62.5t-13.5 -82.5q0 -61 23.5 -106t65 -69t93.5 -24zM263 584l-95 134h74l86 -134h-65z" />
    <glyph glyph-name="oacute" unicode="&#xf3;" horiz-adv-x="562" 
d="M281 -9q-71 0 -127 32.5t-88.5 91t-32.5 135.5q0 57 18.5 104.5t52 82t79 53t98.5 18.5q71 0 127 -32.5t88.5 -90.5t32.5 -135q0 -58 -18.5 -105.5t-52 -82t-79 -53t-98.5 -18.5zM281 51q39 0 72.5 13.5t58 39.5t38 63t13.5 83q0 61 -23.5 105.5t-64.5 68.5t-94 24
q-39 0 -72.5 -13.5t-58 -39.5t-38 -62.5t-13.5 -82.5q0 -61 23.5 -106t65 -69t93.5 -24zM234 584l86 134h74l-95 -134h-65z" />
    <glyph glyph-name="ocircumflex" unicode="&#xf4;" horiz-adv-x="562" 
d="M281 -9q-71 0 -127 32.5t-88.5 91t-32.5 135.5q0 57 18.5 104.5t52 82t79 53t98.5 18.5q71 0 127 -32.5t88.5 -90.5t32.5 -135q0 -58 -18.5 -105.5t-52 -82t-79 -53t-98.5 -18.5zM281 51q39 0 72.5 13.5t58 39.5t38 63t13.5 83q0 61 -23.5 105.5t-64.5 68.5t-94 24
q-39 0 -72.5 -13.5t-58 -39.5t-38 -62.5t-13.5 -82.5q0 -61 23.5 -106t65 -69t93.5 -24zM122 584l131 134h57l131 -134h-81q-13 14 -31.5 34t-33 35l-14.5 15v0l-14 -15t-32.5 -35t-31.5 -34h-81z" />
    <glyph glyph-name="otilde" unicode="&#xf5;" horiz-adv-x="562" 
d="M281 -9q-71 0 -127 32.5t-88.5 91t-32.5 135.5q0 57 18.5 104.5t52 82t79 53t98.5 18.5q71 0 127 -32.5t88.5 -90.5t32.5 -135q0 -58 -18.5 -105.5t-52 -82t-79 -53t-98.5 -18.5zM281 51q39 0 72.5 13.5t58 39.5t38 63t13.5 83q0 61 -23.5 105.5t-64.5 68.5t-94 24
q-39 0 -72.5 -13.5t-58 -39.5t-38 -62.5t-13.5 -82.5q0 -61 23.5 -106t65 -69t93.5 -24zM342 589q-25 0 -42.5 9.5t-29.5 22.5t-22.5 22.5t-22.5 9.5t-21.5 -11.5t-9.5 -46.5h-58q0 46 13.5 70.5t34.5 34.5t41 10q26 0 43 -9.5t29 -22.5t22.5 -22.5t22.5 -9.5t21.5 11.5
t9.5 46.5h58q0 -45 -13.5 -70t-34 -35t-41.5 -10z" />
    <glyph glyph-name="odieresis" unicode="&#xf6;" horiz-adv-x="562" 
d="M281 -9q-71 0 -127 32.5t-88.5 91t-32.5 135.5q0 57 18.5 104.5t52 82t79 53t98.5 18.5q71 0 127 -32.5t88.5 -90.5t32.5 -135q0 -58 -18.5 -105.5t-52 -82t-79 -53t-98.5 -18.5zM281 51q39 0 72.5 13.5t58 39.5t38 63t13.5 83q0 61 -23.5 105.5t-64.5 68.5t-94 24
q-39 0 -72.5 -13.5t-58 -39.5t-38 -62.5t-13.5 -82.5q0 -61 23.5 -106t65 -69t93.5 -24zM171 596q-19 0 -32 12.5t-13 32.5t13 32.5t32 12.5q20 0 32.5 -12.5t12.5 -32.5t-12.5 -32.5t-32.5 -12.5zM391 596q-19 0 -32 12.5t-13 32.5t13 32.5t32 12.5q20 0 32.5 -12.5
t12.5 -32.5t-12.5 -32.5t-32.5 -12.5z" />
    <glyph glyph-name="divide" unicode="&#xf7;" horiz-adv-x="600" 
d="M115 248v57h370v-57h-370zM299 81q-19 0 -31.5 13.5t-12.5 32.5q0 20 12.5 33t31.5 13q20 0 33 -13t13 -33q0 -19 -13 -32.5t-33 -13.5zM299 380q-19 0 -31.5 13.5t-12.5 32.5q0 20 12.5 33t31.5 13q20 0 33 -13t13 -33q0 -19 -13 -32.5t-33 -13.5z" />
    <glyph glyph-name="oslash" unicode="&#xf8;" horiz-adv-x="562" 
d="M281 -9q-71 0 -127 32.5t-88.5 91t-32.5 135.5q0 57 18.5 104.5t52 82t79 53t98.5 18.5q71 0 127 -32.5t88.5 -90.5t32.5 -135q0 -58 -18.5 -105.5t-52 -82t-79 -53t-98.5 -18.5zM72 -11l-39 39l75 78l38 -40zM146 66l-38 40l305 323l37 -41zM281 51q39 0 72.5 13.5
t58 39.5t38 63t13.5 83q0 61 -23.5 105.5t-64.5 68.5t-94 24q-39 0 -72.5 -13.5t-58 -39.5t-38 -62.5t-13.5 -82.5q0 -61 23.5 -106t65 -69t93.5 -24zM450 388l-37 41l78 81l38 -39z" />
    <glyph glyph-name="ugrave" unicode="&#xf9;" horiz-adv-x="523" 
d="M262 -8q-60 0 -107.5 24t-74.5 71.5t-27 115.5v297h65v-291q0 -77 40.5 -116.5t103.5 -39.5q64 0 103.5 39.5t39.5 116.5v291h65v-297q0 -68 -27 -115.5t-73.5 -71.5t-107.5 -24zM244 584l-95 134h74l86 -134h-65z" />
    <glyph glyph-name="uacute" unicode="&#xfa;" horiz-adv-x="523" 
d="M262 -8q-60 0 -107.5 24t-74.5 71.5t-27 115.5v297h65v-291q0 -77 40.5 -116.5t103.5 -39.5q64 0 103.5 39.5t39.5 116.5v291h65v-297q0 -68 -27 -115.5t-73.5 -71.5t-107.5 -24zM215 584l86 134h74l-95 -134h-65z" />
    <glyph glyph-name="ucircumflex" unicode="&#xfb;" horiz-adv-x="523" 
d="M262 -8q-60 0 -107.5 24t-74.5 71.5t-27 115.5v297h65v-291q0 -77 40.5 -116.5t103.5 -39.5q64 0 103.5 39.5t39.5 116.5v291h65v-297q0 -68 -27 -115.5t-73.5 -71.5t-107.5 -24zM103 584l131 134h57l131 -134h-81q-13 14 -31.5 34t-33 35l-14.5 15v0l-14 -15t-32.5 -35
t-31.5 -34h-81z" />
    <glyph glyph-name="udieresis" unicode="&#xfc;" horiz-adv-x="523" 
d="M262 -8q-60 0 -107.5 24t-74.5 71.5t-27 115.5v297h65v-291q0 -77 40.5 -116.5t103.5 -39.5q64 0 103.5 39.5t39.5 116.5v291h65v-297q0 -68 -27 -115.5t-73.5 -71.5t-107.5 -24zM152 596q-19 0 -32 12.5t-13 32.5t13 32.5t32 12.5q20 0 32.5 -12.5t12.5 -32.5
t-12.5 -32.5t-32.5 -12.5zM372 596q-19 0 -32 12.5t-13 32.5t13 32.5t32 12.5q20 0 32.5 -12.5t12.5 -32.5t-12.5 -32.5t-32.5 -12.5z" />
    <glyph glyph-name="yacute" unicode="&#xfd;" horiz-adv-x="495" 
d="M229 230q11 -22 20.5 -40.5l9.5 -18.5v0l9 18.5t20 40.5l136 270h72l-332 -663h-72l132 265l-208 398h74zM210 584l86 134h74l-95 -134h-65z" />
    <glyph glyph-name="thorn" unicode="&#xfe;" horiz-adv-x="575" 
d="M307 -8q-53 0 -93.5 21t-68 57t-41.5 82.5t-14 97.5v0q0 51 14 97.5t41.5 82.5t68 57t93.5 21q66 0 119.5 -32t84.5 -90t31 -136q0 -58 -18 -105.5t-50 -81.5t-74.5 -52.5t-92.5 -18.5zM58 -163v863h65v-375l-15 -75l15 -66v-347h-65zM299 52q39 0 71.5 13.5t56.5 39.5
t37 62.5t13 82.5q0 92 -50 145t-128 53q-39 0 -71.5 -13.5t-56.5 -39.5t-37 -62.5t-13 -82.5q0 -92 50 -145t128 -53z" />
    <glyph glyph-name="ydieresis" unicode="&#xff;" horiz-adv-x="495" 
d="M229 230q11 -22 20.5 -40.5l9.5 -18.5v0l9 18.5t20 40.5l136 270h72l-332 -663h-72l132 265l-208 398h74zM147 596q-19 0 -32 12.5t-13 32.5t13 32.5t32 12.5q20 0 32.5 -12.5t12.5 -32.5t-12.5 -32.5t-32.5 -12.5zM367 596q-19 0 -32 12.5t-13 32.5t13 32.5t32 12.5
q20 0 32.5 -12.5t12.5 -32.5t-12.5 -32.5t-32.5 -12.5z" />
    <glyph glyph-name="Amacron" unicode="&#x100;" horiz-adv-x="637" 
d="M5 0l282 700h63l283 -700h-72l-214 542q-11 28 -20 50.5l-9 22.5v0l-9 -22.5t-20 -50.5l-214 -542h-70zM146 221l25 63h294l25 -63h-344zM172 812v59h295v-59h-295z" />
    <glyph glyph-name="amacron" unicode="&#x101;" horiz-adv-x="508" 
d="M390 0v97l3 14v80l-3 6v108q0 54 -21.5 85.5t-55 45t-70.5 13.5q-55 0 -94 -28.5t-51 -76.5l-56 18q16 69 71.5 107.5t129.5 38.5q40 0 77.5 -11t68 -34t48.5 -60.5t18 -90.5v-312h-65zM229 -9q-52 0 -98.5 17t-75.5 51.5t-29 84.5q0 51 29 85t75.5 51t97.5 17
q94 0 143 -41t49 -112v0q0 -71 -48.5 -112t-142.5 -41zM244 46q62 0 105 25t43 73t-43 73t-105 25t-106.5 -24t-44.5 -74q0 -49 44.5 -73.5t106.5 -24.5zM104 612v59h295v-59h-295z" />
    <glyph glyph-name="Abreve" unicode="&#x102;" horiz-adv-x="637" 
d="M5 0l282 700h63l283 -700h-72l-214 542q-11 28 -20 50.5l-9 22.5v0l-9 -22.5t-20 -50.5l-214 -542h-70zM146 221l25 63h294l25 -63h-344zM319 780q-40 0 -73 16.5t-52.5 47.5t-19.5 74h61q0 -40 23.5 -61.5t60.5 -21.5t60.5 21.5t23.5 61.5h61q0 -64 -42.5 -101
t-102.5 -37z" />
    <glyph glyph-name="abreve" unicode="&#x103;" horiz-adv-x="508" 
d="M390 0v97l3 14v80l-3 6v108q0 54 -21.5 85.5t-55 45t-70.5 13.5q-55 0 -94 -28.5t-51 -76.5l-56 18q16 69 71.5 107.5t129.5 38.5q40 0 77.5 -11t68 -34t48.5 -60.5t18 -90.5v-312h-65zM229 -9q-52 0 -98.5 17t-75.5 51.5t-29 84.5q0 51 29 85t75.5 51t97.5 17
q94 0 143 -41t49 -112v0q0 -71 -48.5 -112t-142.5 -41zM244 46q62 0 105 25t43 73t-43 73t-105 25t-106.5 -24t-44.5 -74q0 -49 44.5 -73.5t106.5 -24.5zM251 580q-40 0 -73 16.5t-52.5 47.5t-19.5 74h61q0 -40 23.5 -61.5t60.5 -21.5t60.5 21.5t23.5 61.5h61
q0 -64 -42.5 -101t-102.5 -37z" />
    <glyph glyph-name="Aogonek" unicode="&#x104;" horiz-adv-x="637" 
d="M5 0l282 700h63l283 -700h-72l-214 542q-11 28 -20 50.5l-9 22.5v0l-9 -22.5t-20 -50.5l-214 -542h-70zM146 221l25 63h294l25 -63h-344zM602 -168q-47 0 -70.5 20.5t-23.5 49.5q0 18 9.5 37.5t28.5 37.5l41 38l46 -15l-38 -39q-22 -22 -22 -43q0 -27 33 -27h39v-59h-43z
" />
    <glyph glyph-name="aogonek" unicode="&#x105;" horiz-adv-x="508" 
d="M390 0v97l3 14v80l-3 6v108q0 54 -21.5 85.5t-55 45t-70.5 13.5q-55 0 -94 -28.5t-51 -76.5l-56 18q16 69 71.5 107.5t129.5 38.5q40 0 77.5 -11t68 -34t48.5 -60.5t18 -90.5v-312h-65zM229 -9q-52 0 -98.5 17t-75.5 51.5t-29 84.5q0 51 29 85t75.5 51t97.5 17
q94 0 143 -41t49 -112v0q0 -71 -48.5 -112t-142.5 -41zM244 46q62 0 105 25t43 73t-43 73t-105 25t-106.5 -24t-44.5 -74q0 -49 44.5 -73.5t106.5 -24.5zM424 -168q-47 0 -70.5 20.5t-23.5 49.5q0 18 9.5 37.5t28.5 37.5l41 38l46 -15l-38 -39q-22 -22 -22 -43q0 -27 33 -27
h39v-59h-43z" />
    <glyph glyph-name="Cacute" unicode="&#x106;" horiz-adv-x="700" 
d="M378 -9q-99 0 -176.5 45.5t-121.5 126.5t-44 187q0 80 25 146t71 113.5t108.5 73.5t137.5 26q72 0 132 -25t104 -71t69 -110l-63 -29q-19 54 -54.5 92t-83 58t-104.5 20q-58 0 -107.5 -20t-86.5 -58.5t-57.5 -93t-20.5 -122.5q0 -91 35.5 -157t97.5 -101.5t139 -35.5
q85 0 149 45t93 125l63 -29q-37 -95 -117 -150.5t-188 -55.5zM331 784l86 134h74l-95 -134h-65z" />
    <glyph glyph-name="cacute" unicode="&#x107;" horiz-adv-x="518" 
d="M270 -8q-67 0 -120.5 33t-85 91.5t-31.5 133.5q0 57 18 104t50.5 81.5t75.5 53.5t93 19q48 0 91.5 -15.5t79.5 -52.5t58 -101l-58 -24q-25 73 -68.5 103t-102.5 30q-35 0 -66 -13t-54.5 -38.5t-37 -62.5t-13.5 -84q0 -63 23.5 -107.5t62.5 -67.5t85 -23q59 0 102.5 30
t68.5 103l58 -24q-22 -64 -58 -101t-79.5 -52.5t-91.5 -15.5zM227 584l86 134h74l-95 -134h-65z" />
    <glyph glyph-name="Ccircumflex" unicode="&#x108;" horiz-adv-x="700" 
d="M378 -9q-99 0 -176.5 45.5t-121.5 126.5t-44 187q0 80 25 146t71 113.5t108.5 73.5t137.5 26q72 0 132 -25t104 -71t69 -110l-63 -29q-19 54 -54.5 92t-83 58t-104.5 20q-58 0 -107.5 -20t-86.5 -58.5t-57.5 -93t-20.5 -122.5q0 -91 35.5 -157t97.5 -101.5t139 -35.5
q85 0 149 45t93 125l63 -29q-37 -95 -117 -150.5t-188 -55.5zM219 784l131 134h57l131 -134h-81q-13 14 -31.5 34t-33 35l-14.5 15v0l-14 -15t-32.5 -35t-31.5 -34h-81z" />
    <glyph glyph-name="ccircumflex" unicode="&#x109;" horiz-adv-x="518" 
d="M270 -8q-67 0 -120.5 33t-85 91.5t-31.5 133.5q0 57 18 104t50.5 81.5t75.5 53.5t93 19q48 0 91.5 -15.5t79.5 -52.5t58 -101l-58 -24q-25 73 -68.5 103t-102.5 30q-35 0 -66 -13t-54.5 -38.5t-37 -62.5t-13.5 -84q0 -63 23.5 -107.5t62.5 -67.5t85 -23q59 0 102.5 30
t68.5 103l58 -24q-22 -64 -58 -101t-79.5 -52.5t-91.5 -15.5zM115 584l131 134h57l131 -134h-81q-13 14 -31.5 34t-33 35l-14.5 15v0l-14 -15t-32.5 -35t-31.5 -34h-81z" />
    <glyph glyph-name="Cdotaccent" unicode="&#x10a;" horiz-adv-x="700" 
d="M378 -9q-99 0 -176.5 45.5t-121.5 126.5t-44 187q0 80 25 146t71 113.5t108.5 73.5t137.5 26q72 0 132 -25t104 -71t69 -110l-63 -29q-19 54 -54.5 92t-83 58t-104.5 20q-58 0 -107.5 -20t-86.5 -58.5t-57.5 -93t-20.5 -122.5q0 -91 35.5 -157t97.5 -101.5t139 -35.5
q85 0 149 45t93 125l63 -29q-37 -95 -117 -150.5t-188 -55.5zM377 796q-21 0 -35 14.5t-14 36.5q0 21 14 35.5t35 14.5q22 0 36.5 -14.5t14.5 -35.5q0 -22 -14.5 -36.5t-36.5 -14.5z" />
    <glyph glyph-name="cdotaccent" unicode="&#x10b;" horiz-adv-x="518" 
d="M270 -8q-67 0 -120.5 33t-85 91.5t-31.5 133.5q0 57 18 104t50.5 81.5t75.5 53.5t93 19q48 0 91.5 -15.5t79.5 -52.5t58 -101l-58 -24q-25 73 -68.5 103t-102.5 30q-35 0 -66 -13t-54.5 -38.5t-37 -62.5t-13.5 -84q0 -63 23.5 -107.5t62.5 -67.5t85 -23q59 0 102.5 30
t68.5 103l58 -24q-22 -64 -58 -101t-79.5 -52.5t-91.5 -15.5zM274 596q-21 0 -35 14.5t-14 36.5q0 21 14 35.5t35 14.5q22 0 36.5 -14.5t14.5 -35.5q0 -22 -14.5 -36.5t-36.5 -14.5z" />
    <glyph glyph-name="Ccaron" unicode="&#x10c;" horiz-adv-x="700" 
d="M378 -9q-99 0 -176.5 45.5t-121.5 126.5t-44 187q0 80 25 146t71 113.5t108.5 73.5t137.5 26q72 0 132 -25t104 -71t69 -110l-63 -29q-19 54 -54.5 92t-83 58t-104.5 20q-58 0 -107.5 -20t-86.5 -58.5t-57.5 -93t-20.5 -122.5q0 -91 35.5 -157t97.5 -101.5t139 -35.5
q85 0 149 45t93 125l63 -29q-37 -95 -117 -150.5t-188 -55.5zM350 784l-131 134h81q13 -14 31.5 -34t33 -35l14.5 -15v0l14 15t32.5 35t31.5 34h81l-131 -134h-57z" />
    <glyph glyph-name="ccaron" unicode="&#x10d;" horiz-adv-x="518" 
d="M270 -8q-67 0 -120.5 33t-85 91.5t-31.5 133.5q0 57 18 104t50.5 81.5t75.5 53.5t93 19q48 0 91.5 -15.5t79.5 -52.5t58 -101l-58 -24q-25 73 -68.5 103t-102.5 30q-35 0 -66 -13t-54.5 -38.5t-37 -62.5t-13.5 -84q0 -63 23.5 -107.5t62.5 -67.5t85 -23q59 0 102.5 30
t68.5 103l58 -24q-22 -64 -58 -101t-79.5 -52.5t-91.5 -15.5zM246 584l-131 134h81q13 -14 31.5 -34t33 -35l14.5 -15v0l14 15t32.5 35t31.5 34h81l-131 -134h-57z" />
    <glyph glyph-name="Dcaron" unicode="&#x10e;" horiz-adv-x="708" 
d="M315 700q110 0 190 -42.5t123.5 -121t43.5 -186.5t-43.5 -186.5t-123.5 -121t-190 -42.5h-201v63h200q94 0 158 35.5t97 100t33 151.5q0 88 -33 152t-97 99.5t-158 35.5h-203v63h204zM137 700v-700h-67v700h67zM299 784l-131 134h81q13 -14 31.5 -34t33 -35l14.5 -15v0
l14 15t32.5 35t31.5 34h81l-131 -134h-57z" />
    <glyph glyph-name="dcaron" unicode="&#x10f;" horiz-adv-x="595" 
d="M268 -8q-66 0 -119 32t-84.5 90t-31.5 136q0 59 18 106.5t50 81.5t75 52t92 18q53 0 93.5 -21t68 -57t41.5 -82.5t14 -97.5v0q0 -51 -14 -97.5t-41.5 -82.5t-68 -57t-93.5 -21zM276 52q39 0 71.5 13.5t56.5 39.5t37 62.5t13 82.5q0 92 -50 145t-128 53q-39 0 -71.5 -13.5
t-56.5 -39.5t-37 -62.5t-13 -82.5q0 -92 50 -145t128 -53zM452 0v175l15 75l-15 66v384h65v-700h-65zM582 700h59v-87l-20 -101h-39v188z" />
    <glyph glyph-name="Dcroat" unicode="&#x110;" horiz-adv-x="737" 
d="M330 384v-63h-320v63h320zM344 700q110 0 190 -42.5t123.5 -121t43.5 -186.5t-43.5 -186.5t-123.5 -121t-190 -42.5h-201v63h200q94 0 158 35.5t97 100t33 151.5q0 88 -33 152t-97 99.5t-158 35.5h-203v63h204zM166 700v-700h-67v700h67z" />
    <glyph glyph-name="dcroat" unicode="&#x111;" horiz-adv-x="575" 
d="M268 -8q-66 0 -119 32t-84.5 90t-31.5 136q0 59 18 106.5t50 81.5t75 52t92 18q53 0 93.5 -21t68 -57t41.5 -82.5t14 -97.5v0q0 -51 -14 -97.5t-41.5 -82.5t-68 -57t-93.5 -21zM276 52q39 0 71.5 13.5t56.5 39.5t37 62.5t13 82.5q0 92 -50 145t-128 53q-39 0 -71.5 -13.5
t-56.5 -39.5t-37 -62.5t-13 -82.5q0 -92 50 -145t128 -53zM452 0v175l15 75l-15 66v384h65v-700h-65zM324 558v57h267v-57h-267z" />
    <glyph glyph-name="Emacron" unicode="&#x112;" horiz-adv-x="569" 
d="M137 700v-700h-67v700h67zM535 63v-63h-438v63h438zM496 384v-63h-399v63h399zM535 700v-63h-438v63h438zM154 812v59h295v-59h-295z" />
    <glyph glyph-name="emacron" unicode="&#x113;" horiz-adv-x="528" 
d="M267 -9q-67 0 -120 32.5t-83.5 91t-30.5 135.5q0 60 17.5 107.5t49.5 81t75 51.5t94 18q65 0 116 -31t80.5 -87.5t29.5 -132.5v-11t-1 -10h-423v55h384l-28 -45v4v3q0 98 -45.5 146.5t-113.5 48.5q-38 0 -69 -13.5t-53.5 -39.5t-34.5 -62.5t-12 -82.5q0 -63 23 -107.5
t61.5 -68t86.5 -23.5q36 0 67 11.5t56.5 37t42.5 68.5l56 -26q-24 -57 -60 -90t-78.5 -47t-86.5 -14zM122 612v59h295v-59h-295z" />
    <glyph glyph-name="Ebreve" unicode="&#x114;" horiz-adv-x="569" 
d="M137 700v-700h-67v700h67zM535 63v-63h-438v63h438zM496 384v-63h-399v63h399zM535 700v-63h-438v63h438zM301 780q-40 0 -73 16.5t-52.5 47.5t-19.5 74h61q0 -40 23.5 -61.5t60.5 -21.5t60.5 21.5t23.5 61.5h61q0 -64 -42.5 -101t-102.5 -37z" />
    <glyph glyph-name="ebreve" unicode="&#x115;" horiz-adv-x="528" 
d="M267 -9q-67 0 -120 32.5t-83.5 91t-30.5 135.5q0 60 17.5 107.5t49.5 81t75 51.5t94 18q65 0 116 -31t80.5 -87.5t29.5 -132.5v-11t-1 -10h-423v55h384l-28 -45v4v3q0 98 -45.5 146.5t-113.5 48.5q-38 0 -69 -13.5t-53.5 -39.5t-34.5 -62.5t-12 -82.5q0 -63 23 -107.5
t61.5 -68t86.5 -23.5q36 0 67 11.5t56.5 37t42.5 68.5l56 -26q-24 -57 -60 -90t-78.5 -47t-86.5 -14zM269 580q-40 0 -73 16.5t-52.5 47.5t-19.5 74h61q0 -40 23.5 -61.5t60.5 -21.5t60.5 21.5t23.5 61.5h61q0 -64 -42.5 -101t-102.5 -37z" />
    <glyph glyph-name="Edotaccent" unicode="&#x116;" horiz-adv-x="569" 
d="M137 700v-700h-67v700h67zM535 63v-63h-438v63h438zM496 384v-63h-399v63h399zM535 700v-63h-438v63h438zM300 796q-21 0 -35 14.5t-14 36.5q0 21 14 35.5t35 14.5q22 0 36.5 -14.5t14.5 -35.5q0 -22 -14.5 -36.5t-36.5 -14.5z" />
    <glyph glyph-name="edotaccent" unicode="&#x117;" horiz-adv-x="528" 
d="M267 -9q-67 0 -120 32.5t-83.5 91t-30.5 135.5q0 60 17.5 107.5t49.5 81t75 51.5t94 18q65 0 116 -31t80.5 -87.5t29.5 -132.5v-11t-1 -10h-423v55h384l-28 -45v4v3q0 98 -45.5 146.5t-113.5 48.5q-38 0 -69 -13.5t-53.5 -39.5t-34.5 -62.5t-12 -82.5q0 -63 23 -107.5
t61.5 -68t86.5 -23.5q36 0 67 11.5t56.5 37t42.5 68.5l56 -26q-24 -57 -60 -90t-78.5 -47t-86.5 -14zM269 596q-21 0 -35 14.5t-14 36.5q0 21 14 35.5t35 14.5q22 0 36.5 -14.5t14.5 -35.5q0 -22 -14.5 -36.5t-36.5 -14.5z" />
    <glyph glyph-name="Eogonek" unicode="&#x118;" horiz-adv-x="569" 
d="M137 700v-700h-67v700h67zM535 63v-63h-438v63h438zM496 384v-63h-399v63h399zM535 700v-63h-438v63h438zM451 -168q-47 0 -70.5 20.5t-23.5 49.5q0 18 9.5 37.5t28.5 37.5l41 38l46 -15l-38 -39q-22 -22 -22 -43q0 -27 33 -27h39v-59h-43z" />
    <glyph glyph-name="eogonek" unicode="&#x119;" horiz-adv-x="528" 
d="M267 -9q-67 0 -120 32.5t-83.5 91t-30.5 135.5q0 60 17.5 107.5t49.5 81t75 51.5t94 18q65 0 116 -31t80.5 -87.5t29.5 -132.5v-11t-1 -10h-423v55h384l-28 -45v4v3q0 98 -45.5 146.5t-113.5 48.5q-38 0 -69 -13.5t-53.5 -39.5t-34.5 -62.5t-12 -82.5q0 -63 23 -107.5
t61.5 -68t86.5 -23.5q36 0 67 11.5t56.5 37t42.5 68.5l56 -26q-24 -57 -60 -90t-78.5 -47t-86.5 -14zM377 58l42 -15l-52 -69q-16 -22 -22.5 -34t-6.5 -22q0 -27 33 -27h39v-59h-43q-47 0 -70.5 20.5t-23.5 49.5q0 18 11 38t36 50z" />
    <glyph glyph-name="Ecaron" unicode="&#x11a;" horiz-adv-x="569" 
d="M137 700v-700h-67v700h67zM535 63v-63h-438v63h438zM496 384v-63h-399v63h399zM535 700v-63h-438v63h438zM273 784l-131 134h81q13 -14 31.5 -34t33 -35l14.5 -15v0l14 15t32.5 35t31.5 34h81l-131 -134h-57z" />
    <glyph glyph-name="ecaron" unicode="&#x11b;" horiz-adv-x="528" 
d="M267 -9q-67 0 -120 32.5t-83.5 91t-30.5 135.5q0 60 17.5 107.5t49.5 81t75 51.5t94 18q65 0 116 -31t80.5 -87.5t29.5 -132.5v-11t-1 -10h-423v55h384l-28 -45v4v3q0 98 -45.5 146.5t-113.5 48.5q-38 0 -69 -13.5t-53.5 -39.5t-34.5 -62.5t-12 -82.5q0 -63 23 -107.5
t61.5 -68t86.5 -23.5q36 0 67 11.5t56.5 37t42.5 68.5l56 -26q-24 -57 -60 -90t-78.5 -47t-86.5 -14zM241 584l-131 134h81q13 -14 31.5 -34t33 -35l14.5 -15v0l14 15t32.5 35t31.5 34h81l-131 -134h-57z" />
    <glyph glyph-name="Gcircumflex" unicode="&#x11c;" horiz-adv-x="735" 
d="M375 -8q-72 0 -133.5 25t-108 71.5t-72 113t-25.5 148.5q0 83 26 149t72 113t108.5 72t135.5 25q67 0 126 -22.5t106.5 -69.5t77.5 -119l-61 -30q-36 88 -100.5 132t-149.5 44q-57 0 -106 -20t-86.5 -58t-58 -92.5t-20.5 -123.5q0 -92 36 -158t97 -101t136 -35
q78 0 135.5 34t89.5 97.5t33 152.5l26 -42h-284v63h328v-10.5v-10.5q0 -107 -41 -185t-114.5 -120.5t-172.5 -42.5zM216 784l131 134h57l131 -134h-81q-13 14 -31.5 34t-33 35l-14.5 15v0l-14 -15t-32.5 -35t-31.5 -34h-81z" />
    <glyph glyph-name="gcircumflex" unicode="&#x11d;" horiz-adv-x="526" 
d="M271 -172q-87 0 -142 18t-81 48.5t-26 67.5q0 32 22.5 59t64.5 40q-36 11 -56 30.5t-20 47.5q0 38 29 62t81 31q-37 20 -58 51.5t-21 71.5q0 44 26.5 78.5t73 54.5t105.5 20q63 0 118 1.5t103 24.5l21 -56q-31 -13 -56.5 -18.5t-50.5 -6.5q32 -16 50.5 -43.5t18.5 -60.5
q0 -44 -26.5 -78t-74 -53.5t-110.5 -19.5q-38 0 -68.5 -2t-51.5 -7.5t-32 -15.5t-11 -27q0 -19 19 -29t53 -13.5t79 -3.5h26q88 0 141 -18.5t76.5 -50t23.5 -69.5q0 -28 -14.5 -52t-44 -42.5t-76 -29t-111.5 -10.5zM271 -114q100 0 140 20.5t40 56.5q0 37 -40 57t-140 20
q-66 0 -106.5 -9.5t-58.5 -27t-18 -40.5q0 -34 41.5 -55.5t141.5 -21.5zM269 254q39 0 70.5 11t50 33t18.5 54q0 48 -40 73t-99 25q-39 0 -70.5 -11t-50 -32.5t-18.5 -54.5q0 -49 40.5 -73.5t98.5 -24.5zM110 584l131 134h57l131 -134h-81q-13 14 -31.5 34t-33 35l-14.5 15
v0l-14 -15t-32.5 -35t-31.5 -34h-81z" />
    <glyph glyph-name="Gbreve" unicode="&#x11e;" horiz-adv-x="735" 
d="M375 -8q-72 0 -133.5 25t-108 71.5t-72 113t-25.5 148.5q0 83 26 149t72 113t108.5 72t135.5 25q67 0 126 -22.5t106.5 -69.5t77.5 -119l-61 -30q-36 88 -100.5 132t-149.5 44q-57 0 -106 -20t-86.5 -58t-58 -92.5t-20.5 -123.5q0 -92 36 -158t97 -101t136 -35
q78 0 135.5 34t89.5 97.5t33 152.5l26 -42h-284v63h328v-10.5v-10.5q0 -107 -41 -185t-114.5 -120.5t-172.5 -42.5zM375 780q-40 0 -73 16.5t-52.5 47.5t-19.5 74h61q0 -40 23.5 -61.5t60.5 -21.5t60.5 21.5t23.5 61.5h61q0 -64 -42.5 -101t-102.5 -37z" />
    <glyph glyph-name="gbreve" unicode="&#x11f;" horiz-adv-x="526" 
d="M271 -172q-87 0 -142 18t-81 48.5t-26 67.5q0 32 22.5 59t64.5 40q-36 11 -56 30.5t-20 47.5q0 38 29 62t81 31q-37 20 -58 51.5t-21 71.5q0 44 26.5 78.5t73 54.5t105.5 20q63 0 118 1.5t103 24.5l21 -56q-31 -13 -56.5 -18.5t-50.5 -6.5q32 -16 50.5 -43.5t18.5 -60.5
q0 -44 -26.5 -78t-74 -53.5t-110.5 -19.5q-38 0 -68.5 -2t-51.5 -7.5t-32 -15.5t-11 -27q0 -19 19 -29t53 -13.5t79 -3.5h26q88 0 141 -18.5t76.5 -50t23.5 -69.5q0 -28 -14.5 -52t-44 -42.5t-76 -29t-111.5 -10.5zM271 -114q100 0 140 20.5t40 56.5q0 37 -40 57t-140 20
q-66 0 -106.5 -9.5t-58.5 -27t-18 -40.5q0 -34 41.5 -55.5t141.5 -21.5zM269 254q39 0 70.5 11t50 33t18.5 54q0 48 -40 73t-99 25q-39 0 -70.5 -11t-50 -32.5t-18.5 -54.5q0 -49 40.5 -73.5t98.5 -24.5zM269 580q-40 0 -73 16.5t-52.5 47.5t-19.5 74h61q0 -40 23.5 -61.5
t60.5 -21.5t60.5 21.5t23.5 61.5h61q0 -64 -42.5 -101t-102.5 -37z" />
    <glyph glyph-name="Gdotaccent" unicode="&#x120;" horiz-adv-x="735" 
d="M375 -8q-72 0 -133.5 25t-108 71.5t-72 113t-25.5 148.5q0 83 26 149t72 113t108.5 72t135.5 25q67 0 126 -22.5t106.5 -69.5t77.5 -119l-61 -30q-36 88 -100.5 132t-149.5 44q-57 0 -106 -20t-86.5 -58t-58 -92.5t-20.5 -123.5q0 -92 36 -158t97 -101t136 -35
q78 0 135.5 34t89.5 97.5t33 152.5l26 -42h-284v63h328v-10.5v-10.5q0 -107 -41 -185t-114.5 -120.5t-172.5 -42.5zM374 796q-21 0 -35 14.5t-14 36.5q0 21 14 35.5t35 14.5q22 0 36.5 -14.5t14.5 -35.5q0 -22 -14.5 -36.5t-36.5 -14.5z" />
    <glyph glyph-name="gdotaccent" unicode="&#x121;" horiz-adv-x="526" 
d="M271 -172q-87 0 -142 18t-81 48.5t-26 67.5q0 32 22.5 59t64.5 40q-36 11 -56 30.5t-20 47.5q0 38 29 62t81 31q-37 20 -58 51.5t-21 71.5q0 44 26.5 78.5t73 54.5t105.5 20q63 0 118 1.5t103 24.5l21 -56q-31 -13 -56.5 -18.5t-50.5 -6.5q32 -16 50.5 -43.5t18.5 -60.5
q0 -44 -26.5 -78t-74 -53.5t-110.5 -19.5q-38 0 -68.5 -2t-51.5 -7.5t-32 -15.5t-11 -27q0 -19 19 -29t53 -13.5t79 -3.5h26q88 0 141 -18.5t76.5 -50t23.5 -69.5q0 -28 -14.5 -52t-44 -42.5t-76 -29t-111.5 -10.5zM271 -114q100 0 140 20.5t40 56.5q0 37 -40 57t-140 20
q-66 0 -106.5 -9.5t-58.5 -27t-18 -40.5q0 -34 41.5 -55.5t141.5 -21.5zM269 254q39 0 70.5 11t50 33t18.5 54q0 48 -40 73t-99 25q-39 0 -70.5 -11t-50 -32.5t-18.5 -54.5q0 -49 40.5 -73.5t98.5 -24.5zM269 596q-21 0 -35 14.5t-14 36.5q0 21 14 35.5t35 14.5
q22 0 36.5 -14.5t14.5 -35.5q0 -22 -14.5 -36.5t-36.5 -14.5z" />
    <glyph glyph-name="uni0122" unicode="&#x122;" horiz-adv-x="735" 
d="M375 -8q-72 0 -133.5 25t-108 71.5t-72 113t-25.5 148.5q0 83 26 149t72 113t108.5 72t135.5 25q67 0 126 -22.5t106.5 -69.5t77.5 -119l-61 -30q-36 88 -100.5 132t-149.5 44q-57 0 -106 -20t-86.5 -58t-58 -92.5t-20.5 -123.5q0 -92 36 -158t97 -101t136 -35
q78 0 135.5 34t89.5 97.5t33 152.5l26 -42h-284v63h328v-10.5v-10.5q0 -107 -41 -185t-114.5 -120.5t-172.5 -42.5zM369 -200l-38 23l45 70l-4 -27q-21 -1 -34 12t-13 30q0 19 14 32t35 13q22 0 36.5 -13t14.5 -32q0 -9 -3 -18.5t-15 -29.5z" />
    <glyph glyph-name="uni0123" unicode="&#x123;" horiz-adv-x="526" 
d="M271 -172q-87 0 -142 18t-81 48.5t-26 67.5q0 32 22.5 59t64.5 40q-36 11 -56 30.5t-20 47.5q0 38 29 62t81 31q-37 20 -58 51.5t-21 71.5q0 44 26.5 78.5t73 54.5t105.5 20q63 0 118 1.5t103 24.5l21 -56q-31 -13 -56.5 -18.5t-50.5 -6.5q32 -16 50.5 -43.5t18.5 -60.5
q0 -44 -26.5 -78t-74 -53.5t-110.5 -19.5q-38 0 -68.5 -2t-51.5 -7.5t-32 -15.5t-11 -27q0 -19 19 -29t53 -13.5t79 -3.5h26q88 0 141 -18.5t76.5 -50t23.5 -69.5q0 -28 -14.5 -52t-44 -42.5t-76 -29t-111.5 -10.5zM271 -114q100 0 140 20.5t40 56.5q0 37 -40 57t-140 20
q-66 0 -106.5 -9.5t-58.5 -27t-18 -40.5q0 -34 41.5 -55.5t141.5 -21.5zM269 254q39 0 70.5 11t50 33t18.5 54q0 48 -40 73t-99 25q-39 0 -70.5 -11t-50 -32.5t-18.5 -54.5q0 -49 40.5 -73.5t98.5 -24.5zM286 748l38 -23l-57 -89l4 27q21 1 34 -12t13 -30q0 -19 -14 -32
t-35 -13q-22 0 -36.5 13t-14.5 32q0 9 3 19t15 29z" />
    <glyph glyph-name="Hcircumflex" unicode="&#x124;" horiz-adv-x="691" 
d="M621 700v-700h-67v700h67zM137 700v-700h-67v700h67zM594 384v-63h-497v63h497zM182 784l131 134h57l131 -134h-81q-13 14 -31.5 34t-33 35l-14.5 15v0l-14 -15t-32.5 -35t-31.5 -34h-81z" />
    <glyph glyph-name="hcircumflex" unicode="&#x125;" horiz-adv-x="528" 
d="M58 0v700h65v-311l-10 9q24 58 71.5 84t98.5 26q56 0 99.5 -24.5t68 -69.5t24.5 -106v-308h-65v299q0 68 -37.5 108.5t-98.5 40.5q-67 0 -109 -40.5t-42 -108.5v-299h-65zM108 784l131 134h57l131 -134h-81q-13 14 -31.5 34t-33 35l-14.5 15v0l-14 -15t-32.5 -35
t-31.5 -34h-81z" />
    <glyph glyph-name="Hbar" unicode="&#x126;" horiz-adv-x="737" 
d="M725 562v-57h-713v57h713zM644 700v-700h-67v700h67zM160 700v-700h-67v700h67zM617 384v-63h-497v63h497z" />
    <glyph glyph-name="hbar" unicode="&#x127;" horiz-adv-x="528" 
d="M251 615v-57h-267v57h267zM58 0v700h65v-311l-10 9q24 58 71.5 84t98.5 26q56 0 99.5 -24.5t68 -69.5t24.5 -106v-308h-65v299q0 68 -37.5 108.5t-98.5 40.5q-67 0 -109 -40.5t-42 -108.5v-299h-65z" />
    <glyph glyph-name="Itilde" unicode="&#x128;" horiz-adv-x="207" 
d="M137 700v-700h-67v700h67zM164 789q-25 0 -42.5 9.5t-29.5 22.5t-22.5 22.5t-22.5 9.5t-21.5 -11.5t-9.5 -46.5h-58q0 46 13.5 70.5t34.5 34.5t41 10q26 0 43 -9.5t29 -22.5t22.5 -22.5t22.5 -9.5t21.5 11.5t9.5 46.5h58q0 -45 -13.5 -70t-34 -35t-41.5 -10z" />
    <glyph glyph-name="itilde" unicode="&#x129;" horiz-adv-x="181" 
d="M123 500v-500h-65v500h65zM151 589q-25 0 -42.5 9.5t-29.5 22.5t-22.5 22.5t-22.5 9.5t-21.5 -11.5t-9.5 -46.5h-58q0 46 13.5 70.5t34.5 34.5t41 10q26 0 43 -9.5t29 -22.5t22.5 -22.5t22.5 -9.5t21.5 11.5t9.5 46.5h58q0 -45 -13.5 -70t-34 -35t-41.5 -10z" />
    <glyph glyph-name="Imacron" unicode="&#x12a;" horiz-adv-x="207" 
d="M137 700v-700h-67v700h67zM-44 812v59h295v-59h-295z" />
    <glyph glyph-name="imacron" unicode="&#x12b;" horiz-adv-x="181" 
d="M123 500v-500h-65v500h65zM-57 612v59h295v-59h-295z" />
    <glyph glyph-name="Ibreve" unicode="&#x12c;" horiz-adv-x="207" 
d="M137 700v-700h-67v700h67zM103 780q-40 0 -73 16.5t-52.5 47.5t-19.5 74h61q0 -40 23.5 -61.5t60.5 -21.5t60.5 21.5t23.5 61.5h61q0 -64 -42.5 -101t-102.5 -37z" />
    <glyph glyph-name="ibreve" unicode="&#x12d;" horiz-adv-x="181" 
d="M123 500v-500h-65v500h65zM90 580q-40 0 -73 16.5t-52.5 47.5t-19.5 74h61q0 -40 23.5 -61.5t60.5 -21.5t60.5 21.5t23.5 61.5h61q0 -64 -42.5 -101t-102.5 -37z" />
    <glyph glyph-name="Iogonek" unicode="&#x12e;" horiz-adv-x="207" 
d="M137 700v-700h-67v700h67zM106 -168q-47 0 -70.5 20.5t-23.5 49.5q0 18 9.5 37.5t28.5 37.5l41 38l46 -15l-38 -39q-22 -22 -22 -43q0 -27 33 -27h39v-59h-43z" />
    <glyph glyph-name="iogonek" unicode="&#x12f;" horiz-adv-x="181" 
d="M123 500v-500h-65v500h65zM90 616q-21 0 -35 14.5t-14 36.5q0 21 14 35.5t35 14.5q22 0 36.5 -14.5t14.5 -35.5q0 -22 -14.5 -36.5t-36.5 -14.5zM92 -168q-47 0 -70.5 20.5t-23.5 49.5q0 18 9.5 37.5t28.5 37.5l41 38l46 -15l-38 -39q-22 -22 -22 -43q0 -27 33 -27h39
v-59h-43z" />
    <glyph glyph-name="Idotaccent" unicode="&#x130;" horiz-adv-x="207" 
d="M137 700v-700h-67v700h67zM102 796q-21 0 -35 14.5t-14 36.5q0 21 14 35.5t35 14.5q22 0 36.5 -14.5t14.5 -35.5q0 -22 -14.5 -36.5t-36.5 -14.5z" />
    <glyph glyph-name="dotlessi" unicode="&#x131;" horiz-adv-x="181" 
d="M123 500v-500h-65v500h65z" />
    <glyph glyph-name="Jcircumflex" unicode="&#x134;" horiz-adv-x="484" 
d="M212 -8q-76 0 -128 39.5t-78 96.5l54 34q18 -44 56.5 -75t93.5 -31q63 0 102.5 39t39.5 123v482h67v-487q0 -53 -15.5 -94.5t-43.5 -69.5t-66 -42.5t-82 -14.5zM226 784l131 134h57l131 -134h-81q-13 14 -31.5 34t-33 35l-14.5 15v0l-14 -15t-32.5 -35t-31.5 -34h-81z
" />
    <glyph glyph-name="jcircumflex" unicode="&#x135;" horiz-adv-x="181" 
d="M123 -41q0 -62 -29 -94.5t-81 -32.5h-23v61h17q25 0 38 17t13 52v538h65v-541zM-69 584l131 134h57l131 -134h-81q-13 14 -31.5 34t-33 35l-14.5 15v0l-14 -15t-32.5 -35t-31.5 -34h-81z" />
    <glyph glyph-name="uni0136" unicode="&#x136;" horiz-adv-x="589" 
d="M137 700v-700h-67v700h67zM511 0l-388 351l367 349h91l-389 -364l-1 40l416 -376h-96zM297 -200l-38 23l45 70l-4 -27q-21 -1 -34 12t-13 30q0 19 14 32t35 13q22 0 36.5 -13t14.5 -32q0 -9 -3 -18.5t-15 -29.5z" />
    <glyph glyph-name="uni0137" unicode="&#x137;" horiz-adv-x="437" 
d="M365 0l-251 263l238 237h81l-262 -254l2 39l273 -285h-81zM58 0v700h65v-700h-65zM236 -200l-38 23l45 70l-4 -27q-21 -1 -34 12t-13 30q0 19 14 32t35 13q22 0 36.5 -13t14.5 -32q0 -9 -3 -18.5t-15 -29.5z" />
    <glyph glyph-name="Lacute" unicode="&#x139;" horiz-adv-x="512" 
d="M137 64h363v-64h-430v700h67v-636zM56 784l86 134h74l-95 -134h-65z" />
    <glyph glyph-name="lacute" unicode="&#x13a;" horiz-adv-x="237" 
d="M183 0q-42 0 -69.5 17t-40.5 45.5t-13 64.5v573h65v-569q0 -34 14.5 -53t48.5 -19h44v-59h-49zM46 784l86 134h74l-95 -134h-65z" />
    <glyph glyph-name="uni013B" unicode="&#x13b;" horiz-adv-x="512" 
d="M137 64h363v-64h-430v700h67v-636zM279 -200l-38 23l45 70l-4 -27q-21 -1 -34 12t-13 30q0 19 14 32t35 13q22 0 36.5 -13t14.5 -32q0 -9 -3 -18.5t-15 -29.5z" />
    <glyph glyph-name="uni013C" unicode="&#x13c;" horiz-adv-x="237" 
d="M183 0q-42 0 -69.5 17t-40.5 45.5t-13 64.5v573h65v-569q0 -34 14.5 -53t48.5 -19h44v-59h-49zM147 -200l-38 23l45 70l-4 -27q-21 -1 -34 12t-13 30q0 19 14 32t35 13q22 0 36.5 -13t14.5 -32q0 -9 -3 -18.5t-15 -29.5z" />
    <glyph glyph-name="Lcaron" unicode="&#x13d;" horiz-adv-x="512" 
d="M137 64h363v-64h-430v700h67v-636zM265 700h59v-87l-20 -101h-39v188z" />
    <glyph glyph-name="lcaron" unicode="&#x13e;" horiz-adv-x="257" 
d="M183 0q-42 0 -69.5 17t-40.5 45.5t-13 64.5v573h65v-569q0 -34 14.5 -53t48.5 -19h44v-59h-49zM190 700h59v-87l-20 -101h-39v188z" />
    <glyph glyph-name="Ldot" unicode="&#x13f;" horiz-adv-x="512" 
d="M137 64h363v-64h-430v700h67v-636zM358 291q-21 0 -35 14.5t-14 36.5q0 21 14 35.5t35 14.5q22 0 36.5 -14.5t14.5 -35.5q0 -22 -14.5 -36.5t-36.5 -14.5z" />
    <glyph glyph-name="ldot" unicode="&#x140;" horiz-adv-x="289" 
d="M183 0q-42 0 -69.5 17t-40.5 45.5t-13 64.5v573h65v-569q0 -34 14.5 -53t48.5 -19h44v-59h-49zM236 311q-21 0 -35 14.5t-14 36.5q0 21 14 35.5t35 14.5q22 0 36.5 -14.5t14.5 -35.5q0 -22 -14.5 -36.5t-36.5 -14.5z" />
    <glyph glyph-name="Lslash" unicode="&#x141;" horiz-adv-x="560" 
d="M145 360l257 78v-61l-257 -78v61zM145 303l-133 -40v61l133 40v-61zM185 64h363v-64h-430v700h67v-636z" />
    <glyph glyph-name="lslash" unicode="&#x142;" horiz-adv-x="309" 
d="M16 369l116 35v-59l-116 -35v59zM275 385l-143 -44v59l143 44v-59zM232 0q-42 0 -69 17t-40.5 45.5t-13.5 64.5v573h65v-569q0 -34 14.5 -53t48.5 -19h44v-59h-49z" />
    <glyph glyph-name="Nacute" unicode="&#x143;" horiz-adv-x="702" 
d="M565 700h67v-700h-57l-385 510q-19 26 -36 48.5l-17 22.5v0v-27.5v-61.5v-492h-67v700h57l385 -510q20 -26 36.5 -48.5l16.5 -22.5v0v27.5v61.5v492zM304 784l86 134h74l-95 -134h-65z" />
    <glyph glyph-name="nacute" unicode="&#x144;" horiz-adv-x="528" 
d="M283 508q56 0 99.5 -24.5t68 -69.5t24.5 -106v-308h-65v299q0 68 -37.5 108.5t-98.5 40.5q-67 0 -109 -40.5t-42 -108.5v-299h-65v500h65v-111l-10 9q24 58 71.5 84t98.5 26zM224 584l86 134h74l-95 -134h-65z" />
    <glyph glyph-name="uni0145" unicode="&#x145;" horiz-adv-x="702" 
d="M565 700h67v-700h-57l-385 510q-19 26 -36 48.5l-17 22.5v0v-27.5v-61.5v-492h-67v700h57l385 -510q20 -26 36.5 -48.5l16.5 -22.5v0v27.5v61.5v492zM343 -200l-38 23l45 70l-4 -27q-21 -1 -34 12t-13 30q0 19 14 32t35 13q22 0 36.5 -13t14.5 -32q0 -9 -3 -18.5
t-15 -29.5z" />
    <glyph glyph-name="uni0146" unicode="&#x146;" horiz-adv-x="528" 
d="M283 508q56 0 99.5 -24.5t68 -69.5t24.5 -106v-308h-65v299q0 68 -37.5 108.5t-98.5 40.5q-67 0 -109 -40.5t-42 -108.5v-299h-65v500h65v-111l-10 9q24 58 71.5 84t98.5 26zM261 -200l-38 23l45 70l-4 -27q-21 -1 -34 12t-13 30q0 19 14 32t35 13q22 0 36.5 -13
t14.5 -32q0 -9 -3 -18.5t-15 -29.5z" />
    <glyph glyph-name="Ncaron" unicode="&#x147;" horiz-adv-x="702" 
d="M565 700h67v-700h-57l-385 510q-19 26 -36 48.5l-17 22.5v0v-27.5v-61.5v-492h-67v700h57l385 -510q20 -26 36.5 -48.5l16.5 -22.5v0v27.5v61.5v492zM323 784l-131 134h81q13 -14 31.5 -34t33 -35l14.5 -15v0l14 15t32.5 35t31.5 34h81l-131 -134h-57z" />
    <glyph glyph-name="ncaron" unicode="&#x148;" horiz-adv-x="528" 
d="M283 508q56 0 99.5 -24.5t68 -69.5t24.5 -106v-308h-65v299q0 68 -37.5 108.5t-98.5 40.5q-67 0 -109 -40.5t-42 -108.5v-299h-65v500h65v-111l-10 9q24 58 71.5 84t98.5 26zM243 584l-131 134h81q13 -14 31.5 -34t33 -35l14.5 -15v0l14 15t32.5 35t31.5 34h81l-131 -134
h-57z" />
    <glyph glyph-name="Eng" unicode="&#x14a;" horiz-adv-x="702" 
d="M447 -167v63h50q37 0 52.5 21t15.5 58v65l18 -50l-393 520q-19 26 -36 48.5l-17 22.5v0v-27.5v-61.5v-492h-67v701h56l386 -511q20 -26 36.5 -48.5l16.5 -22.5v0v27.5v61.5v492h67v-733q0 -57 -31.5 -95.5t-98.5 -38.5h-55z" />
    <glyph glyph-name="eng" unicode="&#x14b;" horiz-adv-x="528" 
d="M342 -168v61h17q25 0 38 17t13 52v337q0 68 -37.5 108.5t-98.5 40.5q-67 0 -109 -40.5t-42 -108.5v-299h-65v500h65v-111l-10 9q24 58 71.5 84t98.5 26q56 0 99.5 -24.5t68 -69.5t24.5 -106v-349q0 -62 -29 -94.5t-81 -32.5h-23z" />
    <glyph glyph-name="Omacron" unicode="&#x14c;" horiz-adv-x="767" 
d="M384 -9q-102 0 -181 45.5t-123.5 126.5t-44.5 187q0 80 25.5 146t72 113.5t110.5 73.5t141 26q103 0 181 -45.5t122.5 -126t44.5 -187.5q0 -80 -25.5 -146t-72 -113.5t-110 -73.5t-140.5 -26zM384 56q60 0 110.5 20t88.5 58.5t58.5 93t20.5 122.5q0 91 -36 157t-99 101.5
t-143 35.5q-60 0 -111 -20t-88.5 -58.5t-58.5 -93t-21 -122.5q0 -91 36.5 -157t99.5 -101.5t143 -35.5zM237 812v59h295v-59h-295z" />
    <glyph glyph-name="omacron" unicode="&#x14d;" horiz-adv-x="562" 
d="M281 -9q-71 0 -127 32.5t-88.5 91t-32.5 135.5q0 57 18.5 104.5t52 82t79 53t98.5 18.5q71 0 127 -32.5t88.5 -90.5t32.5 -135q0 -58 -18.5 -105.5t-52 -82t-79 -53t-98.5 -18.5zM281 51q39 0 72.5 13.5t58 39.5t38 63t13.5 83q0 61 -23.5 105.5t-64.5 68.5t-94 24
q-39 0 -72.5 -13.5t-58 -39.5t-38 -62.5t-13.5 -82.5q0 -61 23.5 -106t65 -69t93.5 -24zM134 612v59h295v-59h-295z" />
    <glyph glyph-name="Obreve" unicode="&#x14e;" horiz-adv-x="767" 
d="M384 -9q-102 0 -181 45.5t-123.5 126.5t-44.5 187q0 80 25.5 146t72 113.5t110.5 73.5t141 26q103 0 181 -45.5t122.5 -126t44.5 -187.5q0 -80 -25.5 -146t-72 -113.5t-110 -73.5t-140.5 -26zM384 56q60 0 110.5 20t88.5 58.5t58.5 93t20.5 122.5q0 91 -36 157t-99 101.5
t-143 35.5q-60 0 -111 -20t-88.5 -58.5t-58.5 -93t-21 -122.5q0 -91 36.5 -157t99.5 -101.5t143 -35.5zM384 780q-40 0 -73 16.5t-52.5 47.5t-19.5 74h61q0 -40 23.5 -61.5t60.5 -21.5t60.5 21.5t23.5 61.5h61q0 -64 -42.5 -101t-102.5 -37z" />
    <glyph glyph-name="obreve" unicode="&#x14f;" horiz-adv-x="562" 
d="M281 -9q-71 0 -127 32.5t-88.5 91t-32.5 135.5q0 57 18.5 104.5t52 82t79 53t98.5 18.5q71 0 127 -32.5t88.5 -90.5t32.5 -135q0 -58 -18.5 -105.5t-52 -82t-79 -53t-98.5 -18.5zM281 51q39 0 72.5 13.5t58 39.5t38 63t13.5 83q0 61 -23.5 105.5t-64.5 68.5t-94 24
q-39 0 -72.5 -13.5t-58 -39.5t-38 -62.5t-13.5 -82.5q0 -61 23.5 -106t65 -69t93.5 -24zM281 580q-40 0 -73 16.5t-52.5 47.5t-19.5 74h61q0 -40 23.5 -61.5t60.5 -21.5t60.5 21.5t23.5 61.5h61q0 -64 -42.5 -101t-102.5 -37z" />
    <glyph glyph-name="Ohungarumlaut" unicode="&#x150;" horiz-adv-x="767" 
d="M384 -9q-102 0 -181 45.5t-123.5 126.5t-44.5 187q0 80 25.5 146t72 113.5t110.5 73.5t141 26q103 0 181 -45.5t122.5 -126t44.5 -187.5q0 -80 -25.5 -146t-72 -113.5t-110 -73.5t-140.5 -26zM384 56q60 0 110.5 20t88.5 58.5t58.5 93t20.5 122.5q0 91 -36 157t-99 101.5
t-143 35.5q-60 0 -111 -20t-88.5 -58.5t-58.5 -93t-21 -122.5q0 -91 36.5 -157t99.5 -101.5t143 -35.5zM316 784h-65l86 134h74zM503 784h-65l86 134h74z" />
    <glyph glyph-name="ohungarumlaut" unicode="&#x151;" horiz-adv-x="562" 
d="M281 -9q-71 0 -127 32.5t-88.5 91t-32.5 135.5q0 57 18.5 104.5t52 82t79 53t98.5 18.5q71 0 127 -32.5t88.5 -90.5t32.5 -135q0 -58 -18.5 -105.5t-52 -82t-79 -53t-98.5 -18.5zM281 51q39 0 72.5 13.5t58 39.5t38 63t13.5 83q0 61 -23.5 105.5t-64.5 68.5t-94 24
q-39 0 -72.5 -13.5t-58 -39.5t-38 -62.5t-13.5 -82.5q0 -61 23.5 -106t65 -69t93.5 -24zM213 584h-65l86 134h74zM400 584h-65l86 134h74z" />
    <glyph glyph-name="OE" unicode="&#x152;" horiz-adv-x="1159" 
d="M381 -9q-101 0 -179.5 45.5t-122.5 126.5t-44 187q0 80 25.5 146t71.5 113.5t109.5 73.5t139.5 26q74 0 135 -26t105 -73.5t68.5 -113.5t24.5 -146v0q0 -106 -42.5 -187t-117.5 -126.5t-173 -45.5zM384 56q60 0 110.5 20t88.5 58.5t58.5 93t20.5 122.5q0 91 -36 157
t-99 101.5t-143 35.5q-60 0 -111 -20t-88.5 -58.5t-58.5 -93t-21 -122.5q0 -91 36.5 -157t99.5 -101.5t143 -35.5zM660 0v157l19 193l-19 196v154h465v-63h-398v-253h359v-63h-359v-258h398v-63h-465z" />
    <glyph glyph-name="oe" unicode="&#x153;" horiz-adv-x="958" 
d="M281 -9q-71 0 -127 32.5t-88.5 91t-32.5 135.5q0 57 18.5 104.5t52 82t79 53t98.5 18.5q71 0 126 -32.5t86 -90.5t31 -135q0 -58 -18 -105.5t-50.5 -82t-77 -53t-97.5 -18.5zM281 51q39 0 72.5 13.5t58 39.5t38 63t13.5 83q0 61 -23.5 105.5t-64.5 68.5t-94 24
q-39 0 -72.5 -13.5t-58 -39.5t-38 -62.5t-13.5 -82.5q0 -61 23.5 -106t65 -69t93.5 -24zM697 -9q-67 0 -118.5 32.5t-80.5 91t-29 135.5q0 60 17 107.5t47.5 81t72.5 51.5t93 18q65 0 116 -31t80.5 -87.5t29.5 -132.5v-11t-1 -10h-423v55h384l-28 -44v3.5v2.5q0 66 -21 109
t-56.5 64.5t-81.5 21.5q-38 0 -69 -13.5t-53.5 -39.5t-34.5 -62.5t-12 -82.5q0 -63 23 -107.5t61.5 -68t86.5 -23.5q35 0 66 11.5t56 37t42 68.5l56 -26q-24 -57 -60 -90t-77.5 -47t-85.5 -14z" />
    <glyph glyph-name="Racute" unicode="&#x154;" horiz-adv-x="619" 
d="M121 275v63h208q84 0 128.5 38.5t44.5 111.5t-45 111t-128 38h-211v63h217q109 0 173 -55.5t64 -156.5q0 -65 -30.5 -113t-83.5 -74t-123 -26h-214zM70 0v700h67v-700h-67zM520 0l-242 307l77 1l248 -308h-83zM244 784l86 134h74l-95 -134h-65z" />
    <glyph glyph-name="racute" unicode="&#x155;" horiz-adv-x="310" 
d="M122 500v-135l1 -17v-348h-65v500h64zM269 508h31v-68h-44q-59 0 -96 -47t-37 -121h-26q0 75 22 127.5t60.5 80.5t89.5 28zM133 584l86 134h74l-95 -134h-65z" />
    <glyph glyph-name="uni0156" unicode="&#x156;" horiz-adv-x="619" 
d="M121 275v63h208q84 0 128.5 38.5t44.5 111.5t-45 111t-128 38h-211v63h217q109 0 173 -55.5t64 -156.5q0 -65 -30.5 -113t-83.5 -74t-123 -26h-214zM70 0v700h67v-700h-67zM520 0l-242 307l77 1l248 -308h-83zM313 -200l-38 23l45 70l-4 -27q-21 -1 -34 12t-13 30
q0 19 14 32t35 13q22 0 36.5 -13t14.5 -32q0 -9 -3 -18.5t-15 -29.5z" />
    <glyph glyph-name="uni0157" unicode="&#x157;" horiz-adv-x="310" 
d="M122 500v-135l1 -17v-348h-65v500h64zM269 508h31v-68h-44q-59 0 -96 -47t-37 -121h-26q0 75 22 127.5t60.5 80.5t89.5 28zM86 -200l-38 23l45 70l-4 -27q-21 -1 -34 12t-13 30q0 19 14 32t35 13q22 0 36.5 -13t14.5 -32q0 -9 -3 -18.5t-15 -29.5z" />
    <glyph glyph-name="Rcaron" unicode="&#x158;" horiz-adv-x="619" 
d="M121 275v63h208q84 0 128.5 38.5t44.5 111.5t-45 111t-128 38h-211v63h217q109 0 173 -55.5t64 -156.5q0 -65 -30.5 -113t-83.5 -74t-123 -26h-214zM70 0v700h67v-700h-67zM520 0l-242 307l77 1l248 -308h-83zM263 784l-131 134h81q13 -14 31.5 -34t33 -35l14.5 -15v0
l14 15t32.5 35t31.5 34h81l-131 -134h-57z" />
    <glyph glyph-name="rcaron" unicode="&#x159;" horiz-adv-x="310" 
d="M122 500v-135l1 -17v-348h-65v500h64zM269 508h31v-68h-44q-59 0 -96 -47t-37 -121h-26q0 75 22 127.5t60.5 80.5t89.5 28zM152 584l-131 134h81q13 -14 31.5 -34t33 -35l14.5 -15v0l14 15t32.5 35t31.5 34h81l-131 -134h-57z" />
    <glyph glyph-name="Sacute" unicode="&#x15a;" horiz-adv-x="591" 
d="M305 -9q-82 0 -141.5 27t-95.5 76.5t-50 116.5l69 16q17 -82 73 -126.5t145 -44.5q85 0 135.5 32.5t50.5 87.5q0 31 -16 56t-52.5 44.5t-98.5 35.5l-100 26q-55 15 -94 40.5t-59 61t-20 79.5q0 56 30 99t84 67t125 24t124.5 -23t88.5 -68t49 -112l-65 -16
q-17 81 -69.5 117.5t-125.5 36.5q-75 0 -122.5 -32.5t-47.5 -85.5q0 -51 33 -78t101 -46l99 -27q70 -19 115.5 -47t68 -64.5t22.5 -80.5q0 -58 -31.5 -101t-89 -67t-135.5 -24zM246 784l86 134h74l-95 -134h-65z" />
    <glyph glyph-name="sacute" unicode="&#x15b;" horiz-adv-x="458" 
d="M233 -9q-49 0 -91.5 15t-73.5 49.5t-46 92.5l57 16q10 -41 33.5 -66t54.5 -36t65 -11q59 0 94 23t35 57t-30 52.5t-91 33.5l-51 13q-79 20 -113 57t-34 87q0 39 22.5 69t62.5 47.5t92 17.5q48 0 91 -17t73 -52t38 -90l-58 -12q-12 62 -52.5 86t-91.5 24q-47 0 -78 -20
t-31 -53q0 -25 16.5 -41.5t43 -27t56.5 -18.5l51 -13q78 -20 114.5 -53.5t36.5 -88.5q0 -40 -24 -72t-68 -50.5t-103 -18.5zM180 584l86 134h74l-95 -134h-65z" />
    <glyph glyph-name="Scircumflex" unicode="&#x15c;" horiz-adv-x="591" 
d="M305 -9q-82 0 -141.5 27t-95.5 76.5t-50 116.5l69 16q17 -82 73 -126.5t145 -44.5q85 0 135.5 32.5t50.5 87.5q0 31 -16 56t-52.5 44.5t-98.5 35.5l-100 26q-55 15 -94 40.5t-59 61t-20 79.5q0 56 30 99t84 67t125 24t124.5 -23t88.5 -68t49 -112l-65 -16
q-17 81 -69.5 117.5t-125.5 36.5q-75 0 -122.5 -32.5t-47.5 -85.5q0 -51 33 -78t101 -46l99 -27q70 -19 115.5 -47t68 -64.5t22.5 -80.5q0 -58 -31.5 -101t-89 -67t-135.5 -24zM134 784l131 134h57l131 -134h-81q-13 14 -31.5 34t-33 35l-14.5 15v0l-14 -15t-32.5 -35
t-31.5 -34h-81z" />
    <glyph glyph-name="scircumflex" unicode="&#x15d;" horiz-adv-x="458" 
d="M233 -9q-49 0 -91.5 15t-73.5 49.5t-46 92.5l57 16q10 -41 33.5 -66t54.5 -36t65 -11q59 0 94 23t35 57t-30 52.5t-91 33.5l-51 13q-79 20 -113 57t-34 87q0 39 22.5 69t62.5 47.5t92 17.5q48 0 91 -17t73 -52t38 -90l-58 -12q-12 62 -52.5 86t-91.5 24q-47 0 -78 -20
t-31 -53q0 -25 16.5 -41.5t43 -27t56.5 -18.5l51 -13q78 -20 114.5 -53.5t36.5 -88.5q0 -40 -24 -72t-68 -50.5t-103 -18.5zM68 584l131 134h57l131 -134h-81q-13 14 -31.5 34t-33 35l-14.5 15v0l-14 -15t-32.5 -35t-31.5 -34h-81z" />
    <glyph glyph-name="Scedilla" unicode="&#x15e;" horiz-adv-x="591" 
d="M305 -9q-82 0 -141.5 27t-95.5 76.5t-50 116.5l69 16q17 -82 73 -126.5t145 -44.5q85 0 135.5 32.5t50.5 87.5q0 31 -16 56t-52.5 44.5t-98.5 35.5l-100 26q-55 15 -94 40.5t-59 61t-20 79.5q0 56 30 99t84 67t125 24t124.5 -23t88.5 -68t49 -112l-65 -16
q-17 81 -69.5 117.5t-125.5 36.5q-75 0 -122.5 -32.5t-47.5 -85.5q0 -51 33 -78t101 -46l99 -27q70 -19 115.5 -47t68 -64.5t22.5 -80.5q0 -58 -31.5 -101t-89 -67t-135.5 -24zM244 -168v59h54q33 0 33 27q0 21 -22 43l-38 39l46 15l41 -38q20 -18 29 -37.5t9 -37.5
q0 -29 -23.5 -49.5t-70.5 -20.5h-58z" />
    <glyph glyph-name="scedilla" unicode="&#x15f;" horiz-adv-x="458" 
d="M233 -9q-49 0 -91.5 15t-73.5 49.5t-46 92.5l57 16q10 -41 33.5 -66t54.5 -36t65 -11q59 0 94 23t35 57t-30 52.5t-91 33.5l-51 13q-79 20 -113 57t-34 87q0 39 22.5 69t62.5 47.5t92 17.5q48 0 91 -17t73 -52t38 -90l-58 -12q-12 62 -52.5 86t-91.5 24q-47 0 -78 -20
t-31 -53q0 -25 16.5 -41.5t43 -27t56.5 -18.5l51 -13q78 -20 114.5 -53.5t36.5 -88.5q0 -40 -24 -72t-68 -50.5t-103 -18.5zM156 -168v59h54q33 0 33 27q0 21 -22 43l-38 39l46 15l41 -38q20 -18 29 -37.5t9 -37.5q0 -29 -23.5 -49.5t-70.5 -20.5h-58z" />
    <glyph glyph-name="Scaron" unicode="&#x160;" horiz-adv-x="591" 
d="M305 -9q-82 0 -141.5 27t-95.5 76.5t-50 116.5l69 16q17 -82 73 -126.5t145 -44.5q85 0 135.5 32.5t50.5 87.5q0 31 -16 56t-52.5 44.5t-98.5 35.5l-100 26q-55 15 -94 40.5t-59 61t-20 79.5q0 56 30 99t84 67t125 24t124.5 -23t88.5 -68t49 -112l-65 -16
q-17 81 -69.5 117.5t-125.5 36.5q-75 0 -122.5 -32.5t-47.5 -85.5q0 -51 33 -78t101 -46l99 -27q70 -19 115.5 -47t68 -64.5t22.5 -80.5q0 -58 -31.5 -101t-89 -67t-135.5 -24zM265 784l-131 134h81q13 -14 31.5 -34t33 -35l14.5 -15v0l14 15t32.5 35t31.5 34h81l-131 -134
h-57z" />
    <glyph glyph-name="scaron" unicode="&#x161;" horiz-adv-x="458" 
d="M233 -9q-49 0 -91.5 15t-73.5 49.5t-46 92.5l57 16q10 -41 33.5 -66t54.5 -36t65 -11q59 0 94 23t35 57t-30 52.5t-91 33.5l-51 13q-79 20 -113 57t-34 87q0 39 22.5 69t62.5 47.5t92 17.5q48 0 91 -17t73 -52t38 -90l-58 -12q-12 62 -52.5 86t-91.5 24q-47 0 -78 -20
t-31 -53q0 -25 16.5 -41.5t43 -27t56.5 -18.5l51 -13q78 -20 114.5 -53.5t36.5 -88.5q0 -40 -24 -72t-68 -50.5t-103 -18.5zM199 584l-131 134h81q13 -14 31.5 -34t33 -35l14.5 -15v0l14 15t32.5 35t31.5 34h81l-131 -134h-57z" />
    <glyph glyph-name="uni0162" unicode="&#x162;" horiz-adv-x="553" 
d="M310 670v-670h-67v670h67zM541 700v-64h-529v64h529zM216 -168v59h54q33 0 33 27q0 21 -22 43l-38 39l46 15l41 -38q20 -18 29 -37.5t9 -37.5q0 -29 -23.5 -49.5t-70.5 -20.5h-58z" />
    <glyph glyph-name="uni0163" unicode="&#x163;" horiz-adv-x="304" 
d="M235 0q-44 0 -73 17.5t-43 48t-14 68.5v482l65 48v-523q0 -39 16.5 -60.5t53.5 -21.5h50v-59h-55zM290 441h-280v59h280v-59zM116 -168v59h54q33 0 33 27q0 10 -5 21.5t-19 33.5l-38 61l55 -6l25 -35q22 -30 34.5 -51.5t12.5 -39.5q0 -29 -23.5 -49.5t-70.5 -20.5h-58z
" />
    <glyph glyph-name="Tcaron" unicode="&#x164;" horiz-adv-x="553" 
d="M310 670v-670h-67v670h67zM541 700v-64h-529v64h529zM249 784l-131 134h81q13 -14 31.5 -34t33 -35l14.5 -15v0l14 15t32.5 35t31.5 34h81l-131 -134h-57z" />
    <glyph glyph-name="tcaron" unicode="&#x165;" horiz-adv-x="304" 
d="M235 0q-44 0 -73 17.5t-43 48t-14 68.5v482l65 48v-523q0 -39 16.5 -60.5t53.5 -21.5h50v-59h-55zM290 441h-280v59h280v-59zM221 730h59v-87l-20 -101h-39v188z" />
    <glyph glyph-name="Tbar" unicode="&#x166;" horiz-adv-x="553" 
d="M452 363v-63h-351v63h351zM310 670v-670h-67v670h67zM541 700v-64h-529v64h529z" />
    <glyph glyph-name="tbar" unicode="&#x167;" horiz-adv-x="309" 
d="M294 296v-57h-280v57h280zM239 0q-44 0 -73 17.5t-43 48t-14 68.5v482l65 48v-523q0 -39 16.5 -60.5t53.5 -21.5h50v-59h-55zM294 441h-280v59h280v-59z" />
    <glyph glyph-name="Utilde" unicode="&#x168;" horiz-adv-x="679" 
d="M616 281q0 -96 -37 -160.5t-99.5 -96.5t-139.5 -32q-58 0 -108 18t-88 54t-59.5 90.5t-21.5 126.5v419h68v-414q0 -78 27 -129t74.5 -76t107.5 -25t107 25t74.5 76t27.5 129v414h67v-419zM401 789q-25 0 -42.5 9.5t-29.5 22.5t-22.5 22.5t-22.5 9.5t-21.5 -11.5
t-9.5 -46.5h-58q0 46 13.5 70.5t34.5 34.5t41 10q26 0 43 -9.5t29 -22.5t22.5 -22.5t22.5 -9.5t21.5 11.5t9.5 46.5h58q0 -45 -13.5 -70t-34 -35t-41.5 -10z" />
    <glyph glyph-name="utilde" unicode="&#x169;" horiz-adv-x="523" 
d="M262 -8q-60 0 -107.5 24t-74.5 71.5t-27 115.5v297h65v-291q0 -77 40.5 -116.5t103.5 -39.5q64 0 103.5 39.5t39.5 116.5v291h65v-297q0 -68 -27 -115.5t-73.5 -71.5t-107.5 -24zM323 589q-25 0 -42.5 9.5t-29.5 22.5t-22.5 22.5t-22.5 9.5t-21.5 -11.5t-9.5 -46.5h-58
q0 46 13.5 70.5t34.5 34.5t41 10q26 0 43 -9.5t29 -22.5t22.5 -22.5t22.5 -9.5t21.5 11.5t9.5 46.5h58q0 -45 -13.5 -70t-34 -35t-41.5 -10z" />
    <glyph glyph-name="Umacron" unicode="&#x16a;" horiz-adv-x="679" 
d="M616 281q0 -96 -37 -160.5t-99.5 -96.5t-139.5 -32q-58 0 -108 18t-88 54t-59.5 90.5t-21.5 126.5v419h68v-414q0 -78 27 -129t74.5 -76t107.5 -25t107 25t74.5 76t27.5 129v414h67v-419zM193 812v59h295v-59h-295z" />
    <glyph glyph-name="umacron" unicode="&#x16b;" horiz-adv-x="523" 
d="M262 -8q-60 0 -107.5 24t-74.5 71.5t-27 115.5v297h65v-291q0 -77 40.5 -116.5t103.5 -39.5q64 0 103.5 39.5t39.5 116.5v291h65v-297q0 -68 -27 -115.5t-73.5 -71.5t-107.5 -24zM115 612v59h295v-59h-295z" />
    <glyph glyph-name="Ubreve" unicode="&#x16c;" horiz-adv-x="679" 
d="M616 281q0 -96 -37 -160.5t-99.5 -96.5t-139.5 -32q-58 0 -108 18t-88 54t-59.5 90.5t-21.5 126.5v419h68v-414q0 -78 27 -129t74.5 -76t107.5 -25t107 25t74.5 76t27.5 129v414h67v-419zM340 780q-40 0 -73 16.5t-52.5 47.5t-19.5 74h61q0 -40 23.5 -61.5t60.5 -21.5
t60.5 21.5t23.5 61.5h61q0 -64 -42.5 -101t-102.5 -37z" />
    <glyph glyph-name="ubreve" unicode="&#x16d;" horiz-adv-x="523" 
d="M262 -8q-60 0 -107.5 24t-74.5 71.5t-27 115.5v297h65v-291q0 -77 40.5 -116.5t103.5 -39.5q64 0 103.5 39.5t39.5 116.5v291h65v-297q0 -68 -27 -115.5t-73.5 -71.5t-107.5 -24zM262 580q-40 0 -73 16.5t-52.5 47.5t-19.5 74h61q0 -40 23.5 -61.5t60.5 -21.5t60.5 21.5
t23.5 61.5h61q0 -64 -42.5 -101t-102.5 -37z" />
    <glyph glyph-name="Uring" unicode="&#x16e;" horiz-adv-x="679" 
d="M616 281q0 -96 -37 -160.5t-99.5 -96.5t-139.5 -32q-58 0 -108 18t-88 54t-59.5 90.5t-21.5 126.5v419h68v-414q0 -78 27 -129t74.5 -76t107.5 -25t107 25t74.5 76t27.5 129v414h67v-419zM341 755q-46 0 -79 27t-33 71t33 71.5t79 27.5q47 0 79 -27.5t32 -71.5t-32 -71
t-79 -27zM341 805q25 0 40.5 13t15.5 35t-15.5 35t-40.5 13t-40.5 -13t-15.5 -35t15.5 -35t40.5 -13z" />
    <glyph glyph-name="uring" unicode="&#x16f;" horiz-adv-x="523" 
d="M262 -8q-60 0 -107.5 24t-74.5 71.5t-27 115.5v297h65v-291q0 -77 40.5 -116.5t103.5 -39.5q64 0 103.5 39.5t39.5 116.5v291h65v-297q0 -68 -27 -115.5t-73.5 -71.5t-107.5 -24zM263 555q-46 0 -79 27t-33 71t33 71.5t79 27.5q47 0 79 -27.5t32 -71.5t-32 -71t-79 -27z
M263 605q25 0 40.5 13t15.5 35t-15.5 35t-40.5 13t-40.5 -13t-15.5 -35t15.5 -35t40.5 -13z" />
    <glyph glyph-name="Uhungarumlaut" unicode="&#x170;" horiz-adv-x="679" 
d="M616 281q0 -96 -37 -160.5t-99.5 -96.5t-139.5 -32q-58 0 -108 18t-88 54t-59.5 90.5t-21.5 126.5v419h68v-414q0 -78 27 -129t74.5 -76t107.5 -25t107 25t74.5 76t27.5 129v414h67v-419zM272 784h-65l86 134h74zM459 784h-65l86 134h74z" />
    <glyph glyph-name="uhungarumlaut" unicode="&#x171;" horiz-adv-x="523" 
d="M262 -8q-60 0 -107.5 24t-74.5 71.5t-27 115.5v297h65v-291q0 -77 40.5 -116.5t103.5 -39.5q64 0 103.5 39.5t39.5 116.5v291h65v-297q0 -68 -27 -115.5t-73.5 -71.5t-107.5 -24zM194 584h-65l86 134h74zM381 584h-65l86 134h74z" />
    <glyph glyph-name="Uogonek" unicode="&#x172;" horiz-adv-x="679" 
d="M616 281q0 -96 -37 -160.5t-99.5 -96.5t-139.5 -32q-58 0 -108 18t-88 54t-59.5 90.5t-21.5 126.5v419h68v-414q0 -78 27 -129t74.5 -76t107.5 -25t107 25t74.5 76t27.5 129v414h67v-419zM382 -168q-47 0 -70.5 20.5t-23.5 49.5q0 18 9.5 37.5t28.5 37.5l41 38l46 -15
l-38 -39q-22 -22 -22 -43q0 -27 33 -27h39v-59h-43z" />
    <glyph glyph-name="uogonek" unicode="&#x173;" horiz-adv-x="523" 
d="M262 -8q-60 0 -107.5 24t-74.5 71.5t-27 115.5v297h65v-291q0 -77 40.5 -116.5t103.5 -39.5q64 0 103.5 39.5t39.5 116.5v291h65v-297q0 -68 -27 -115.5t-73.5 -71.5t-107.5 -24zM296 -168q-47 0 -70.5 20.5t-23.5 49.5q0 18 9.5 37.5t28.5 37.5l41 38l46 -15l-38 -39
q-22 -22 -22 -43q0 -27 33 -27h39v-59h-43z" />
    <glyph glyph-name="Wcircumflex" unicode="&#x174;" horiz-adv-x="960" 
d="M228 -1l-218 701h70l153 -503q11 -34 19 -62l8 -28v0l4 13t10.5 33.5t13.5 42.5l161 505h63l161 -503q11 -34 19.5 -62l8.5 -28v0l4 13.5t10.5 34t12.5 42.5l154 502h68l-218 -701h-62l-162 505q-10 32 -19 60l-9 28v0l-8.5 -28t-19.5 -60l-162 -505h-62zM321 784
l131 134h57l131 -134h-81q-13 14 -31.5 34t-33 35l-14.5 15v0l-14 -15t-32.5 -35t-31.5 -34h-81z" />
    <glyph glyph-name="wcircumflex" unicode="&#x175;" horiz-adv-x="737" 
d="M500 183q11 -32 20 -59l9 -27v0l4 12.5t10 32.5t13 42l100 316h66l-164 -500h-57l-104 318q-10 32 -19.5 58.5l-9.5 26.5v0l-8 -26.5t-19 -58.5l-105 -318h-56l-165 500h68l100 -316q7 -22 13.5 -42t10.5 -32.5l4 -12.5v0l4 12.5t10.5 32.5t13.5 42l104 316h52zM210 584
l131 134h57l131 -134h-81q-13 14 -31.5 34t-33 35l-14.5 15v0l-14 -15t-32.5 -35t-31.5 -34h-81z" />
    <glyph glyph-name="Ycircumflex" unicode="&#x176;" horiz-adv-x="651" 
d="M326 300l-314 400h80l240 -297h-12l240 297h78zM292 0v392h67v-392h-67zM167 784l131 134h57l131 -134h-81q-13 14 -31.5 34t-33 35l-14.5 15v0l-14 -15t-32.5 -35t-31.5 -34h-81z" />
    <glyph glyph-name="ycircumflex" unicode="&#x177;" horiz-adv-x="495" 
d="M229 230q11 -22 20.5 -40.5l9.5 -18.5v0l9 18.5t20 40.5l136 270h72l-332 -663h-72l132 265l-208 398h74zM98 584l131 134h57l131 -134h-81q-13 14 -31.5 34t-33 35l-14.5 15v0l-14 -15t-32.5 -35t-31.5 -34h-81z" />
    <glyph glyph-name="Ydieresis" unicode="&#x178;" horiz-adv-x="651" 
d="M326 300l-314 400h80l240 -297h-12l240 297h78zM292 0v392h67v-392h-67zM216 796q-19 0 -32 12.5t-13 32.5t13 32.5t32 12.5q20 0 32.5 -12.5t12.5 -32.5t-12.5 -32.5t-32.5 -12.5zM436 796q-19 0 -32 12.5t-13 32.5t13 32.5t32 12.5q20 0 32.5 -12.5t12.5 -32.5
t-12.5 -32.5t-32.5 -12.5z" />
    <glyph glyph-name="Zacute" unicode="&#x179;" horiz-adv-x="546" 
d="M19 0v52l380 532q14 20 26 36.5l12 16.5v0h-20.5h-44.5h-346v63h498v-52l-380 -532q-14 -19 -26 -36l-12 -17v0h20.5h44.5h354v-63h-506zM227 784l86 134h74l-95 -134h-65z" />
    <glyph glyph-name="zacute" unicode="&#x17a;" horiz-adv-x="444" 
d="M149 112q-15 -19 -28 -36l-13 -17v0h21h46h246v-59h-401v47l268 341q16 20 29 36.5l13 16.5v0h-21h-47h-229v59h381v-48zM180 584l86 134h74l-95 -134h-65z" />
    <glyph glyph-name="Zdotaccent" unicode="&#x17b;" horiz-adv-x="546" 
d="M19 0v52l380 532q14 20 26 36.5l12 16.5v0h-20.5h-44.5h-346v63h498v-52l-380 -532q-14 -19 -26 -36l-12 -17v0h20.5h44.5h354v-63h-506zM273 796q-21 0 -35 14.5t-14 36.5q0 21 14 35.5t35 14.5q22 0 36.5 -14.5t14.5 -35.5q0 -22 -14.5 -36.5t-36.5 -14.5z" />
    <glyph glyph-name="zdotaccent" unicode="&#x17c;" horiz-adv-x="444" 
d="M149 112q-15 -19 -28 -36l-13 -17v0h21h46h246v-59h-401v47l268 341q16 20 29 36.5l13 16.5v0h-21h-47h-229v59h381v-48zM227 596q-21 0 -35 14.5t-14 36.5q0 21 14 35.5t35 14.5q22 0 36.5 -14.5t14.5 -35.5q0 -22 -14.5 -36.5t-36.5 -14.5z" />
    <glyph glyph-name="Zcaron" unicode="&#x17d;" horiz-adv-x="546" 
d="M19 0v52l380 532q14 20 26 36.5l12 16.5v0h-20.5h-44.5h-346v63h498v-52l-380 -532q-14 -19 -26 -36l-12 -17v0h20.5h44.5h354v-63h-506zM246 784l-131 134h81q13 -14 31.5 -34t33 -35l14.5 -15v0l14 15t32.5 35t31.5 34h81l-131 -134h-57z" />
    <glyph glyph-name="zcaron" unicode="&#x17e;" horiz-adv-x="444" 
d="M149 112q-15 -19 -28 -36l-13 -17v0h21h46h246v-59h-401v47l268 341q16 20 29 36.5l13 16.5v0h-21h-47h-229v59h381v-48zM199 584l-131 134h81q13 -14 31.5 -34t33 -35l14.5 -15v0l14 15t32.5 35t31.5 34h81l-131 -134h-57z" />
    <glyph glyph-name="longs" unicode="&#x17f;" horiz-adv-x="201" 
d="M58 571q0 57 32 95.5t99 38.5h54v-62h-49q-38 0 -54.5 -20.5t-16.5 -58.5v-564h-65v571z" />
    <glyph glyph-name="uni018F" unicode="&#x18f;" horiz-adv-x="737" 
d="M363 -8q-98 0 -172 42.5t-115 120.5t-41 185v10.5v10.5h630v-63h-586l26 53v-2.5v-3.5q0 -91 32 -156t90 -99t136 -34q56 0 105 20t86 58t57.5 92.5t20.5 123.5q0 92 -36.5 158t-99 101t-139.5 35q-85 0 -152 -45.5t-103 -137.5l-61 31q28 69 75 117.5t108.5 74
t131.5 25.5q99 0 177 -44t123.5 -124.5t45.5 -190.5q0 -82 -25.5 -148.5t-72 -113t-108 -71.5t-133.5 -25z" />
    <glyph glyph-name="florin" unicode="&#x192;" horiz-adv-x="650" 
d="M504 398v-56h-346v56h346zM456 707q19 0 37 -2.5t37 -7.5v-65q-18 5 -36 7.5t-36 2.5q-41 0 -56.5 -24.5t-20.5 -70.5l-37 -398q-4 -43 -19 -78t-44.5 -55.5t-78.5 -20.5q-19 0 -37 3t-37 7v65q18 -4 36 -7t36 -3q41 0 57 24.5t20 70.5l37 398q4 44 19 78.5t45 55
t78 20.5z" />
    <glyph glyph-name="Ohorn" unicode="&#x1a0;" horiz-adv-x="784" 
d="M384 -9q-102 0 -181 45.5t-123.5 126.5t-44.5 187q0 80 25.5 146t72 113.5t110.5 73.5t141 26q44 0 83 -8.5t73 -24.5l21 -21q80 -42 125.5 -121.5t45.5 -183.5q0 -80 -25.5 -146t-72 -113.5t-110 -73.5t-140.5 -26zM384 56q60 0 110.5 20t88.5 58.5t58.5 93t20.5 122.5
q0 91 -36 157t-99 101.5t-143 35.5q-60 0 -111 -20t-88.5 -58.5t-58.5 -93t-21 -122.5q0 -91 36.5 -157t99.5 -101.5t143 -35.5zM497 637l-50 63h182q28 0 43.5 15t15.5 49v32h67v-37q0 -63 -34.5 -92.5t-84.5 -29.5h-139z" />
    <glyph glyph-name="ohorn" unicode="&#x1a1;" horiz-adv-x="606" 
d="M281 -9q-71 0 -127 32.5t-88.5 91t-32.5 135.5q0 57 18.5 104.5t52 82t79 53t98.5 18.5q31 0 58.5 -6.5t52.5 -17.5l17 -20q55 -31 87.5 -86.5t32.5 -127.5q0 -58 -18.5 -105.5t-52 -82t-79 -53t-98.5 -18.5zM281 51q39 0 72.5 13.5t58 39.5t38 63t13.5 83
q0 61 -23.5 105.5t-64.5 68.5t-94 24q-39 0 -72.5 -13.5t-58 -39.5t-38 -62.5t-13.5 -82.5q0 -61 23.5 -106t65 -69t93.5 -24zM359 443l-20 57h134q28 0 43.5 15t15.5 49v32h65v-37q0 -60 -33.5 -88t-83.5 -28h-121z" />
    <glyph glyph-name="Uhorn" unicode="&#x1af;" horiz-adv-x="782" 
d="M783 759q0 -63 -34.5 -92.5t-84.5 -29.5h-49l-20 63h62q28 0 43.5 15t15.5 49v32h67v-37zM616 281q0 -96 -37 -160.5t-99.5 -96.5t-139.5 -32q-58 0 -108 18t-88 54t-59.5 90.5t-21.5 126.5v419h68v-414q0 -78 27 -129t74.5 -76t107.5 -25t107 25t74.5 76t27.5 129v414
h67v-419z" />
    <glyph glyph-name="uhorn" unicode="&#x1b0;" horiz-adv-x="605" 
d="M262 -8q-60 0 -107.5 24t-74.5 71.5t-27 115.5v297h65v-291q0 -77 40.5 -116.5t103.5 -39.5q64 0 103.5 39.5t39.5 116.5v291h65v-297q0 -68 -27 -115.5t-73.5 -71.5t-107.5 -24zM607 559q0 -60 -33.5 -88t-83.5 -28h-51l-20 57h64q28 0 43.5 15t15.5 49v32h65v-37z" />
    <glyph glyph-name="uni01C4" unicode="&#x1c4;" horiz-adv-x="1226" 
d="M315 700q110 0 190 -42.5t123.5 -121t43.5 -186.5t-43.5 -186.5t-123.5 -121t-190 -42.5h-201v63h200q94 0 158 35.5t97 100t33 151.5q0 88 -33 152t-97 99.5t-158 35.5h-203v63h204zM137 700v-700h-67v700h67zM699 0v52l380 532q14 20 26 36.5l12 16.5v0h-20.5h-44.5
h-346v63h498v-52l-380 -532q-14 -19 -26 -36l-12 -17v0h20.5h44.5h354v-63h-506zM926 784l-131 134h81q13 -14 31.5 -34t33 -35l14.5 -15v0l14 15t32.5 35t31.5 34h81l-131 -134h-57z" />
    <glyph glyph-name="uni01C5" unicode="&#x1c5;" horiz-adv-x="1152" 
d="M315 700q110 0 190 -42.5t123.5 -121t43.5 -186.5t-43.5 -186.5t-123.5 -121t-190 -42.5h-201v63h200q94 0 158 35.5t97 100t33 151.5q0 88 -33 152t-97 99.5t-158 35.5h-203v63h204zM137 700v-700h-67v700h67zM857 112q-15 -19 -28 -36l-13 -17v0h21h46h246v-59h-401v47
l268 341q16 20 29 36.5l13 16.5v0h-21h-47h-229v59h381v-48zM907 584l-131 134h81q13 -14 31.5 -34t33 -35l14.5 -15v0l14 15t32.5 35t31.5 34h81l-131 -134h-57z" />
    <glyph glyph-name="uni01C6" unicode="&#x1c6;" horiz-adv-x="1019" 
d="M268 -8q-66 0 -119 32t-84.5 90t-31.5 136q0 59 18 106.5t50 81.5t75 52t92 18q53 0 93.5 -21t68 -57t41.5 -82.5t14 -97.5v0q0 -51 -14 -97.5t-41.5 -82.5t-68 -57t-93.5 -21zM276 52q39 0 71.5 13.5t56.5 39.5t37 62.5t13 82.5q0 92 -50 145t-128 53q-39 0 -71.5 -13.5
t-56.5 -39.5t-37 -62.5t-13 -82.5q0 -92 50 -145t128 -53zM452 0v175l15 75l-15 66v384h65v-700h-65zM724 112q-15 -19 -28 -36l-13 -17v0h21h46h246v-59h-401v47l268 341q16 20 29 36.5l13 16.5v0h-21h-47h-229v59h381v-48zM774 584l-131 134h81q13 -14 31.5 -34t33 -35
l14.5 -15v0l14 15t32.5 35t31.5 34h81l-131 -134h-57z" />
    <glyph glyph-name="uni01C7" unicode="&#x1c7;" horiz-adv-x="1006" 
d="M137 64h363v-64h-430v700h67v-636zM734 -8q-76 0 -128 39.5t-78 96.5l54 34q18 -44 56.5 -75t93.5 -31q63 0 102.5 39t39.5 123v482h67v-487q0 -53 -15.5 -94.5t-43.5 -69.5t-66 -42.5t-82 -14.5z" />
    <glyph glyph-name="uni01C8" unicode="&#x1c8;" horiz-adv-x="693" 
d="M137 64h363v-64h-430v700h67v-636zM635 -41q0 -62 -29 -94.5t-81 -32.5h-23v61h17q25 0 38 17t13 52v538h65v-541zM602 616q-21 0 -35 14.5t-14 36.5q0 21 14 35.5t35 14.5q22 0 36.5 -14.5t14.5 -35.5q0 -22 -14.5 -36.5t-36.5 -14.5z" />
    <glyph glyph-name="uni01C9" unicode="&#x1c9;" horiz-adv-x="418" 
d="M183 0q-42 0 -69.5 17t-40.5 45.5t-13 64.5v573h65v-569q0 -34 14.5 -53t48.5 -19h44v-59h-49zM360 -41q0 -62 -29 -94.5t-81 -32.5h-23v61h17q25 0 38 17t13 52v538h65v-541zM327 616q-21 0 -35 14.5t-14 36.5q0 21 14 35.5t35 14.5q22 0 36.5 -14.5t14.5 -35.5
q0 -22 -14.5 -36.5t-36.5 -14.5z" />
    <glyph glyph-name="uni01CA" unicode="&#x1ca;" horiz-adv-x="1186" 
d="M565 700h67v-700h-57l-385 510q-19 26 -36 48.5l-17 22.5v0v-27.5v-61.5v-492h-67v700h57l385 -510q20 -26 36.5 -48.5l16.5 -22.5v0v27.5v61.5v492zM914 -8q-76 0 -128 39.5t-78 96.5l54 34q18 -44 56.5 -75t93.5 -31q63 0 102.5 39t39.5 123v482h67v-487
q0 -53 -15.5 -94.5t-43.5 -69.5t-66 -42.5t-82 -14.5z" />
    <glyph glyph-name="uni01CB" unicode="&#x1cb;" horiz-adv-x="883" 
d="M565 700h67v-700h-57l-385 510q-19 26 -36 48.5l-17 22.5v0v-27.5v-61.5v-492h-67v700h57l385 -510q20 -26 36.5 -48.5l16.5 -22.5v0v27.5v61.5v492zM825 -41q0 -62 -29 -94.5t-81 -32.5h-23v61h17q25 0 38 17t13 52v538h65v-541zM792 616q-21 0 -35 14.5t-14 36.5
q0 21 14 35.5t35 14.5q22 0 36.5 -14.5t14.5 -35.5q0 -22 -14.5 -36.5t-36.5 -14.5z" />
    <glyph glyph-name="uni01CC" unicode="&#x1cc;" horiz-adv-x="709" 
d="M283 508q56 0 99.5 -24.5t68 -69.5t24.5 -106v-308h-65v299q0 68 -37.5 108.5t-98.5 40.5q-67 0 -109 -40.5t-42 -108.5v-299h-65v500h65v-111l-10 9q24 58 71.5 84t98.5 26zM651 -41q0 -62 -29 -94.5t-81 -32.5h-23v61h17q25 0 38 17t13 52v538h65v-541zM618 616
q-21 0 -35 14.5t-14 36.5q0 21 14 35.5t35 14.5q22 0 36.5 -14.5t14.5 -35.5q0 -22 -14.5 -36.5t-36.5 -14.5z" />
    <glyph glyph-name="uni01CD" unicode="&#x1cd;" horiz-adv-x="637" 
d="M5 0l282 700h63l283 -700h-72l-214 542q-11 28 -20 50.5l-9 22.5v0l-9 -22.5t-20 -50.5l-214 -542h-70zM146 221l25 63h294l25 -63h-344zM291 784l-131 134h81q13 -14 31.5 -34t33 -35l14.5 -15v0l14 15t32.5 35t31.5 34h81l-131 -134h-57z" />
    <glyph glyph-name="uni01CE" unicode="&#x1ce;" horiz-adv-x="508" 
d="M390 0v97l3 14v80l-3 6v108q0 54 -21.5 85.5t-55 45t-70.5 13.5q-55 0 -94 -28.5t-51 -76.5l-56 18q16 69 71.5 107.5t129.5 38.5q40 0 77.5 -11t68 -34t48.5 -60.5t18 -90.5v-312h-65zM229 -9q-52 0 -98.5 17t-75.5 51.5t-29 84.5q0 51 29 85t75.5 51t97.5 17
q94 0 143 -41t49 -112v0q0 -71 -48.5 -112t-142.5 -41zM244 46q62 0 105 25t43 73t-43 73t-105 25t-106.5 -24t-44.5 -74q0 -49 44.5 -73.5t106.5 -24.5zM223 584l-131 134h81q13 -14 31.5 -34t33 -35l14.5 -15v0l14 15t32.5 35t31.5 34h81l-131 -134h-57z" />
    <glyph glyph-name="uni01CF" unicode="&#x1cf;" horiz-adv-x="207" 
d="M137 700v-700h-67v700h67zM75 784l-131 134h81q13 -14 31.5 -34t33 -35l14.5 -15v0l14 15t32.5 35t31.5 34h81l-131 -134h-57z" />
    <glyph glyph-name="uni01D0" unicode="&#x1d0;" horiz-adv-x="181" 
d="M123 500v-500h-65v500h65zM62 584l-131 134h81q13 -14 31.5 -34t33 -35l14.5 -15v0l14 15t32.5 35t31.5 34h81l-131 -134h-57z" />
    <glyph glyph-name="uni01D1" unicode="&#x1d1;" horiz-adv-x="767" 
d="M384 -9q-102 0 -181 45.5t-123.5 126.5t-44.5 187q0 80 25.5 146t72 113.5t110.5 73.5t141 26q103 0 181 -45.5t122.5 -126t44.5 -187.5q0 -80 -25.5 -146t-72 -113.5t-110 -73.5t-140.5 -26zM384 56q60 0 110.5 20t88.5 58.5t58.5 93t20.5 122.5q0 91 -36 157t-99 101.5
t-143 35.5q-60 0 -111 -20t-88.5 -58.5t-58.5 -93t-21 -122.5q0 -91 36.5 -157t99.5 -101.5t143 -35.5zM356 784l-131 134h81q13 -14 31.5 -34t33 -35l14.5 -15v0l14 15t32.5 35t31.5 34h81l-131 -134h-57z" />
    <glyph glyph-name="uni01D2" unicode="&#x1d2;" horiz-adv-x="562" 
d="M281 -9q-71 0 -127 32.5t-88.5 91t-32.5 135.5q0 57 18.5 104.5t52 82t79 53t98.5 18.5q71 0 127 -32.5t88.5 -90.5t32.5 -135q0 -58 -18.5 -105.5t-52 -82t-79 -53t-98.5 -18.5zM281 51q39 0 72.5 13.5t58 39.5t38 63t13.5 83q0 61 -23.5 105.5t-64.5 68.5t-94 24
q-39 0 -72.5 -13.5t-58 -39.5t-38 -62.5t-13.5 -82.5q0 -61 23.5 -106t65 -69t93.5 -24zM253 584l-131 134h81q13 -14 31.5 -34t33 -35l14.5 -15v0l14 15t32.5 35t31.5 34h81l-131 -134h-57z" />
    <glyph glyph-name="uni01D3" unicode="&#x1d3;" horiz-adv-x="679" 
d="M616 281q0 -96 -37 -160.5t-99.5 -96.5t-139.5 -32q-58 0 -108 18t-88 54t-59.5 90.5t-21.5 126.5v419h68v-414q0 -78 27 -129t74.5 -76t107.5 -25t107 25t74.5 76t27.5 129v414h67v-419zM312 784l-131 134h81q13 -14 31.5 -34t33 -35l14.5 -15v0l14 15t32.5 35t31.5 34
h81l-131 -134h-57z" />
    <glyph glyph-name="uni01D4" unicode="&#x1d4;" horiz-adv-x="523" 
d="M262 -8q-60 0 -107.5 24t-74.5 71.5t-27 115.5v297h65v-291q0 -77 40.5 -116.5t103.5 -39.5q64 0 103.5 39.5t39.5 116.5v291h65v-297q0 -68 -27 -115.5t-73.5 -71.5t-107.5 -24zM234 584l-131 134h81q13 -14 31.5 -34t33 -35l14.5 -15v0l14 15t32.5 35t31.5 34h81
l-131 -134h-57z" />
    <glyph glyph-name="uni01D5" unicode="&#x1d5;" horiz-adv-x="679" 
d="M616 281q0 -96 -37 -160.5t-99.5 -96.5t-139.5 -32q-58 0 -108 18t-88 54t-59.5 90.5t-21.5 126.5v419h68v-414q0 -78 27 -129t74.5 -76t107.5 -25t107 25t74.5 76t27.5 129v414h67v-419zM230 756q-19 0 -32 12.5t-13 32.5t13 32.5t32 12.5q20 0 32.5 -12.5t12.5 -32.5
t-12.5 -32.5t-32.5 -12.5zM450 756q-19 0 -32 12.5t-13 32.5t13 32.5t32 12.5q20 0 32.5 -12.5t12.5 -32.5t-12.5 -32.5t-32.5 -12.5zM193 899v59h295v-59h-295z" />
    <glyph glyph-name="uni01D6" unicode="&#x1d6;" horiz-adv-x="523" 
d="M262 -8q-60 0 -107.5 24t-74.5 71.5t-27 115.5v297h65v-291q0 -77 40.5 -116.5t103.5 -39.5q64 0 103.5 39.5t39.5 116.5v291h65v-297q0 -68 -27 -115.5t-73.5 -71.5t-107.5 -24zM152 556q-19 0 -32 12.5t-13 32.5t13 32.5t32 12.5q20 0 32.5 -12.5t12.5 -32.5
t-12.5 -32.5t-32.5 -12.5zM372 556q-19 0 -32 12.5t-13 32.5t13 32.5t32 12.5q20 0 32.5 -12.5t12.5 -32.5t-12.5 -32.5t-32.5 -12.5zM115 699v59h295v-59h-295z" />
    <glyph glyph-name="uni01D7" unicode="&#x1d7;" horiz-adv-x="679" 
d="M616 281q0 -96 -37 -160.5t-99.5 -96.5t-139.5 -32q-58 0 -108 18t-88 54t-59.5 90.5t-21.5 126.5v419h68v-414q0 -78 27 -129t74.5 -76t107.5 -25t107 25t74.5 76t27.5 129v414h67v-419zM297 893l60 93h74l-69 -93h-65zM230 756q-19 0 -32 12.5t-13 32.5t13 32.5
t32 12.5q20 0 32.5 -12.5t12.5 -32.5t-12.5 -32.5t-32.5 -12.5zM450 756q-19 0 -32 12.5t-13 32.5t13 32.5t32 12.5q20 0 32.5 -12.5t12.5 -32.5t-12.5 -32.5t-32.5 -12.5z" />
    <glyph glyph-name="uni01D8" unicode="&#x1d8;" horiz-adv-x="523" 
d="M262 -8q-60 0 -107.5 24t-74.5 71.5t-27 115.5v297h65v-291q0 -77 40.5 -116.5t103.5 -39.5q64 0 103.5 39.5t39.5 116.5v291h65v-297q0 -68 -27 -115.5t-73.5 -71.5t-107.5 -24zM219 693l60 93h74l-69 -93h-65zM152 556q-19 0 -32 12.5t-13 32.5t13 32.5t32 12.5
q20 0 32.5 -12.5t12.5 -32.5t-12.5 -32.5t-32.5 -12.5zM372 556q-19 0 -32 12.5t-13 32.5t13 32.5t32 12.5q20 0 32.5 -12.5t12.5 -32.5t-12.5 -32.5t-32.5 -12.5z" />
    <glyph glyph-name="uni01D9" unicode="&#x1d9;" horiz-adv-x="679" 
d="M616 281q0 -96 -37 -160.5t-99.5 -96.5t-139.5 -32q-58 0 -108 18t-88 54t-59.5 90.5t-21.5 126.5v419h68v-414q0 -78 27 -129t74.5 -76t107.5 -25t107 25t74.5 76t27.5 129v414h67v-419zM312 893l-131 104h84q13 -9 30.5 -22.5t31.5 -24l14 -10.5v0l13.5 10.5t31.5 24
l30 22.5h84l-131 -104h-57zM230 756q-19 0 -32 12.5t-13 32.5t13 32.5t32 12.5q20 0 32.5 -12.5t12.5 -32.5t-12.5 -32.5t-32.5 -12.5zM450 756q-19 0 -32 12.5t-13 32.5t13 32.5t32 12.5q20 0 32.5 -12.5t12.5 -32.5t-12.5 -32.5t-32.5 -12.5z" />
    <glyph glyph-name="uni01DA" unicode="&#x1da;" horiz-adv-x="523" 
d="M262 -8q-60 0 -107.5 24t-74.5 71.5t-27 115.5v297h65v-291q0 -77 40.5 -116.5t103.5 -39.5q64 0 103.5 39.5t39.5 116.5v291h65v-297q0 -68 -27 -115.5t-73.5 -71.5t-107.5 -24zM234 693l-131 104h84q13 -9 30.5 -22.5t31.5 -24l14 -10.5v0l13.5 10.5t31.5 24l30 22.5
h84l-131 -104h-57zM152 556q-19 0 -32 12.5t-13 32.5t13 32.5t32 12.5q20 0 32.5 -12.5t12.5 -32.5t-12.5 -32.5t-32.5 -12.5zM372 556q-19 0 -32 12.5t-13 32.5t13 32.5t32 12.5q20 0 32.5 -12.5t12.5 -32.5t-12.5 -32.5t-32.5 -12.5z" />
    <glyph glyph-name="uni01DB" unicode="&#x1db;" horiz-adv-x="679" 
d="M616 281q0 -96 -37 -160.5t-99.5 -96.5t-139.5 -32q-58 0 -108 18t-88 54t-59.5 90.5t-21.5 126.5v419h68v-414q0 -78 27 -129t74.5 -76t107.5 -25t107 25t74.5 76t27.5 129v414h67v-419zM328 893l-69 93h74l60 -93h-65zM230 756q-19 0 -32 12.5t-13 32.5t13 32.5
t32 12.5q20 0 32.5 -12.5t12.5 -32.5t-12.5 -32.5t-32.5 -12.5zM450 756q-19 0 -32 12.5t-13 32.5t13 32.5t32 12.5q20 0 32.5 -12.5t12.5 -32.5t-12.5 -32.5t-32.5 -12.5z" />
    <glyph glyph-name="uni01DC" unicode="&#x1dc;" horiz-adv-x="523" 
d="M262 -8q-60 0 -107.5 24t-74.5 71.5t-27 115.5v297h65v-291q0 -77 40.5 -116.5t103.5 -39.5q64 0 103.5 39.5t39.5 116.5v291h65v-297q0 -68 -27 -115.5t-73.5 -71.5t-107.5 -24zM250 693l-69 93h74l60 -93h-65zM152 556q-19 0 -32 12.5t-13 32.5t13 32.5t32 12.5
q20 0 32.5 -12.5t12.5 -32.5t-12.5 -32.5t-32.5 -12.5zM372 556q-19 0 -32 12.5t-13 32.5t13 32.5t32 12.5q20 0 32.5 -12.5t12.5 -32.5t-12.5 -32.5t-32.5 -12.5z" />
    <glyph glyph-name="uni01E2" unicode="&#x1e2;" horiz-adv-x="968" 
d="M934 700v-63h-370v-253h331v-63h-331v-258h370v-63h-437v201h-288l-143 -201h-79l501 700h446zM497 516v44v34.5v13.5v0l-8 -11t-20 -28t-25 -36l-153 -216q-14 -20 -26 -36.5l-12 -16.5v0h20.5h44.5h179v252zM559 812v59h295v-59h-295z" />
    <glyph glyph-name="uni01E3" unicode="&#x1e3;" horiz-adv-x="884" 
d="M623 -9q-64 0 -115 32.5t-80.5 91t-29.5 135.5q0 60 17 107.5t47.5 81t72 51.5t90.5 18q65 0 116 -31t80.5 -87.5t29.5 -132.5v-11t-1 -10h-423v55h384l-28 -46v4v4q0 66 -21 109t-56.5 64.5t-81.5 21.5q-38 0 -69 -13.5t-53.5 -39.5t-34.5 -62.5t-12 -82.5
q0 -63 23 -107.5t61.5 -68t86.5 -23.5q36 0 67 11.5t56.5 37t42.5 68.5l56 -26q-24 -57 -60 -90t-78.5 -47t-86.5 -14zM238 -9q-58 0 -106 17t-77 51.5t-29 84.5q0 51 29 85t75.5 51t97.5 17q94 0 143 -41t49 -112h24q0 -46 -26.5 -80.5t-72.5 -53.5t-107 -19zM244 46
q62 0 105 25t43 73t-43 73t-105 25q-41 0 -75.5 -11t-55 -32.5t-20.5 -54.5q0 -49 44.5 -73.5t106.5 -24.5zM390 305q0 54 -21.5 85.5t-55 45t-70.5 13.5q-55 0 -94 -28.5t-51 -76.5l-56 18q16 69 71.5 107.5t129.5 38.5q52 0 98.5 -19.5t76 -62.5t29.5 -114l-57 -115v108z
M283 612v59h295v-59h-295z" />
    <glyph glyph-name="Gcaron" unicode="&#x1e6;" horiz-adv-x="735" 
d="M375 -8q-72 0 -133.5 25t-108 71.5t-72 113t-25.5 148.5q0 83 26 149t72 113t108.5 72t135.5 25q67 0 126 -22.5t106.5 -69.5t77.5 -119l-61 -30q-36 88 -100.5 132t-149.5 44q-57 0 -106 -20t-86.5 -58t-58 -92.5t-20.5 -123.5q0 -92 36 -158t97 -101t136 -35
q78 0 135.5 34t89.5 97.5t33 152.5l26 -42h-284v63h328v-10.5v-10.5q0 -107 -41 -185t-114.5 -120.5t-172.5 -42.5zM347 784l-131 134h81q13 -14 31.5 -34t33 -35l14.5 -15v0l14 15t32.5 35t31.5 34h81l-131 -134h-57z" />
    <glyph glyph-name="gcaron" unicode="&#x1e7;" horiz-adv-x="526" 
d="M271 -172q-87 0 -142 18t-81 48.5t-26 67.5q0 32 22.5 59t64.5 40q-36 11 -56 30.5t-20 47.5q0 38 29 62t81 31q-37 20 -58 51.5t-21 71.5q0 44 26.5 78.5t73 54.5t105.5 20q63 0 118 1.5t103 24.5l21 -56q-31 -13 -56.5 -18.5t-50.5 -6.5q32 -16 50.5 -43.5t18.5 -60.5
q0 -44 -26.5 -78t-74 -53.5t-110.5 -19.5q-38 0 -68.5 -2t-51.5 -7.5t-32 -15.5t-11 -27q0 -19 19 -29t53 -13.5t79 -3.5h26q88 0 141 -18.5t76.5 -50t23.5 -69.5q0 -28 -14.5 -52t-44 -42.5t-76 -29t-111.5 -10.5zM271 -114q100 0 140 20.5t40 56.5q0 37 -40 57t-140 20
q-66 0 -106.5 -9.5t-58.5 -27t-18 -40.5q0 -34 41.5 -55.5t141.5 -21.5zM269 254q39 0 70.5 11t50 33t18.5 54q0 48 -40 73t-99 25q-39 0 -70.5 -11t-50 -32.5t-18.5 -54.5q0 -49 40.5 -73.5t98.5 -24.5zM241 584l-131 134h81q13 -14 31.5 -34t33 -35l14.5 -15v0l14 15
t32.5 35t31.5 34h81l-131 -134h-57z" />
    <glyph glyph-name="uni01F1" unicode="&#x1f1;" horiz-adv-x="1226" 
d="M315 700q110 0 190 -42.5t123.5 -121t43.5 -186.5t-43.5 -186.5t-123.5 -121t-190 -42.5h-201v63h200q94 0 158 35.5t97 100t33 151.5q0 88 -33 152t-97 99.5t-158 35.5h-203v63h204zM137 700v-700h-67v700h67zM699 0v52l380 532q14 20 26 36.5l12 16.5v0h-20.5h-44.5
h-346v63h498v-52l-380 -532q-14 -19 -26 -36l-12 -17v0h20.5h44.5h354v-63h-506z" />
    <glyph glyph-name="uni01F2" unicode="&#x1f2;" horiz-adv-x="1152" 
d="M315 700q110 0 190 -42.5t123.5 -121t43.5 -186.5t-43.5 -186.5t-123.5 -121t-190 -42.5h-201v63h200q94 0 158 35.5t97 100t33 151.5q0 88 -33 152t-97 99.5t-158 35.5h-203v63h204zM137 700v-700h-67v700h67zM857 112q-15 -19 -28 -36l-13 -17v0h21h46h246v-59h-401v47
l268 341q16 20 29 36.5l13 16.5v0h-21h-47h-229v59h381v-48z" />
    <glyph glyph-name="uni01F3" unicode="&#x1f3;" horiz-adv-x="1019" 
d="M268 -8q-66 0 -119 32t-84.5 90t-31.5 136q0 59 18 106.5t50 81.5t75 52t92 18q53 0 93.5 -21t68 -57t41.5 -82.5t14 -97.5v0q0 -51 -14 -97.5t-41.5 -82.5t-68 -57t-93.5 -21zM276 52q39 0 71.5 13.5t56.5 39.5t37 62.5t13 82.5q0 92 -50 145t-128 53q-39 0 -71.5 -13.5
t-56.5 -39.5t-37 -62.5t-13 -82.5q0 -92 50 -145t128 -53zM452 0v175l15 75l-15 66v384h65v-700h-65zM724 112q-15 -19 -28 -36l-13 -17v0h21h46h246v-59h-401v47l268 341q16 20 29 36.5l13 16.5v0h-21h-47h-229v59h381v-48z" />
    <glyph glyph-name="uni0218" unicode="&#x218;" horiz-adv-x="591" 
d="M305 -9q-82 0 -141.5 27t-95.5 76.5t-50 116.5l69 16q17 -82 73 -126.5t145 -44.5q85 0 135.5 32.5t50.5 87.5q0 31 -16 56t-52.5 44.5t-98.5 35.5l-100 26q-55 15 -94 40.5t-59 61t-20 79.5q0 56 30 99t84 67t125 24t124.5 -23t88.5 -68t49 -112l-65 -16
q-17 81 -69.5 117.5t-125.5 36.5q-75 0 -122.5 -32.5t-47.5 -85.5q0 -51 33 -78t101 -46l99 -27q70 -19 115.5 -47t68 -64.5t22.5 -80.5q0 -58 -31.5 -101t-89 -67t-135.5 -24zM299 -200l-38 23l45 70l-4 -27q-21 -1 -34 12t-13 30q0 19 14 32t35 13q22 0 36.5 -13t14.5 -32
q0 -9 -3 -18.5t-15 -29.5z" />
    <glyph glyph-name="uni0219" unicode="&#x219;" horiz-adv-x="458" 
d="M233 -9q-49 0 -91.5 15t-73.5 49.5t-46 92.5l57 16q10 -41 33.5 -66t54.5 -36t65 -11q59 0 94 23t35 57t-30 52.5t-91 33.5l-51 13q-79 20 -113 57t-34 87q0 39 22.5 69t62.5 47.5t92 17.5q48 0 91 -17t73 -52t38 -90l-58 -12q-12 62 -52.5 86t-91.5 24q-47 0 -78 -20
t-31 -53q0 -25 16.5 -41.5t43 -27t56.5 -18.5l51 -13q78 -20 114.5 -53.5t36.5 -88.5q0 -40 -24 -72t-68 -50.5t-103 -18.5zM211 -200l-38 23l45 70l-4 -27q-21 -1 -34 12t-13 30q0 19 14 32t35 13q22 0 36.5 -13t14.5 -32q0 -9 -3 -18.5t-15 -29.5z" />
    <glyph glyph-name="uni021A" unicode="&#x21a;" horiz-adv-x="553" 
d="M310 670v-670h-67v670h67zM541 700v-64h-529v64h529zM271 -200l-38 23l45 70l-4 -27q-21 -1 -34 12t-13 30q0 19 14 32t35 13q22 0 36.5 -13t14.5 -32q0 -9 -3 -18.5t-15 -29.5z" />
    <glyph glyph-name="uni021B" unicode="&#x21b;" horiz-adv-x="304" 
d="M235 0q-44 0 -73 17.5t-43 48t-14 68.5v482l65 48v-523q0 -39 16.5 -60.5t53.5 -21.5h50v-59h-55zM290 441h-280v59h280v-59zM196 -200l-38 23l45 70l-4 -27q-21 -1 -34 12t-13 30q0 19 14 32t35 13q22 0 36.5 -13t14.5 -32q0 -9 -3 -18.5t-15 -29.5z" />
    <glyph glyph-name="uni0232" unicode="&#x232;" horiz-adv-x="651" 
d="M326 300l-314 400h80l240 -297h-12l240 297h78zM292 0v392h67v-392h-67zM179 812v59h295v-59h-295z" />
    <glyph glyph-name="uni0233" unicode="&#x233;" horiz-adv-x="495" 
d="M229 230q11 -22 20.5 -40.5l9.5 -18.5v0l9 18.5t20 40.5l136 270h72l-332 -663h-72l132 265l-208 398h74zM110 612v59h295v-59h-295z" />
    <glyph glyph-name="uni0237" unicode="&#x237;" horiz-adv-x="181" 
d="M123 -41q0 -62 -29 -94.5t-81 -32.5h-23v61h17q25 0 38 17t13 52v538h65v-541z" />
    <glyph glyph-name="uni0259" unicode="&#x259;" horiz-adv-x="528" 
d="M261 509q67 0 120 -32.5t83.5 -91t30.5 -135.5q0 -60 -17.5 -107.5t-49.5 -81t-75 -51.5t-94 -18q-65 0 -116 31t-80.5 87.5t-29.5 132.5v11t1 10h423v-55h-384l28 45v-4v-3q0 -98 45.5 -146.5t113.5 -48.5q38 0 69 13.5t53.5 39.5t34.5 62.5t12 82.5q0 63 -23 107.5
t-61.5 68t-86.5 23.5q-36 0 -67 -11.5t-56.5 -37t-42.5 -68.5l-56 26q24 57 60 90t78.5 47t86.5 14z" />
    <glyph glyph-name="uni02BB" unicode="&#x2bb;" horiz-adv-x="177" 
d="M102 709l42 -17l-62 -150l-9 29q25 2 41.5 -13t16.5 -39q0 -22 -14 -36t-35 -14q-22 0 -36.5 14.5t-14.5 36.5q0 15 4 27t13 33z" />
    <glyph glyph-name="uni02BC" unicode="&#x2bc;" horiz-adv-x="175" 
d="M78 469l-42 17l62 150l9 -29q-25 -2 -41.5 13t-16.5 39q0 22 14 36t35 14q22 0 36.5 -14t14.5 -37q0 -15 -4 -27t-13 -33z" />
    <glyph glyph-name="uni02BE" unicode="&#x2be;" horiz-adv-x="232" 
d="M47 448q37 0 63.5 29.5t26.5 70.5q0 42 -26.5 71t-63.5 29v57q41 0 75 -21.5t54.5 -57t20.5 -78.5t-20.5 -78.5t-54.5 -56.5t-75 -21v56z" />
    <glyph glyph-name="uni02BF" unicode="&#x2bf;" horiz-adv-x="213" 
d="M186 649q-37 0 -63.5 -29.5t-26.5 -70.5q0 -42 26.5 -71t63.5 -29v-57q-41 0 -75 21.5t-54.5 57t-20.5 78.5t20.5 78.5t54.5 56.5t75 21v-56z" />
    <glyph glyph-name="circumflex" unicode="&#x2c6;" horiz-adv-x="416" 
d="M237 718l131 -134h-81q-13 14 -31.5 34t-33 35l-14.5 15v0l-14 -15t-32.5 -35t-31.5 -34h-81l131 134h57z" />
    <glyph glyph-name="caron" unicode="&#x2c7;" horiz-adv-x="419" 
d="M181 584l-131 134h81q13 -14 31.5 -34t33 -35l14.5 -15v0l14 15t32.5 35t31.5 34h81l-131 -134h-57z" />
    <glyph glyph-name="breve" unicode="&#x2d8;" horiz-adv-x="390" 
d="M195 580q-40 0 -73 16.5t-52.5 47.5t-19.5 74h61q0 -40 23.5 -61.5t60.5 -21.5t60.5 21.5t23.5 61.5h61q0 -64 -42.5 -101t-102.5 -37z" />
    <glyph glyph-name="dotaccent" unicode="&#x2d9;" horiz-adv-x="200" 
d="M99 616q-21 0 -35 14.5t-14 36.5q0 21 14 35.5t35 14.5q22 0 36.5 -14.5t14.5 -35.5q0 -22 -14.5 -36.5t-36.5 -14.5z" />
    <glyph glyph-name="ring" unicode="&#x2da;" horiz-adv-x="323" 
d="M162 555q-46 0 -79 27t-33 71t33 71.5t79 27.5q47 0 79 -27.5t32 -71.5t-32 -71t-79 -27zM162 605q25 0 40.5 13t15.5 35t-15.5 35t-40.5 13t-40.5 -13t-15.5 -35t15.5 -35t40.5 -13z" />
    <glyph glyph-name="ogonek" unicode="&#x2db;" horiz-adv-x="237" 
d="M144 -168q-47 0 -70.5 20.5t-23.5 49.5q0 18 9.5 37.5t28.5 37.5l41 38l46 -15l-38 -39q-22 -22 -22 -43q0 -27 33 -27h39v-59h-43z" />
    <glyph glyph-name="tilde" unicode="&#x2dc;" horiz-adv-x="416" 
d="M267 589q-25 0 -42.5 9.5t-29.5 22.5t-22.5 22.5t-22.5 9.5t-21.5 -11.5t-9.5 -46.5h-58q0 46 13.5 70.5t34.5 34.5t41 10q26 0 43 -9.5t29 -22.5t22.5 -22.5t22.5 -9.5t21.5 11.5t9.5 46.5h58q0 -45 -13.5 -70t-34 -35t-41.5 -10z" />
    <glyph glyph-name="hungarumlaut" unicode="&#x2dd;" horiz-adv-x="416" 
d="M222 584l86 134h74l-95 -134h-65zM34 584l86 134h74l-95 -134h-65z" />
    <glyph glyph-name="gravecomb" unicode="&#x300;" 
d="M-115 584l-95 134h74l86 -134h-65z" />
    <glyph glyph-name="acutecomb" unicode="&#x301;" 
d="M-210 584l86 134h74l-95 -134h-65z" />
    <glyph glyph-name="uni0302" unicode="&#x302;" 
d="M-369 584l131 134h57l131 -134h-81q-13 14 -31.5 34t-33 35l-14.5 15v0l-14 -15t-32.5 -35t-31.5 -34h-81z" />
    <glyph glyph-name="tildecomb" unicode="&#x303;" 
d="M-139 589q-25 0 -42.5 9.5t-29.5 22.5t-22.5 22.5t-22.5 9.5t-21.5 -11.5t-9.5 -46.5h-58q0 46 13.5 70.5t34.5 34.5t41 10q26 0 43 -9.5t29 -22.5t22.5 -22.5t22.5 -9.5t21.5 11.5t9.5 46.5h58q0 -45 -13.5 -70t-34 -35t-41.5 -10z" />
    <glyph glyph-name="uni0304" unicode="&#x304;" 
d="M-345 612v59h295v-59h-295z" />
    <glyph glyph-name="uni0306" unicode="&#x306;" 
d="M-195 580q-40 0 -73 16.5t-52.5 47.5t-19.5 74h61q0 -40 23.5 -61.5t60.5 -21.5t60.5 21.5t23.5 61.5h61q0 -64 -42.5 -101t-102.5 -37z" />
    <glyph glyph-name="uni0307" unicode="&#x307;" 
d="M-95 616q-21 0 -35 14.5t-14 36.5q0 21 14 35.5t35 14.5q22 0 36.5 -14.5t14.5 -35.5q0 -22 -14.5 -36.5t-36.5 -14.5z" />
    <glyph glyph-name="uni0308" unicode="&#x308;" 
d="M-315 596q-19 0 -32 12.5t-13 32.5t13 32.5t32 12.5q20 0 32.5 -12.5t12.5 -32.5t-12.5 -32.5t-32.5 -12.5zM-95 596q-19 0 -32 12.5t-13 32.5t13 32.5t32 12.5q20 0 32.5 -12.5t12.5 -32.5t-12.5 -32.5t-32.5 -12.5z" />
    <glyph glyph-name="hookabovecomb" unicode="&#x309;" 
d="M-147 565q19 25 28 42.5t9 27.5q0 12 -7 18.5t-20 6.5t-22.5 -8.5t-17.5 -21.5l-44 26q11 28 34.5 43.5t52.5 15.5q39 0 61.5 -21t22.5 -51q0 -22 -10.5 -42t-24.5 -36h-62z" />
    <glyph glyph-name="uni030A" unicode="&#x30a;" 
d="M-161 555q-46 0 -79 27t-33 71t33 71.5t79 27.5q47 0 79 -27.5t32 -71.5t-32 -71t-79 -27zM-161 605q25 0 40.5 13t15.5 35t-15.5 35t-40.5 13t-40.5 -13t-15.5 -35t15.5 -35t40.5 -13z" />
    <glyph glyph-name="uni030B" unicode="&#x30b;" 
d="M-332 584h-65l86 134h74zM-145 584h-65l86 134h74z" />
    <glyph glyph-name="uni030C" unicode="&#x30c;" 
d="M-238 584l-131 134h81q13 -14 31.5 -34t33 -35l14.5 -15v0l14 15t32.5 35t31.5 34h81l-131 -134h-57z" />
    <glyph glyph-name="uni0312" unicode="&#x312;" 
d="M-88 748l38 -23l-57 -89l4 27q21 1 34 -12t13 -30q0 -19 -14 -32t-35 -13q-22 0 -36.5 13t-14.5 32q0 9 3 19t15 29z" />
    <glyph glyph-name="uni031B" unicode="&#x31b;" 
d="M-50 559q0 -60 -33.5 -88t-83.5 -28h-51l-20 57h64q28 0 43.5 15t15.5 49v32h65v-37z" />
    <glyph glyph-name="dotbelowcomb" unicode="&#x323;" 
d="M-101 -156q-21 0 -35 14.5t-14 36.5q0 21 14 35.5t35 14.5q22 0 36.5 -14.5t14.5 -35.5q0 -22 -14.5 -36.5t-36.5 -14.5z" />
    <glyph glyph-name="uni0326" unicode="&#x326;" 
d="M-106 -200l-38 23l45 70l-4 -27q-21 -1 -34 12t-13 30q0 19 14 32t35 13q22 0 36.5 -13t14.5 -32q0 -9 -3 -18.5t-15 -29.5z" />
    <glyph glyph-name="uni0327" unicode="&#x327;" 
d="M-202 -168v59h54q33 0 33 27q0 21 -22 43l-38 39l46 15l41 -38q20 -18 29 -37.5t9 -37.5q0 -29 -23.5 -49.5t-70.5 -20.5h-58z" />
    <glyph glyph-name="uni0328" unicode="&#x328;" 
d="M-93 -168q-47 0 -70.5 20.5t-23.5 49.5q0 18 9.5 37.5t28.5 37.5l41 38l46 -15l-38 -39q-22 -22 -22 -43q0 -27 33 -27h39v-59h-43z" />
    <glyph glyph-name="uni032E" unicode="&#x32e;" 
d="M-195 -169q-40 0 -73 16.5t-52.5 47.5t-19.5 74h61q0 -40 23.5 -61.5t60.5 -21.5t60.5 21.5t23.5 61.5h61q0 -64 -42.5 -101t-102.5 -37z" />
    <glyph glyph-name="uni0331" unicode="&#x331;" 
d="M-344 -134v59h295v-59h-295z" />
    <glyph glyph-name="uni037E" unicode="&#x37e;" horiz-adv-x="225" 
d="M112 407q-21 0 -35 14.5t-14 36.5q0 21 14 35.5t35 14.5q22 0 36.5 -14.5t14.5 -35.5q0 -22 -14.5 -36.5t-36.5 -14.5zM95 -148l-42 17l62 150l9 -29q-25 -2 -41.5 13t-16.5 39q0 22 14 36t35 14q22 0 36.5 -14t14.5 -37q0 -15 -4 -27t-13 -33z" />
    <glyph glyph-name="tonos" unicode="&#x384;" horiz-adv-x="558" 
d="M249 584h-54l40 134h66z" />
    <glyph glyph-name="dieresistonos" unicode="&#x385;" horiz-adv-x="558" 
d="M333 584l16 134h64l-28 -134h-52zM270 616q-19 0 -32 12.5t-13 32.5t13 32.5t32 12.5q20 0 32.5 -12.5t12.5 -32.5t-12.5 -32.5t-32.5 -12.5zM472 616q-19 0 -32 12.5t-13 32.5t13 32.5t32 12.5q20 0 32.5 -12.5t12.5 -32.5t-12.5 -32.5t-32.5 -12.5z" />
    <glyph glyph-name="Alphatonos" unicode="&#x386;" horiz-adv-x="652" 
d="M20 0l282 700h63l283 -700h-72l-214 542q-11 28 -20 50.5l-9 22.5v0l-9 -22.5t-20 -50.5l-214 -542h-70zM161 221l25 63h294l25 -63h-344zM100 506h-54l36 194h66z" />
    <glyph glyph-name="anoteleia" unicode="&#x387;" horiz-adv-x="404" 
d="M201 407q-21 0 -35 14.5t-14 36.5q0 21 14 35.5t35 14.5q22 0 36.5 -14.5t14.5 -35.5q0 -22 -14.5 -36.5t-36.5 -14.5z" />
    <glyph glyph-name="Epsilontonos" unicode="&#x388;" horiz-adv-x="656" 
d="M224 700v-700h-67v700h67zM622 63v-63h-438v63h438zM583 384v-63h-399v63h399zM622 700v-63h-438v63h438zM55 506h-54l36 194h66z" />
    <glyph glyph-name="Etatonos" unicode="&#x389;" horiz-adv-x="778" 
d="M708 700v-700h-67v700h67zM224 700v-700h-67v700h67zM681 384v-63h-497v63h497zM55 506h-54l36 194h66z" />
    <glyph glyph-name="Iotatonos" unicode="&#x38a;" horiz-adv-x="294" 
d="M224 700v-700h-67v700h67zM55 506h-54l36 194h66z" />
    <glyph glyph-name="Omicrontonos" unicode="&#x38c;" horiz-adv-x="836" 
d="M453 -9q-102 0 -181 45.5t-123.5 126.5t-44.5 187q0 80 25.5 146t72 113.5t110.5 73.5t141 26q103 0 181 -45.5t122.5 -126t44.5 -187.5q0 -80 -25.5 -146t-72 -113.5t-110 -73.5t-140.5 -26zM453 56q60 0 110.5 20t88.5 58.5t58.5 93t20.5 122.5q0 91 -36 157t-99 101.5
t-143 35.5q-60 0 -111 -20t-88.5 -58.5t-58.5 -93t-21 -122.5q0 -91 36.5 -157t99.5 -101.5t143 -35.5zM60 506h-54l36 194h66z" />
    <glyph glyph-name="Upsilontonos" unicode="&#x38e;" horiz-adv-x="816" 
d="M491 300l-314 400h80l240 -297h-12l240 297h78zM457 0v392h67v-392h-67zM78 506h-54l36 194h66z" />
    <glyph glyph-name="Omegatonos" unicode="&#x38f;" horiz-adv-x="850" 
d="M636 52l-12 11h193v-63h-295v52q46 14 84.5 38.5t66.5 61.5t43.5 86t15.5 112q0 91 -35 157t-96 101.5t-138 35.5q-58 0 -107 -20t-85.5 -58.5t-56.5 -93t-20 -122.5q0 -83 27 -143.5t74.5 -98.5t108.5 -56v-52h-295v63h193l-12 -11q-79 47 -122.5 125t-43.5 176
q0 78 25 143.5t70 113t107 73.5t137 26q100 0 176 -45.5t119.5 -125.5t43.5 -185q0 -49 -11 -93.5t-32.5 -82.5t-52 -69.5t-70.5 -55.5zM62 506h-54l36 194h66z" />
    <glyph glyph-name="iotadieresistonos" unicode="&#x390;" horiz-adv-x="237" 
d="M183 0q-63 0 -93 36.5t-30 90.5v373h65v-369q0 -34 14.5 -53t48.5 -19h50v-59h-55zM62 584l16 134h64l-28 -134h-52zM-1 616q-19 0 -32 12.5t-13 32.5t13 32.5t32 12.5q20 0 32.5 -12.5t12.5 -32.5t-12.5 -32.5t-32.5 -12.5zM201 616q-19 0 -32 12.5t-13 32.5t13 32.5
t32 12.5q20 0 32.5 -12.5t12.5 -32.5t-12.5 -32.5t-32.5 -12.5z" />
    <glyph glyph-name="Alpha" unicode="&#x391;" horiz-adv-x="637" 
d="M5 0l282 700h63l283 -700h-72l-214 542q-11 28 -20 50.5l-9 22.5v0l-9 -22.5t-20 -50.5l-214 -542h-70zM146 221l25 63h294l25 -63h-344z" />
    <glyph glyph-name="Beta" unicode="&#x392;" horiz-adv-x="623" 
d="M112 0v63h235q79 0 126.5 29.5t47.5 106.5q0 52 -21.5 81.5t-60.5 42t-92 12.5h-238v63h215q49 0 85.5 10.5t57.5 36.5t21 73q0 69 -45.5 94t-118.5 25h-216v63h216q69 0 122 -19t82.5 -59t29.5 -104q0 -67 -45 -107.5t-115 -45.5l19 10q50 -4 89 -26t62 -59.5t23 -90.5
q0 -68 -31.5 -112.5t-86.5 -65.5t-126 -21h-235zM70 0v700h67v-700h-67z" />
    <glyph glyph-name="Gamma" unicode="&#x393;" horiz-adv-x="512" 
d="M137 636v-636h-67v700h430v-64h-363z" />
    <glyph glyph-name="uni0394" unicode="&#x394;" horiz-adv-x="631" 
d="M284 700h63l268 -648v-52h-599v52zM344 544q-11 27 -20 49l-9 22v0l-9 -22t-20 -49l-196 -481h450z" />
    <glyph glyph-name="Epsilon" unicode="&#x395;" horiz-adv-x="569" 
d="M137 700v-700h-67v700h67zM535 63v-63h-438v63h438zM496 384v-63h-399v63h399zM535 700v-63h-438v63h438z" />
    <glyph glyph-name="Zeta" unicode="&#x396;" horiz-adv-x="546" 
d="M19 0v52l380 532q14 20 26 36.5l12 16.5v0h-20.5h-44.5h-346v63h498v-52l-380 -532q-14 -19 -26 -36l-12 -17v0h20.5h44.5h354v-63h-506z" />
    <glyph glyph-name="Eta" unicode="&#x397;" horiz-adv-x="691" 
d="M621 700v-700h-67v700h67zM137 700v-700h-67v700h67zM594 384v-63h-497v63h497z" />
    <glyph glyph-name="Theta" unicode="&#x398;" horiz-adv-x="767" 
d="M581 384v-63h-399v63h399zM384 -9q-102 0 -181 45.5t-123.5 126.5t-44.5 187q0 80 25.5 146t72 113.5t110.5 73.5t141 26q103 0 181 -45.5t122.5 -126t44.5 -187.5q0 -80 -25.5 -146t-72 -113.5t-110 -73.5t-140.5 -26zM384 56q60 0 110.5 20t88.5 58.5t58.5 93
t20.5 122.5q0 91 -36 157t-99 101.5t-143 35.5q-60 0 -111 -20t-88.5 -58.5t-58.5 -93t-21 -122.5q0 -91 36.5 -157t99.5 -101.5t143 -35.5z" />
    <glyph glyph-name="Iota" unicode="&#x399;" horiz-adv-x="207" 
d="M137 700v-700h-67v700h67z" />
    <glyph glyph-name="Kappa" unicode="&#x39a;" horiz-adv-x="589" 
d="M137 700v-700h-67v700h67zM511 0l-388 351l367 349h91l-389 -364l-1 40l416 -376h-96z" />
    <glyph glyph-name="Lambda" unicode="&#x39b;" horiz-adv-x="637" 
d="M5 0l282 700h63l283 -700h-72l-214 542q-7 19 -14 35.5t-11 27l-4 10.5v0l-9 -22.5t-20 -50.5l-214 -542h-70z" />
    <glyph glyph-name="Mu" unicode="&#x39c;" horiz-adv-x="789" 
d="M396 331l263 370h60v-701h-67v491v61.5v26.5v0l-15.5 -21t-35.5 -50l-198 -277h-15l-198 274q-13 19 -25 35.5l-20 27.5l-8 11v0v-13.5v-34v-43.5v-488h-67v701h61z" />
    <glyph glyph-name="Nu" unicode="&#x39d;" horiz-adv-x="702" 
d="M565 700h67v-700h-57l-385 510q-19 26 -36 48.5l-17 22.5v0v-27.5v-61.5v-492h-67v700h57l385 -510q20 -26 36.5 -48.5l16.5 -22.5v0v27.5v61.5v492z" />
    <glyph glyph-name="Xi" unicode="&#x39e;" horiz-adv-x="538" 
d="M507 700v-63h-476v63h476zM468 321h-398v63h398v-63zM31 63h476v-63h-476v63z" />
    <glyph glyph-name="Omicron" unicode="&#x39f;" horiz-adv-x="767" 
d="M384 -9q-102 0 -181 45.5t-123.5 126.5t-44.5 187q0 80 25.5 146t72 113.5t110.5 73.5t141 26q103 0 181 -45.5t122.5 -126t44.5 -187.5q0 -80 -25.5 -146t-72 -113.5t-110 -73.5t-140.5 -26zM384 56q60 0 110.5 20t88.5 58.5t58.5 93t20.5 122.5q0 91 -36 157t-99 101.5
t-143 35.5q-60 0 -111 -20t-88.5 -58.5t-58.5 -93t-21 -122.5q0 -91 36.5 -157t99.5 -101.5t143 -35.5z" />
    <glyph glyph-name="Pi" unicode="&#x3a0;" horiz-adv-x="678" 
d="M608 700v-700h-67v637h-404v-637h-67v700h538z" />
    <glyph glyph-name="Rho" unicode="&#x3a1;" horiz-adv-x="590" 
d="M110 255v63h196q91 0 141 40.5t50 119.5q0 80 -50 119.5t-141 39.5h-196v63h203q116 0 185 -58t69 -164q0 -70 -31.5 -120t-88.5 -76.5t-134 -26.5h-203zM70 0v700h67v-700h-67z" />
    <glyph glyph-name="Sigma" unicode="&#x3a3;" horiz-adv-x="519" 
d="M155 116q-16 -20 -30.5 -36.5l-14.5 -16.5v0h22h48h318v-63h-483v52l258 301l-248 296v51h471v-63h-308h-47h-22v0l14 -16.5t30 -36.5l184 -221v-18z" />
    <glyph glyph-name="Tau" unicode="&#x3a4;" horiz-adv-x="553" 
d="M310 670v-670h-67v670h67zM541 700v-64h-529v64h529z" />
    <glyph glyph-name="Upsilon" unicode="&#x3a5;" horiz-adv-x="651" 
d="M326 300l-314 400h80l240 -297h-12l240 297h78zM292 0v392h67v-392h-67z" />
    <glyph glyph-name="Phi" unicode="&#x3a6;" horiz-adv-x="801" 
d="M433 117q88 3 147 31.5t89 80.5t30 125q0 110 -67 171.5t-199 65.5v63q106 -3 181 -41t115 -104t40 -155q0 -88 -40 -154.5t-115 -104t-181 -41.5v63zM368 54q-105 4 -180.5 41.5t-115.5 104t-40 154.5q0 89 40 155t115.5 104t180.5 41v-63q-88 -3 -147 -31.5t-89 -80
t-30 -125.5q0 -109 67.5 -170.5t198.5 -66.5v-63zM367 -21v98v20v518v18v93h67v-92v-23v-513v-21v-98h-67z" />
    <glyph glyph-name="Chi" unicode="&#x3a7;" horiz-adv-x="605" 
d="M-7 0l287 380v-46l-275 366h81l162 -215q12 -15 24.5 -32.5t21.5 -29.5l9 -12v0l9 12t22.5 29.5t24.5 32.5l162 215h79l-274 -364v46l286 -382h-81l-174 231q-11 16 -24 33t-22 29l-9 12v0l-9 -12t-22 -29.5t-25 -32.5l-174 -231h-79z" />
    <glyph glyph-name="Psi" unicode="&#x3a8;" horiz-adv-x="734" 
d="M400 700v-700h-67v700h67zM327 162q-57 0 -108.5 18t-92 53.5t-63.5 89t-23 125.5v252h68v-247q0 -77 28.5 -127.5t78 -75t112.5 -24.5h30v-64h-30zM407 162h-30v64h30q63 0 112.5 24.5t78 75t28.5 127.5v247h68v-252q0 -95 -40 -159t-105.5 -95.5t-141.5 -31.5z" />
    <glyph glyph-name="uni03A9" unicode="&#x3a9;" horiz-adv-x="774" 
d="M560 52l-12 11h193v-63h-295v52q46 14 84.5 38.5t66.5 61.5t43.5 86t15.5 112q0 91 -35 157t-96 101.5t-138 35.5q-58 0 -107 -20t-85.5 -58.5t-56.5 -93t-20 -122.5q0 -83 27 -143.5t74.5 -98.5t108.5 -56v-52h-295v63h193l-12 -11q-79 47 -122.5 125t-43.5 176
q0 78 25 143.5t70 113t107 73.5t137 26q100 0 176 -45.5t119.5 -125.5t43.5 -185q0 -49 -11 -93.5t-32.5 -82.5t-52 -69.5t-70.5 -55.5z" />
    <glyph glyph-name="Iotadieresis" unicode="&#x3aa;" horiz-adv-x="207" 
d="M137 700v-700h-67v700h67zM-7 796q-19 0 -32 12.5t-13 32.5t13 32.5t32 12.5q20 0 32.5 -12.5t12.5 -32.5t-12.5 -32.5t-32.5 -12.5zM213 796q-19 0 -32 12.5t-13 32.5t13 32.5t32 12.5q20 0 32.5 -12.5t12.5 -32.5t-12.5 -32.5t-32.5 -12.5z" />
    <glyph glyph-name="Upsilondieresis" unicode="&#x3ab;" horiz-adv-x="651" 
d="M326 300l-314 400h80l240 -297h-12l240 297h78zM292 0v392h67v-392h-67zM216 796q-19 0 -32 12.5t-13 32.5t13 32.5t32 12.5q20 0 32.5 -12.5t12.5 -32.5t-12.5 -32.5t-32.5 -12.5zM436 796q-19 0 -32 12.5t-13 32.5t13 32.5t32 12.5q20 0 32.5 -12.5t12.5 -32.5
t-12.5 -32.5t-32.5 -12.5z" />
    <glyph glyph-name="alphatonos" unicode="&#x3ac;" horiz-adv-x="575" 
d="M268 -8q-66 0 -119 32t-84.5 90t-31.5 136q0 59 18 106.5t50 81.5t75 52t92 18q53 0 93.5 -21t68 -57t41.5 -82.5t14 -97.5v0q0 -51 -14 -97.5t-41.5 -82.5t-68 -57t-93.5 -21zM276 52q39 0 71.5 13.5t56.5 39.5t37 62.5t13 82.5q0 92 -50 145t-128 53q-39 0 -71.5 -13.5
t-56.5 -39.5t-37 -62.5t-13 -82.5q0 -92 50 -145t128 -53zM452 0v175l15 75l-15 66v184h65v-500h-65zM312 584h-54l40 134h66z" />
    <glyph glyph-name="epsilontonos" unicode="&#x3ad;" horiz-adv-x="472" 
d="M230 -9q-40 0 -76 9t-63.5 27t-43 45t-15.5 64q0 35 19 61.5t51.5 43t74.5 21.5v-10q-55 13 -91 43t-36 75q0 42 24 73t65.5 48t94.5 17q47 0 86.5 -15.5t69 -46.5t46.5 -76l-57 -23q-20 52 -56.5 76.5t-83.5 24.5q-54 0 -89 -20.5t-35 -61.5q0 -42 37.5 -61.5
t91.5 -19.5h74v-58h-73q-30 0 -57 -4t-47.5 -13.5t-32 -26.5t-11.5 -43q0 -34 20.5 -53.5t53 -27.5t68.5 -8q34 0 63.5 12t54 38t42.5 68l56 -26q-35 -79 -95 -115.5t-130 -36.5zM265 584h-54l40 134h66z" />
    <glyph glyph-name="etatonos" unicode="&#x3ae;" horiz-adv-x="528" 
d="M283 508q56 0 99.5 -24.5t68 -69.5t24.5 -106v-471h-65v462q0 68 -37.5 108.5t-98.5 40.5q-67 0 -109 -40.5t-42 -108.5v-299h-65v500h65v-111l-10 9q24 58 71.5 84t98.5 26zM297 584h-54l40 134h66z" />
    <glyph glyph-name="iotatonos" unicode="&#x3af;" horiz-adv-x="237" 
d="M183 0q-63 0 -93 36.5t-30 90.5v373h65v-369q0 -34 14.5 -53t48.5 -19h50v-59h-55zM119 584h-54l40 134h66z" />
    <glyph glyph-name="upsilondieresistonos" unicode="&#x3b0;" horiz-adv-x="523" 
d="M262 -8q-60 0 -107.5 24t-74.5 71.5t-27 115.5v297h65v-291q0 -77 40.5 -116.5t103.5 -39.5q64 0 103.5 39.5t39.5 116.5v291h65v-297q0 -68 -27 -115.5t-73.5 -71.5t-107.5 -24zM231 584l16 134h64l-28 -134h-52zM168 616q-19 0 -32 12.5t-13 32.5t13 32.5t32 12.5
q20 0 32.5 -12.5t12.5 -32.5t-12.5 -32.5t-32.5 -12.5zM370 616q-19 0 -32 12.5t-13 32.5t13 32.5t32 12.5q20 0 32.5 -12.5t12.5 -32.5t-12.5 -32.5t-32.5 -12.5z" />
    <glyph glyph-name="alpha" unicode="&#x3b1;" horiz-adv-x="575" 
d="M268 -8q-66 0 -119 32t-84.5 90t-31.5 136q0 59 18 106.5t50 81.5t75 52t92 18q53 0 93.5 -21t68 -57t41.5 -82.5t14 -97.5v0q0 -51 -14 -97.5t-41.5 -82.5t-68 -57t-93.5 -21zM276 52q39 0 71.5 13.5t56.5 39.5t37 62.5t13 82.5q0 92 -50 145t-128 53q-39 0 -71.5 -13.5
t-56.5 -39.5t-37 -62.5t-13 -82.5q0 -92 50 -145t128 -53zM452 0v175l15 75l-15 66v184h65v-500h-65z" />
    <glyph glyph-name="beta" unicode="&#x3b2;" horiz-adv-x="559" 
d="M58 504q0 44 14 81.5t41 65t67.5 43t93.5 15.5q61 0 109.5 -23.5t77.5 -65t29 -97.5q0 -44 -17.5 -78.5t-47 -54.5t-67.5 -24l-1 5q47 -2 86 -26t62 -62.5t23 -86.5t-17.5 -86t-49 -64.5t-72 -40.5t-87.5 -14q-45 0 -81.5 14.5t-63 42t-42.5 66.5l8 10v-287h-65v667z
M292 51q49 0 87 17t60 49.5t22 78.5q0 69 -46.5 105.5t-120.5 36.5h-58v58h37q40 0 74.5 12.5t55.5 40.5t21 73q0 62 -44 94.5t-107 32.5q-68 0 -109 -39.5t-41 -108.5v-263q0 -60 20.5 -101.5t58.5 -63.5t90 -22z" />
    <glyph glyph-name="gamma" unicode="&#x3b3;" horiz-adv-x="489" 
d="M214 -1l-203 501h70l140 -349q11 -25 17.5 -43l6.5 -18v0l7.5 18t17.5 43l139 349h69l-203 -501h-61zM214 -163v167h61v-167h-61z" />
    <glyph glyph-name="delta" unicode="&#x3b4;" horiz-adv-x="552" 
d="M277 -8q-70 0 -125.5 32t-87 87.5t-31.5 124.5q0 52 17.5 95.5t49.5 75.5t73.5 49.5t89.5 17.5q44 0 76 -14t52 -36l-21 -7l-252 235v48h365v-59h-187h-37h-30h-12v0l16.5 -15.5t41.5 -38.5l144 -135q44 -41 65.5 -79t28.5 -71.5t7 -62.5q0 -53 -18 -98t-50.5 -78.5
t-77 -52t-97.5 -18.5zM277 52q52 0 92 24t63.5 65.5t23.5 94.5t-23.5 94.5t-63.5 65.5t-92 24q-51 0 -91.5 -24t-64 -65.5t-23.5 -94.5t23.5 -94.5t64 -65.5t91.5 -24z" />
    <glyph glyph-name="epsilon" unicode="&#x3b5;" horiz-adv-x="472" 
d="M230 -9q-40 0 -76 9t-63.5 27t-43 45t-15.5 64q0 35 19 61.5t51.5 43t74.5 21.5v-10q-55 13 -91 43t-36 75q0 42 24 73t65.5 48t94.5 17q47 0 86.5 -15.5t69 -46.5t46.5 -76l-57 -23q-20 52 -56.5 76.5t-83.5 24.5q-54 0 -89 -20.5t-35 -61.5q0 -42 37.5 -61.5
t91.5 -19.5h74v-58h-73q-30 0 -57 -4t-47.5 -13.5t-32 -26.5t-11.5 -43q0 -34 20.5 -53.5t53 -27.5t68.5 -8q34 0 63.5 12t54 38t42.5 68l56 -26q-35 -79 -95 -115.5t-130 -36.5z" />
    <glyph glyph-name="zeta" unicode="&#x3b6;" horiz-adv-x="406" 
d="M299 -163q11 20 18 42.5t7 34.5q0 40 -24.5 58t-81.5 38q-32 12 -65 27t-60.5 38t-44.5 58t-17 86q0 39 12.5 75t35 70t52.5 67l144 160q16 18 30.5 34l14.5 16v0h-22.5h-48.5h-182v59h343v-48l-231 -258q-26 -29 -44.5 -57t-27.5 -56.5t-9 -61.5q0 -48 20 -76t57 -46
t88 -37q35 -12 64 -28.5t46 -42.5t17 -67q0 -19 -7 -43.5t-16 -41.5h-68z" />
    <glyph glyph-name="eta" unicode="&#x3b7;" horiz-adv-x="528" 
d="M283 508q56 0 99.5 -24.5t68 -69.5t24.5 -106v-471h-65v462q0 68 -37.5 108.5t-98.5 40.5q-67 0 -109 -40.5t-42 -108.5v-299h-65v500h65v-111l-10 9q24 58 71.5 84t98.5 26z" />
    <glyph glyph-name="theta" unicode="&#x3b8;" horiz-adv-x="566" 
d="M282 709q72 0 127 -39t86 -118.5t31 -200.5t-31 -201t-86 -119.5t-127 -39.5q-71 0 -125.5 39.5t-85 119.5t-30.5 201t30.5 200.5t85 118.5t125.5 39zM282 649q-51 0 -90.5 -30t-62.5 -95.5t-23 -172.5q0 -106 23 -172.5t62.5 -97t90.5 -30.5q52 0 92.5 30.5t64 97
t23.5 172.5q0 107 -23.5 172.5t-64 95.5t-92.5 30zM478 333h-401v59h401v-59z" />
    <glyph glyph-name="iota" unicode="&#x3b9;" horiz-adv-x="237" 
d="M183 0q-63 0 -93 36.5t-30 90.5v373h65v-369q0 -34 14.5 -53t48.5 -19h50v-59h-55z" />
    <glyph glyph-name="kappa" unicode="&#x3ba;" horiz-adv-x="436" 
d="M365 0l-251 254l238 246h80l-262 -263l2 39l274 -276h-81zM58 0v500h65v-500h-65z" />
    <glyph glyph-name="lambda" unicode="&#x3bb;" horiz-adv-x="511" 
d="M10 0l224 533l1 -54l-54 113q-14 29 -31 39t-44 10h-26v59h34q32 0 56 -8.5t42 -27.5t32 -53l258 -611h-72l-146 360q-11 27 -20 48.5l-9 21.5v0l-8.5 -21.5t-19.5 -48.5l-143 -360h-74z" />
    <glyph glyph-name="uni03BC" unicode="&#x3bc;" horiz-adv-x="533" 
d="M58 -163v663h65v-299q0 -67 37.5 -108t98.5 -41q67 0 109 41t42 108v299h65v-500h-65v110l10 -9q-23 -57 -70 -83t-97 -26q-46 0 -82.5 20t-59.5 56l12 13v-244h-65z" />
    <glyph glyph-name="nu" unicode="&#x3bd;" horiz-adv-x="489" 
d="M216 -1l-205 501h70l140 -349q5 -11 10.5 -25.5t9.5 -25l4 -10.5v0l4.5 10.5t10.5 25t10 25.5l139 349h69l-205 -501h-57z" />
    <glyph glyph-name="xi" unicode="&#x3be;" horiz-adv-x="414" 
d="M315 -163q11 20 18 42.5t7 34.5q0 40 -24.5 58.5t-81.5 37.5q-42 15 -79 31t-65 37.5t-43.5 53t-15.5 77.5t24 82t66.5 58.5t95.5 26.5l-2 -14q-67 13 -111.5 52.5t-44.5 99.5q0 49 28.5 84t77 54.5t107.5 19.5v-32q-45 0 -78 -15t-51 -42t-18 -63q0 -60 43 -90.5
t104 -30.5h90v-59h-90q-53 0 -92.5 -15.5t-61 -44.5t-21.5 -71q0 -39 20.5 -64t61 -44t100.5 -40q35 -11 64 -28t46 -43t17 -68q0 -19 -7 -43.5t-16 -41.5h-68zM43 640v59h351v-59h-351z" />
    <glyph glyph-name="omicron" unicode="&#x3bf;" horiz-adv-x="562" 
d="M281 -9q-71 0 -127 32.5t-88.5 91t-32.5 135.5q0 57 18.5 104.5t52 82t79 53t98.5 18.5q71 0 127 -32.5t88.5 -90.5t32.5 -135q0 -58 -18.5 -105.5t-52 -82t-79 -53t-98.5 -18.5zM281 51q39 0 72.5 13.5t58 39.5t38 63t13.5 83q0 61 -23.5 105.5t-64.5 68.5t-94 24
q-39 0 -72.5 -13.5t-58 -39.5t-38 -62.5t-13.5 -82.5q0 -61 23.5 -106t65 -69t93.5 -24z" />
    <glyph glyph-name="pi" unicode="&#x3c0;" horiz-adv-x="571" 
d="M20 441v59h531v-59h-531zM96 0v467h65v-467h-65zM410 0v467h65v-467h-65z" />
    <glyph glyph-name="rho" unicode="&#x3c1;" horiz-adv-x="570" 
d="M294 508q70 0 125 -32t86.5 -90t31.5 -136q0 -58 -18 -105.5t-50.5 -81.5t-75.5 -52.5t-93 -18.5q-43 0 -81.5 15.5t-68.5 47t-49 80.5l13 -17v-281h-65v403q0 83 32 143t87.5 92.5t125.5 32.5zM292 52q39 0 72 13.5t57.5 39.5t37.5 62.5t13 82.5q0 62 -23 106t-63.5 68
t-93.5 24q-39 0 -72 -13.5t-57.5 -39.5t-37.5 -62.5t-13 -82.5q0 -61 23 -105.5t64 -68.5t93 -24z" />
    <glyph glyph-name="uni03C2" unicode="&#x3c2;" horiz-adv-x="478" 
d="M328 -163q11 20 18 42t7 36q0 24 -10.5 38.5t-34 25t-62.5 25.5q-46 17 -85 38t-67.5 50t-44.5 69.5t-16 97.5q0 56 17.5 102t49 79t74 50.5t91.5 17.5q78 0 129 -40t79 -116l-57 -21q-19 54 -55 85.5t-96 31.5q-36 0 -66 -13t-52 -38t-34.5 -59.5t-12.5 -78.5
q0 -58 21 -94t60 -59.5t94 -45.5q40 -15 72.5 -31.5t52 -41t19.5 -65.5q0 -19 -7 -43.5t-16 -41.5h-68z" />
    <glyph glyph-name="sigma" unicode="&#x3c3;" horiz-adv-x="581" 
d="M280 -9q-70 0 -126 32t-88.5 89.5t-32.5 133.5q0 57 18.5 103.5t52 80t78.5 52t98 18.5h282v-59h-166l-5 21q64 -37 101 -90t37 -132q0 -55 -18.5 -100.5t-52.5 -79t-79 -51.5t-99 -18zM280 51q53 0 94 23.5t65 67.5t24 104t-24 104t-65 67.5t-94 23.5q-52 0 -92.5 -23.5
t-64 -67.5t-23.5 -104t23.5 -104t64 -67.5t92.5 -23.5z" />
    <glyph glyph-name="tau" unicode="&#x3c4;" horiz-adv-x="466" 
d="M16 441v59h428v-59h-428zM316 0q-63 0 -93 36.5t-30 90.5v343h65v-339q0 -34 14.5 -53t48.5 -19h58v-59h-63z" />
    <glyph glyph-name="upsilon" unicode="&#x3c5;" horiz-adv-x="523" 
d="M262 -8q-60 0 -107.5 24t-74.5 71.5t-27 115.5v297h65v-291q0 -77 40.5 -116.5t103.5 -39.5q64 0 103.5 39.5t39.5 116.5v291h65v-297q0 -68 -27 -115.5t-73.5 -71.5t-107.5 -24z" />
    <glyph glyph-name="phi" unicode="&#x3c6;" horiz-adv-x="665" 
d="M364 51q44 1 81 14.5t64 38t42 61t15 84.5q0 64 -26 108t-71.5 67t-104.5 24v60q79 -1 139.5 -33.5t95 -90t34.5 -135.5q0 -58 -19.5 -105t-55.5 -81t-85.5 -52.5t-108.5 -19.5v60zM301 -9q-79 2 -139.5 34t-95 89.5t-34.5 135.5q0 58 19.5 105t55.5 81t85.5 52.5
t108.5 19.5v-60q-59 -1 -104.5 -24t-71.5 -66.5t-26 -107.5t26 -108t71.5 -66.5t104.5 -24.5v-60zM300 -163v174v8v455v4v162h65v-161v-8v-451v-6v-177h-65z" />
    <glyph glyph-name="chi" unicode="&#x3c7;" horiz-adv-x="465" 
d="M-5 -163l215 357l5 -50l-205 356h74l117 -208q7 -12 15 -26.5t14 -25l6 -10.5v0l6 10.5t14.5 25t15.5 26.5l119 208h70l-205 -354l6 50l215 -359h-74l-129 217q-7 13 -16.5 28.5t-16 26.5l-6.5 11v0l-6.5 -11t-15.5 -26t-17 -29l-131 -217h-70z" />
    <glyph glyph-name="psi" unicode="&#x3c8;" horiz-adv-x="661" 
d="M298 -163v803h65v-803h-65zM262 -8q-60 0 -107.5 24t-74.5 71.5t-27 115.5v297h65v-291q0 -78 40.5 -118t103.5 -40h65v-59h-65zM334 -8v59h65q63 0 103.5 40t40.5 118v291h65v-297q0 -68 -27 -115.5t-74 -71.5t-108 -24h-65z" />
    <glyph glyph-name="omega" unicode="&#x3c9;" horiz-adv-x="806" 
d="M238 -9q-65 0 -111 34.5t-69.5 92t-23.5 125.5q0 55 13 98.5t36.5 76.5t54 55t64.5 35l26 -55q-40 -16 -68.5 -44.5t-44 -70t-15.5 -95.5t16 -97.5t47 -69t75 -25.5q62 0 97 38t35 114v153h66v-153q0 -76 35 -114t97 -38q33 0 59 14.5t43.5 41t26.5 61.5t9 75
q0 54 -15.5 95.5t-44 70t-68.5 44.5l26 55q46 -17 84 -51t61 -87t23 -127q0 -51 -13.5 -96.5t-39.5 -80.5t-64 -55t-87 -20q-45 0 -79 16t-56.5 47t-33.5 75h8q-11 -44 -33.5 -75t-56.5 -47t-79 -16z" />
    <glyph glyph-name="iotadieresis" unicode="&#x3ca;" horiz-adv-x="237" 
d="M183 0q-63 0 -93 36.5t-30 90.5v373h65v-369q0 -34 14.5 -53t48.5 -19h50v-59h-55zM-17 596q-19 0 -32 12.5t-13 32.5t13 32.5t32 12.5q20 0 32.5 -12.5t12.5 -32.5t-12.5 -32.5t-32.5 -12.5zM203 596q-19 0 -32 12.5t-13 32.5t13 32.5t32 12.5q20 0 32.5 -12.5
t12.5 -32.5t-12.5 -32.5t-32.5 -12.5z" />
    <glyph glyph-name="upsilondieresis" unicode="&#x3cb;" horiz-adv-x="523" 
d="M262 -8q-60 0 -107.5 24t-74.5 71.5t-27 115.5v297h65v-291q0 -77 40.5 -116.5t103.5 -39.5q64 0 103.5 39.5t39.5 116.5v291h65v-297q0 -68 -27 -115.5t-73.5 -71.5t-107.5 -24zM152 596q-19 0 -32 12.5t-13 32.5t13 32.5t32 12.5q20 0 32.5 -12.5t12.5 -32.5
t-12.5 -32.5t-32.5 -12.5zM372 596q-19 0 -32 12.5t-13 32.5t13 32.5t32 12.5q20 0 32.5 -12.5t12.5 -32.5t-12.5 -32.5t-32.5 -12.5z" />
    <glyph glyph-name="omicrontonos" unicode="&#x3cc;" horiz-adv-x="562" 
d="M281 -9q-71 0 -127 32.5t-88.5 91t-32.5 135.5q0 57 18.5 104.5t52 82t79 53t98.5 18.5q71 0 127 -32.5t88.5 -90.5t32.5 -135q0 -58 -18.5 -105.5t-52 -82t-79 -53t-98.5 -18.5zM281 51q39 0 72.5 13.5t58 39.5t38 63t13.5 83q0 61 -23.5 105.5t-64.5 68.5t-94 24
q-39 0 -72.5 -13.5t-58 -39.5t-38 -62.5t-13.5 -82.5q0 -61 23.5 -106t65 -69t93.5 -24zM307 584h-54l40 134h66z" />
    <glyph glyph-name="upsilontonos" unicode="&#x3cd;" horiz-adv-x="523" 
d="M262 -8q-60 0 -107.5 24t-74.5 71.5t-27 115.5v297h65v-291q0 -77 40.5 -116.5t103.5 -39.5q64 0 103.5 39.5t39.5 116.5v291h65v-297q0 -68 -27 -115.5t-73.5 -71.5t-107.5 -24zM288 584h-54l40 134h66z" />
    <glyph glyph-name="omegatonos" unicode="&#x3ce;" horiz-adv-x="806" 
d="M238 -9q-65 0 -111 34.5t-69.5 92t-23.5 125.5q0 55 13 98.5t36.5 76.5t54 55t64.5 35l26 -55q-40 -16 -68.5 -44.5t-44 -70t-15.5 -95.5t16 -97.5t47 -69t75 -25.5q62 0 97 38t35 114v153h66v-153q0 -76 35 -114t97 -38q33 0 59 14.5t43.5 41t26.5 61.5t9 75
q0 54 -15.5 95.5t-44 70t-68.5 44.5l26 55q46 -17 84 -51t61 -87t23 -127q0 -51 -13.5 -96.5t-39.5 -80.5t-64 -55t-87 -20q-45 0 -79 16t-56.5 47t-33.5 75h8q-11 -44 -33.5 -75t-56.5 -47t-79 -16zM429 584h-54l40 134h66z" />
    <glyph glyph-name="uni0400" unicode="&#x400;" horiz-adv-x="569" 
d="M137 700v-700h-67v700h67zM535 63v-63h-438v63h438zM496 384v-63h-399v63h399zM535 700v-63h-438v63h438zM283 784l-95 134h74l86 -134h-65z" />
    <glyph glyph-name="uni0401" unicode="&#x401;" horiz-adv-x="569" 
d="M137 700v-700h-67v700h67zM535 63v-63h-438v63h438zM496 384v-63h-399v63h399zM535 700v-63h-438v63h438zM191 796q-19 0 -32 12.5t-13 32.5t13 32.5t32 12.5q20 0 32.5 -12.5t12.5 -32.5t-12.5 -32.5t-32.5 -12.5zM411 796q-19 0 -32 12.5t-13 32.5t13 32.5t32 12.5
q20 0 32.5 -12.5t12.5 -32.5t-12.5 -32.5t-32.5 -12.5z" />
    <glyph glyph-name="uni0402" unicode="&#x402;" horiz-adv-x="734" 
d="M571 700v-64h-559v64h559zM290 700v-700h-67v700h67zM435 -3v63h52q75 0 116 38t41 114q0 77 -46 114.5t-131 37.5q-49 0 -97.5 -8.5t-97.5 -31.5v65q50 21 100.5 30.5t100.5 9.5q71 0 125.5 -25.5t85 -74t30.5 -117.5q0 -68 -28 -116t-78 -73.5t-115 -25.5h-58z" />
    <glyph glyph-name="uni0403" unicode="&#x403;" horiz-adv-x="512" 
d="M137 636v-636h-67v700h430v-64h-363zM238 784l86 134h74l-95 -134h-65z" />
    <glyph glyph-name="uni0404" unicode="&#x404;" horiz-adv-x="704" 
d="M55 321v63h409v-63h-409zM378 -9q-99 0 -176.5 45.5t-121.5 126.5t-44 187q0 80 25 146t71 113.5t108.5 73.5t137.5 26q72 0 132 -25t104 -71t69 -110l-63 -29q-19 54 -54.5 92t-83 58t-104.5 20q-58 0 -107.5 -20t-86.5 -58.5t-57.5 -93t-20.5 -122.5q0 -91 35.5 -157
t97.5 -101.5t139 -35.5q85 0 149 45t93 125l63 -29q-37 -95 -117 -150.5t-188 -55.5z" />
    <glyph glyph-name="uni0405" unicode="&#x405;" horiz-adv-x="591" 
d="M305 -9q-82 0 -141.5 27t-95.5 76.5t-50 116.5l69 16q17 -82 73 -126.5t145 -44.5q85 0 135.5 32.5t50.5 87.5q0 31 -16 56t-52.5 44.5t-98.5 35.5l-100 26q-55 15 -94 40.5t-59 61t-20 79.5q0 56 30 99t84 67t125 24t124.5 -23t88.5 -68t49 -112l-65 -16
q-17 81 -69.5 117.5t-125.5 36.5q-75 0 -122.5 -32.5t-47.5 -85.5q0 -51 33 -78t101 -46l99 -27q70 -19 115.5 -47t68 -64.5t22.5 -80.5q0 -58 -31.5 -101t-89 -67t-135.5 -24z" />
    <glyph glyph-name="uni0406" unicode="&#x406;" horiz-adv-x="207" 
d="M137 700v-700h-67v700h67z" />
    <glyph glyph-name="uni0407" unicode="&#x407;" horiz-adv-x="207" 
d="M137 700v-700h-67v700h67zM-7 796q-19 0 -32 12.5t-13 32.5t13 32.5t32 12.5q20 0 32.5 -12.5t12.5 -32.5t-12.5 -32.5t-32.5 -12.5zM213 796q-19 0 -32 12.5t-13 32.5t13 32.5t32 12.5q20 0 32.5 -12.5t12.5 -32.5t-12.5 -32.5t-32.5 -12.5z" />
    <glyph glyph-name="uni0408" unicode="&#x408;" horiz-adv-x="484" 
d="M212 -8q-76 0 -128 39.5t-78 96.5l54 34q18 -44 56.5 -75t93.5 -31q63 0 102.5 39t39.5 123v482h67v-487q0 -53 -15.5 -94.5t-43.5 -69.5t-66 -42.5t-82 -14.5z" />
    <glyph glyph-name="uni0409" unicode="&#x409;" horiz-adv-x="1033" 
d="M13 54q35 11 58.5 33t36.5 68t15 129l10 416h416v-63h-352l-8 -360q-2 -102 -22 -159.5t-55 -85.5t-82 -41zM558 0v63h211q82 0 126.5 36t44.5 117q0 74 -44.5 108t-126.5 34h-211v63h217q69 0 122 -23.5t83 -69t30 -112.5q0 -72 -30 -120t-83 -72t-122 -24h-217zM518 0
v700h67v-700h-67z" />
    <glyph glyph-name="uni040A" unicode="&#x40a;" horiz-adv-x="1030" 
d="M137 700v-700h-67v700h67zM559 421v-63h-459v63h459zM555 0v63h211q82 0 126.5 36t44.5 117q0 74 -44.5 108t-126.5 34h-211v63h217q69 0 122 -23.5t83 -69t30 -112.5q0 -72 -30 -120t-83 -72t-122 -24h-217zM515 0v700h67v-700h-67z" />
    <glyph glyph-name="uni040B" unicode="&#x40b;" horiz-adv-x="742" 
d="M640 194q0 91 -45.5 131.5t-128.5 40.5q-43 0 -97.5 -10t-105.5 -36v62q35 16 70 26t70 15.5t69 5.5q74 0 126.5 -24.5t80.5 -73.5t28 -123v-208h-67v194zM223 0v700h67v-700h-67zM12 636v64h559v-64h-559z" />
    <glyph glyph-name="uni040C" unicode="&#x40c;" horiz-adv-x="589" 
d="M137 700v-700h-67v700h67zM511 0l-388 351l367 349h91l-389 -364l-1 40l416 -376h-96zM256 784l86 134h74l-95 -134h-65z" />
    <glyph glyph-name="uni040D" unicode="&#x40d;" horiz-adv-x="702" 
d="M137 206v-61v-27v0l16.5 22t36.5 48l388 512h54v-700h-67v494v61.5v27.5v0l-16.5 -22.5t-36.5 -48.5l-385 -512h-57v700h67v-494zM333 784l-95 134h74l86 -134h-65z" />
    <glyph glyph-name="uni040E" unicode="&#x40e;" horiz-adv-x="595" 
d="M187 0l86 176l-261 524h74l193 -392q11 -23 20 -41.5l9 -18.5v0l9.5 19t19.5 41l184 392h71l-333 -700h-72zM301 780q-40 0 -73 16.5t-52.5 47.5t-19.5 74h61q0 -40 23.5 -61.5t60.5 -21.5t60.5 21.5t23.5 61.5h61q0 -64 -42.5 -101t-102.5 -37z" />
    <glyph glyph-name="uni040F" unicode="&#x40f;" horiz-adv-x="667" 
d="M70 0v700h67v-637h393v637h67v-700h-527zM302 -136v179h64v-179h-64z" />
    <glyph glyph-name="uni0410" unicode="&#x410;" horiz-adv-x="637" 
d="M5 0l282 700h63l283 -700h-72l-214 542q-11 28 -20 50.5l-9 22.5v0l-9 -22.5t-20 -50.5l-214 -542h-70zM146 221l25 63h294l25 -63h-344z" />
    <glyph glyph-name="uni0411" unicode="&#x411;" horiz-adv-x="587" 
d="M110 0v63h225q75 0 116 33.5t41 107.5t-41 107.5t-116 33.5h-225v63h231q65 0 115 -23t78 -68.5t28 -112.5t-28 -112.5t-78 -68.5t-115 -23h-231zM70 0v700h67v-700h-67zM86 637v63h430v-63h-430z" />
    <glyph glyph-name="uni0412" unicode="&#x412;" horiz-adv-x="623" 
d="M112 0v63h235q79 0 126.5 29.5t47.5 106.5q0 52 -21.5 81.5t-60.5 42t-92 12.5h-238v63h215q49 0 85.5 10.5t57.5 36.5t21 73q0 69 -45.5 94t-118.5 25h-216v63h216q69 0 122 -19t82.5 -59t29.5 -104q0 -67 -45 -107.5t-115 -45.5l19 10q50 -4 89 -26t62 -59.5t23 -90.5
q0 -68 -31.5 -112.5t-86.5 -65.5t-126 -21h-235zM70 0v700h67v-700h-67z" />
    <glyph glyph-name="uni0413" unicode="&#x413;" horiz-adv-x="512" 
d="M137 636v-636h-67v700h430v-64h-363z" />
    <glyph glyph-name="uni0414" unicode="&#x414;" horiz-adv-x="692" 
d="M530 0v637h-324l-61 63h452v-700h-67zM10 -147v210h658v-210h-64v147h-530v-147h-64zM31 56q26 0 45.5 12t32 43t19.5 87.5t9 145.5l8 356h65l-8 -381q-2 -87 -13 -144.5t-31.5 -91.5t-52 -48t-74.5 -14v35z" />
    <glyph glyph-name="uni0415" unicode="&#x415;" horiz-adv-x="569" 
d="M137 700v-700h-67v700h67zM535 63v-63h-438v63h438zM496 384v-63h-399v63h399zM535 700v-63h-438v63h438z" />
    <glyph glyph-name="uni0416" unicode="&#x416;" horiz-adv-x="897" 
d="M826 0l-358 351l336 349h81l-353 -364l-1 40l382 -376h-87zM-16 0l382 376l-1 -40l-353 364h81l336 -349l-358 -351h-87zM415 0v700h67v-700h-67z" />
    <glyph glyph-name="uni0417" unicode="&#x417;" horiz-adv-x="582" 
d="M278 -8q-50 0 -103 17t-96.5 59t-65.5 116l63 23q17 -57 50.5 -89.5t74 -46.5t76.5 -14q50 0 96 12.5t75 41.5t29 80t-27.5 81t-74.5 43t-106 13h-82v63h82q56 0 96.5 13t63 41t22.5 71q0 57 -46 92t-125 35q-44 0 -80 -13.5t-64 -43.5t-48 -81l-58 26q20 58 57.5 97.5
t87.5 59.5t109 20q71 0 124 -24t83 -66.5t30 -98.5q0 -43 -18.5 -75.5t-54 -54t-87.5 -31.5l-1 9q62 -7 103.5 -30t62.5 -60t21 -86q0 -57 -24 -95t-63 -61t-86.5 -33t-95.5 -10z" />
    <glyph glyph-name="uni0418" unicode="&#x418;" horiz-adv-x="702" 
d="M137 206v-61v-27v0l16.5 22t36.5 48l388 512h54v-700h-67v494v61.5v27.5v0l-16.5 -22.5t-36.5 -48.5l-385 -512h-57v700h67v-494z" />
    <glyph glyph-name="uni0419" unicode="&#x419;" horiz-adv-x="702" 
d="M137 206v-61v-27v0l16.5 22t36.5 48l388 512h54v-700h-67v494v61.5v27.5v0l-16.5 -22.5t-36.5 -48.5l-385 -512h-57v700h67v-494zM351 780q-40 0 -73 16.5t-52.5 47.5t-19.5 74h61q0 -40 23.5 -61.5t60.5 -21.5t60.5 21.5t23.5 61.5h61q0 -64 -42.5 -101t-102.5 -37z" />
    <glyph glyph-name="uni041A" unicode="&#x41a;" horiz-adv-x="589" 
d="M137 700v-700h-67v700h67zM511 0l-388 351l367 349h91l-389 -364l-1 40l416 -376h-96z" />
    <glyph glyph-name="uni041B" unicode="&#x41b;" horiz-adv-x="672" 
d="M12 54q35 11 58.5 33t36.5 68t15 129l10 416h470v-700h-67v637h-339l-8 -360q-2 -102 -22 -160t-55 -85.5t-82 -40.5z" />
    <glyph glyph-name="uni041C" unicode="&#x41c;" horiz-adv-x="789" 
d="M396 331l263 370h60v-701h-67v491v61.5v26.5v0l-15.5 -21t-35.5 -50l-198 -277h-15l-198 274q-13 19 -25 35.5l-20 27.5l-8 11v0v-13.5v-34v-43.5v-488h-67v701h61z" />
    <glyph glyph-name="uni041D" unicode="&#x41d;" horiz-adv-x="691" 
d="M621 700v-700h-67v700h67zM137 700v-700h-67v700h67zM594 384v-63h-497v63h497z" />
    <glyph glyph-name="uni041E" unicode="&#x41e;" horiz-adv-x="767" 
d="M384 -9q-102 0 -181 45.5t-123.5 126.5t-44.5 187q0 80 25.5 146t72 113.5t110.5 73.5t141 26q103 0 181 -45.5t122.5 -126t44.5 -187.5q0 -80 -25.5 -146t-72 -113.5t-110 -73.5t-140.5 -26zM384 56q60 0 110.5 20t88.5 58.5t58.5 93t20.5 122.5q0 91 -36 157t-99 101.5
t-143 35.5q-60 0 -111 -20t-88.5 -58.5t-58.5 -93t-21 -122.5q0 -91 36.5 -157t99.5 -101.5t143 -35.5z" />
    <glyph glyph-name="uni041F" unicode="&#x41f;" horiz-adv-x="678" 
d="M608 700v-700h-67v637h-404v-637h-67v700h538z" />
    <glyph glyph-name="uni0420" unicode="&#x420;" horiz-adv-x="590" 
d="M110 255v63h196q91 0 141 40.5t50 119.5q0 80 -50 119.5t-141 39.5h-196v63h203q116 0 185 -58t69 -164q0 -70 -31.5 -120t-88.5 -76.5t-134 -26.5h-203zM70 0v700h67v-700h-67z" />
    <glyph glyph-name="uni0421" unicode="&#x421;" horiz-adv-x="700" 
d="M378 -9q-99 0 -176.5 45.5t-121.5 126.5t-44 187q0 80 25 146t71 113.5t108.5 73.5t137.5 26q72 0 132 -25t104 -71t69 -110l-63 -29q-19 54 -54.5 92t-83 58t-104.5 20q-58 0 -107.5 -20t-86.5 -58.5t-57.5 -93t-20.5 -122.5q0 -91 35.5 -157t97.5 -101.5t139 -35.5
q85 0 149 45t93 125l63 -29q-37 -95 -117 -150.5t-188 -55.5z" />
    <glyph glyph-name="uni0422" unicode="&#x422;" horiz-adv-x="553" 
d="M310 670v-670h-67v670h67zM541 700v-64h-529v64h529z" />
    <glyph glyph-name="uni0423" unicode="&#x423;" horiz-adv-x="595" 
d="M187 0l86 176l-261 524h74l193 -392q11 -23 20 -41.5l9 -18.5v0l9.5 19t19.5 41l184 392h71l-333 -700h-72z" />
    <glyph glyph-name="uni0424" unicode="&#x424;" horiz-adv-x="801" 
d="M433 117q88 3 147 31.5t89 80.5t30 125q0 110 -67 171.5t-199 65.5v63q106 -3 181 -41t115 -104t40 -155q0 -88 -40 -154.5t-115 -104t-181 -41.5v63zM368 54q-105 4 -180.5 41.5t-115.5 104t-40 154.5q0 89 40 155t115.5 104t180.5 41v-63q-88 -3 -147 -31.5t-89 -80
t-30 -125.5q0 -109 67.5 -170.5t198.5 -66.5v-63zM367 -21v98v20v518v18v93h67v-92v-23v-513v-21v-98h-67z" />
    <glyph glyph-name="uni0425" unicode="&#x425;" horiz-adv-x="605" 
d="M-7 0l287 380v-46l-275 366h81l162 -215q12 -15 24.5 -32.5t21.5 -29.5l9 -12v0l9 12t22.5 29.5t24.5 32.5l162 215h79l-274 -364v46l286 -382h-81l-174 231q-11 16 -24 33t-22 29l-9 12v0l-9 -12t-22 -29.5t-25 -32.5l-174 -231h-79z" />
    <glyph glyph-name="uni0426" unicode="&#x426;" horiz-adv-x="692" 
d="M604 -136v136h-38v63h102v-199h-64zM597 0h-527v700h67v-637h393v637h67v-700z" />
    <glyph glyph-name="uni0427" unicode="&#x427;" horiz-adv-x="601" 
d="M293 272q-77 0 -134 29t-88 83.5t-31 131.5v184h67v-184q0 -88 49 -133.5t137 -45.5q43 0 96 6.5t102 23.5v-62q-33 -11 -66 -18.5t-66 -11t-66 -3.5zM464 0v700h67v-700h-67z" />
    <glyph glyph-name="uni0428" unicode="&#x428;" horiz-adv-x="1011" 
d="M874 700h67v-700h-871v700h67v-637h335v637h67v-637h335v637z" />
    <glyph glyph-name="uni0429" unicode="&#x429;" horiz-adv-x="1036" 
d="M874 700h67v-700h-871v700h67v-637h335v637h67v-637h335v637zM948 -136v136h-38v63h102v-199h-64z" />
    <glyph glyph-name="uni042A" unicode="&#x42a;" horiz-adv-x="688" 
d="M15 637v63h183v-63h-183zM213 0v63h211q82 0 126.5 36t44.5 117q0 74 -44.5 108t-126.5 34h-211v63h217q69 0 122 -23.5t83 -69t30 -112.5q0 -72 -30 -120t-83 -72t-122 -24h-217zM173 0v700h67v-700h-67z" />
    <glyph glyph-name="uni042B" unicode="&#x42b;" horiz-adv-x="816" 
d="M110 0v63h211q82 0 126.5 36t44.5 117q0 74 -44.5 108t-126.5 34h-211v63h217q69 0 122 -23.5t83 -69t30 -112.5q0 -72 -30 -120t-83 -72t-122 -24h-217zM70 0v700h67v-700h-67zM746 700v-700h-67v700h67z" />
    <glyph glyph-name="uni042C" unicode="&#x42c;" horiz-adv-x="585" 
d="M110 0v63h211q82 0 126.5 36t44.5 117q0 74 -44.5 108t-126.5 34h-211v63h217q69 0 122 -23.5t83 -69t30 -112.5q0 -72 -30 -120t-83 -72t-122 -24h-217zM70 0v700h67v-700h-67z" />
    <glyph glyph-name="uni042D" unicode="&#x42d;" horiz-adv-x="704" 
d="M326 -9q-72 0 -132 25t-104 71.5t-69 109.5l63 29q29 -80 93 -125t149 -45q58 0 107.5 20t86.5 58.5t57.5 93t20.5 122.5q0 91 -35.5 157t-97 101.5t-139.5 35.5q-85 0 -149 -45t-93 -125l-63 29q38 95 117.5 150.5t187.5 55.5q100 0 177 -45.5t121 -126t44 -187.5
q0 -80 -25 -146t-71 -113.5t-108.5 -73.5t-137.5 -26zM240 321v63h409v-63h-409z" />
    <glyph glyph-name="uni042E" unicode="&#x42e;" horiz-adv-x="970" 
d="M601 -9q-98 0 -173.5 45t-118 125.5t-42.5 188.5q0 81 24.5 147t69 113.5t106 73t134.5 25.5q98 0 173 -44.5t117.5 -125.5t42.5 -189q0 -81 -24.5 -147t-68.5 -113.5t-105 -73t-135 -25.5zM70 0v700h67v-316h171v-63h-171v-321h-67zM601 56q57 0 105 20t83.5 58t55 92.5
t19.5 123.5q0 93 -34.5 158.5t-93.5 100.5t-135 35q-45 0 -85 -13t-73 -37.5t-56.5 -60t-36.5 -81.5t-13 -102q0 -92 34.5 -158t94.5 -101t135 -35z" />
    <glyph glyph-name="uni042F" unicode="&#x42f;" horiz-adv-x="619" 
d="M284 275q-69 0 -122.5 26t-84 74t-30.5 113q0 68 29 115t82.5 72t125.5 25h217v-63h-211q-83 0 -128 -38t-45 -111t44.5 -111.5t128.5 -38.5h208v-63h-214zM16 0l248 308l77 -1l-242 -307h-83zM482 0v700h67v-700h-67z" />
    <glyph glyph-name="uni0430" unicode="&#x430;" horiz-adv-x="508" 
d="M390 0v97l3 14v80l-3 6v108q0 54 -21.5 85.5t-55 45t-70.5 13.5q-55 0 -94 -28.5t-51 -76.5l-56 18q16 69 71.5 107.5t129.5 38.5q40 0 77.5 -11t68 -34t48.5 -60.5t18 -90.5v-312h-65zM229 -9q-52 0 -98.5 17t-75.5 51.5t-29 84.5q0 51 29 85t75.5 51t97.5 17
q94 0 143 -41t49 -112v0q0 -71 -48.5 -112t-142.5 -41zM244 46q62 0 105 25t43 73t-43 73t-105 25t-106.5 -24t-44.5 -74q0 -49 44.5 -73.5t106.5 -24.5z" />
    <glyph glyph-name="uni0431" unicode="&#x431;" horiz-adv-x="580" 
d="M299 -9q-72 0 -130.5 30.5t-92.5 88t-34 138.5v51q0 74 14.5 132.5t43.5 102t73.5 73.5t104.5 47l195 55l13 -59l-203 -57q-61 -17 -103 -52t-63.5 -91t-20.5 -138l-30 -62q0 75 29.5 131t83 87t126.5 31q70 0 124.5 -32t86 -89t31.5 -133q0 -57 -18.5 -103.5t-52 -80
t-79 -52t-98.5 -18.5zM295 51q54 0 96 23t66 66.5t24 104.5q0 92 -52.5 143t-133.5 51q-54 0 -96 -23t-66 -66.5t-24 -104.5q0 -91 52.5 -142.5t133.5 -51.5z" />
    <glyph glyph-name="uni0432" unicode="&#x432;" horiz-adv-x="506" 
d="M100 0v59h193q52 0 83.5 19t31.5 67q0 49 -31.5 67.5t-83.5 18.5h-195v59h176q47 0 77.5 16t30.5 59q0 44 -30.5 60t-77.5 16h-178v59h178q79 0 126.5 -32t47.5 -100q0 -47 -34 -76t-86 -34l12 12q40 -4 70 -20.5t47 -44t17 -63.5q0 -48 -22.5 -79.5t-63.5 -47t-95 -15.5
h-193zM58 0v500h65v-500h-65z" />
    <glyph glyph-name="uni0433" unicode="&#x433;" horiz-adv-x="391" 
d="M58 500h317v-59h-252v-441h-65v500z" />
    <glyph glyph-name="uni0434" unicode="&#x434;" horiz-adv-x="562" 
d="M410 27v414h-249l-5 59h319v-473h-65zM4 -136v195h533v-195h-62v136h-409v-136h-62zM23 56q45 0 68 41t27 127l11 276h65l-11 -281q-4 -97 -43 -144.5t-117 -47.5v29z" />
    <glyph glyph-name="uni0435" unicode="&#x435;" horiz-adv-x="528" 
d="M267 -9q-67 0 -120 32.5t-83.5 91t-30.5 135.5q0 60 17.5 107.5t49.5 81t75 51.5t94 18q65 0 116 -31t80.5 -87.5t29.5 -132.5v-11t-1 -10h-423v55h384l-28 -45v4v3q0 98 -45.5 146.5t-113.5 48.5q-38 0 -69 -13.5t-53.5 -39.5t-34.5 -62.5t-12 -82.5q0 -63 23 -107.5
t61.5 -68t86.5 -23.5q36 0 67 11.5t56.5 37t42.5 68.5l56 -26q-24 -57 -60 -90t-78.5 -47t-86.5 -14z" />
    <glyph glyph-name="uni0436" unicode="&#x436;" horiz-adv-x="661" 
d="M588 0l-234 251l221 249h78l-244 -270v43l258 -273h-79zM-6 0l258 273v-43l-244 270h78l221 -249l-234 -251h-79zM298 0v500h65v-500h-65z" />
    <glyph glyph-name="uni0437" unicode="&#x437;" horiz-adv-x="472" 
d="M242 -9q-46 0 -89 16t-77.5 49.5t-58.5 86.5l56 26q28 -63 69 -90.5t91 -27.5q37 0 69 8t52.5 27.5t20.5 53.5q0 35 -20 53.5t-53.5 26t-74.5 7.5h-73v58h74q36 0 65.5 8.5t46.5 26.5t17 46q0 41 -35 61.5t-89 20.5q-47 0 -83.5 -24.5t-56.5 -76.5l-57 23q18 45 47 76
t68.5 46.5t86.5 15.5q53 0 94.5 -17t65.5 -48t24 -73q0 -45 -35.5 -75t-91.5 -43v10q42 -5 75 -21.5t51.5 -43t18.5 -61.5q0 -49 -27 -81t-72 -48t-99 -16z" />
    <glyph glyph-name="uni0438" unicode="&#x438;" horiz-adv-x="543" 
d="M58 -1v501h65v-310v-59.5v-27.5v0l17 22t36 47l255 329h54v-501h-65v309v60.5v27.5v0l-8 -10t-20 -26t-25 -33l-254 -329h-55z" />
    <glyph glyph-name="uni0439" unicode="&#x439;" horiz-adv-x="543" 
d="M58 -1v501h65v-310v-59.5v-27.5v0l17 22t36 47l255 329h54v-501h-65v309v60.5v27.5v0l-8 -10t-20 -26t-25 -33l-254 -329h-55zM272 580q-40 0 -73 16.5t-52.5 47.5t-19.5 74h61q0 -40 23.5 -61.5t60.5 -21.5t60.5 21.5t23.5 61.5h61q0 -64 -42.5 -101t-102.5 -37z" />
    <glyph glyph-name="uni043A" unicode="&#x43a;" horiz-adv-x="436" 
d="M365 0l-251 254l238 246h80l-262 -263l2 39l274 -276h-81zM58 0v500h65v-500h-65z" />
    <glyph glyph-name="uni043B" unicode="&#x43b;" horiz-adv-x="521" 
d="M398 0v441h-228l-51 59h344v-500h-65zM8 51q28 8 48.5 25t32.5 50t13 88l8 286h61l-6 -291q-1 -72 -20 -116t-50.5 -67.5t-70.5 -34.5z" />
    <glyph glyph-name="uni043C" unicode="&#x43c;" horiz-adv-x="612" 
d="M58 0v500h59l189 -261l188 261h60v-500h-65v301v43.5v34v13.5v0l-7.5 -11t-19.5 -27.5t-26 -35.5l-123 -170h-14l-123 168q-20 27 -36.5 49.5l-16.5 22.5v0v-13v-33v-43v-299h-65z" />
    <glyph glyph-name="uni043D" unicode="&#x43d;" horiz-adv-x="543" 
d="M420 0v500h65v-500h-65zM58 0v500h65v-500h-65zM107 229l-25 59h379l-25 -59h-329z" />
    <glyph glyph-name="uni043E" unicode="&#x43e;" horiz-adv-x="562" 
d="M281 -9q-71 0 -127 32.5t-88.5 91t-32.5 135.5q0 57 18.5 104.5t52 82t79 53t98.5 18.5q71 0 127 -32.5t88.5 -90.5t32.5 -135q0 -58 -18.5 -105.5t-52 -82t-79 -53t-98.5 -18.5zM281 51q39 0 72.5 13.5t58 39.5t38 63t13.5 83q0 61 -23.5 105.5t-64.5 68.5t-94 24
q-39 0 -72.5 -13.5t-58 -39.5t-38 -62.5t-13.5 -82.5q0 -61 23.5 -106t65 -69t93.5 -24z" />
    <glyph glyph-name="uni043F" unicode="&#x43f;" horiz-adv-x="535" 
d="M58 0v500h419v-500h-65v441h-289v-441h-65z" />
    <glyph glyph-name="uni0440" unicode="&#x440;" horiz-adv-x="575" 
d="M307 -8q-53 0 -93.5 21t-68 57t-41.5 82.5t-14 97.5v0q0 51 14 97.5t41.5 82.5t68 57t93.5 21q66 0 119.5 -32t84.5 -90t31 -136q0 -58 -18 -105.5t-50 -81.5t-74.5 -52.5t-92.5 -18.5zM58 -163v663h65v-175l-15 -75l15 -66v-347h-65zM299 52q39 0 71.5 13.5t56.5 39.5
t37 62.5t13 82.5q0 92 -50 145t-128 53q-39 0 -71.5 -13.5t-56.5 -39.5t-37 -62.5t-13 -82.5q0 -92 50 -145t128 -53z" />
    <glyph glyph-name="uni0441" unicode="&#x441;" horiz-adv-x="518" 
d="M270 -8q-67 0 -120.5 33t-85 91.5t-31.5 133.5q0 57 18 104t50.5 81.5t75.5 53.5t93 19q48 0 91.5 -15.5t79.5 -52.5t58 -101l-58 -24q-25 73 -68.5 103t-102.5 30q-35 0 -66 -13t-54.5 -38.5t-37 -62.5t-13.5 -84q0 -63 23.5 -107.5t62.5 -67.5t85 -23q59 0 102.5 30
t68.5 103l58 -24q-22 -64 -58 -101t-79.5 -52.5t-91.5 -15.5z" />
    <glyph glyph-name="uni0442" unicode="&#x442;" horiz-adv-x="460" 
d="M198 0v441h-182v59h428v-59h-181v-441h-65z" />
    <glyph glyph-name="uni0443" unicode="&#x443;" horiz-adv-x="495" 
d="M229 230q11 -22 20.5 -40.5l9.5 -18.5v0l9 18.5t20 40.5l136 270h72l-332 -663h-72l132 265l-208 398h74z" />
    <glyph glyph-name="uni0444" unicode="&#x444;" horiz-adv-x="665" 
d="M364 51q44 1 81 14.5t64 38t42 61t15 84.5q0 64 -26 108t-71.5 67t-104.5 24v60q79 -1 139.5 -33.5t95 -90t34.5 -135.5q0 -58 -19.5 -105t-55.5 -81t-85.5 -52.5t-108.5 -19.5v60zM301 -9q-79 2 -139.5 34t-95 89.5t-34.5 135.5q0 58 19.5 105t55.5 81t85.5 52.5
t108.5 19.5v-60q-59 -1 -104.5 -24t-71.5 -66.5t-26 -107.5t26 -108t71.5 -66.5t104.5 -24.5v-60zM300 -163v174v8v455v4v222h65v-221v-8v-451v-6v-177h-65z" />
    <glyph glyph-name="uni0445" unicode="&#x445;" horiz-adv-x="471" 
d="M186 145l-113 -145h-76l217 278v-46l-207 268h79l103 -132q9 -12 20 -26.5t19 -25l8 -10.5v0l8.5 10.5t20 25t20.5 26.5l103 132h76l-207 -266v46l217 -280h-79l-113 145q-9 12 -20 26.5t-19 25l-8 10.5v0l-8.5 -10.5t-19.5 -25t-21 -26.5z" />
    <glyph glyph-name="uni0446" unicode="&#x446;" horiz-adv-x="554" 
d="M58 500h65v-441h279v441h65v-500h-409v500zM467 -136v146h-38v49h100v-195h-62z" />
    <glyph glyph-name="uni0447" unicode="&#x447;" horiz-adv-x="502" 
d="M233 183q-65 0 -109 20t-65.5 58.5t-21.5 95.5v143h65v-133q0 -64 32 -94.5t99 -30.5q35 0 82 6.5t96 23.5v-56q-49 -16 -92.5 -24.5t-85.5 -8.5zM379 0v500h65v-500h-65z" />
    <glyph glyph-name="uni0448" unicode="&#x448;" horiz-adv-x="791" 
d="M668 500h65v-500h-675v500h65v-441h240v441h65v-441h240v441z" />
    <glyph glyph-name="uni0449" unicode="&#x449;" horiz-adv-x="820" 
d="M668 500h65v-500h-675v500h65v-441h240v441h65v-441h240v441zM733 -136v146h-38v49h100v-195h-62z" />
    <glyph glyph-name="uni044A" unicode="&#x44a;" horiz-adv-x="572" 
d="M16 441v59h181v-59h-181zM193 0v59h178q53 0 82.5 22.5t29.5 71.5q0 50 -29.5 72t-82.5 22h-178v59h183q77 0 125 -40t48 -113q0 -48 -22 -82.5t-60.5 -52.5t-90.5 -18h-183zM152 0v500h65v-500h-65z" />
    <glyph glyph-name="uni044B" unicode="&#x44b;" horiz-adv-x="663" 
d="M99 0v59h178q53 0 82.5 22.5t29.5 71.5q0 50 -29.5 72t-82.5 22h-178v59h183q77 0 125 -40t48 -113q0 -48 -22 -82.5t-60.5 -52.5t-90.5 -18h-183zM58 0v500h65v-500h-65zM605 500v-500h-65v500h65z" />
    <glyph glyph-name="uni044C" unicode="&#x44c;" horiz-adv-x="478" 
d="M99 0v59h178q53 0 82.5 22.5t29.5 71.5q0 50 -29.5 72t-82.5 22h-178v59h183q77 0 125 -40t48 -113q0 -48 -22 -82.5t-60.5 -52.5t-90.5 -18h-183zM58 0v500h65v-500h-65z" />
    <glyph glyph-name="uni044D" unicode="&#x44d;" horiz-adv-x="522" 
d="M252 -8q-47 0 -91 15.5t-79.5 52.5t-58.5 101l58 24q25 -73 68.5 -103t102.5 -30q35 0 66 13t54.5 38.5t37 62.5t13.5 84q0 63 -23.5 107t-62 67.5t-85.5 23.5q-59 0 -102.5 -30t-68.5 -103l-58 24q23 64 58.5 101t79.5 52.5t91 15.5q67 0 120.5 -33t85 -91t31.5 -134
q0 -57 -18 -104t-50 -81.5t-75.5 -53.5t-93.5 -19zM161 227v55h282v-55h-282z" />
    <glyph glyph-name="uni044E" unicode="&#x44e;" horiz-adv-x="730" 
d="M58 0v500h65v-500h-65zM107 229l-25 59h162l-25 -59h-112zM456 508q69 0 123.5 -31.5t86 -89.5t31.5 -137q0 -59 -18 -107t-50.5 -82t-76.5 -52t-96 -18q-69 0 -123.5 32t-86 90t-31.5 137q0 59 18 106.5t50.5 81.5t76.5 52t96 18zM456 448q-38 0 -70 -13t-55.5 -38.5
t-36.5 -62t-13 -84.5q0 -95 49.5 -147t125.5 -52q38 0 70 13t55.5 38.5t36.5 62.5t13 85q0 95 -49.5 146.5t-125.5 51.5z" />
    <glyph glyph-name="uni044F" unicode="&#x44f;" horiz-adv-x="479" 
d="M221 192q-50 0 -90 19t-63 53.5t-23 81.5q0 49 22 83t62 52.5t92 18.5h155v-59h-150q-55 0 -85 -24t-30 -71q0 -46 29.5 -70.5t85.5 -24.5h147v-59h-152zM14 0l188 218l76 -1l-182 -217h-82zM356 0v500h65v-500h-65z" />
    <glyph glyph-name="uni0450" unicode="&#x450;" horiz-adv-x="528" 
d="M267 -9q-67 0 -120 32.5t-83.5 91t-30.5 135.5q0 60 17.5 107.5t49.5 81t75 51.5t94 18q65 0 116 -31t80.5 -87.5t29.5 -132.5v-11t-1 -10h-423v55h384l-28 -45v4v3q0 98 -45.5 146.5t-113.5 48.5q-38 0 -69 -13.5t-53.5 -39.5t-34.5 -62.5t-12 -82.5q0 -63 23 -107.5
t61.5 -68t86.5 -23.5q36 0 67 11.5t56.5 37t42.5 68.5l56 -26q-24 -57 -60 -90t-78.5 -47t-86.5 -14zM251 584l-95 134h74l86 -134h-65z" />
    <glyph glyph-name="uni0451" unicode="&#x451;" horiz-adv-x="528" 
d="M267 -9q-67 0 -120 32.5t-83.5 91t-30.5 135.5q0 60 17.5 107.5t49.5 81t75 51.5t94 18q65 0 116 -31t80.5 -87.5t29.5 -132.5v-11t-1 -10h-423v55h384l-28 -45v4v3q0 98 -45.5 146.5t-113.5 48.5q-38 0 -69 -13.5t-53.5 -39.5t-34.5 -62.5t-12 -82.5q0 -63 23 -107.5
t61.5 -68t86.5 -23.5q36 0 67 11.5t56.5 37t42.5 68.5l56 -26q-24 -57 -60 -90t-78.5 -47t-86.5 -14zM159 596q-19 0 -32 12.5t-13 32.5t13 32.5t32 12.5q20 0 32.5 -12.5t12.5 -32.5t-12.5 -32.5t-32.5 -12.5zM379 596q-19 0 -32 12.5t-13 32.5t13 32.5t32 12.5
q20 0 32.5 -12.5t12.5 -32.5t-12.5 -32.5t-32.5 -12.5z" />
    <glyph glyph-name="uni0452" unicode="&#x452;" horiz-adv-x="518" 
d="M292 -148q29 49 51.5 97.5t38.5 97t24 96.5t8 96q0 95 -31.5 152t-108.5 57q-67 0 -109 -40.5t-42 -108.5v-299h-65v700h65v-311l-10 9q24 58 71.5 84t98.5 26q67 0 110.5 -32.5t65 -91.5t21.5 -140q0 -52 -9 -104.5t-26.5 -105t-43 -105t-57.5 -105.5zM-16 558v57h267
v-57h-267z" />
    <glyph glyph-name="uni0453" unicode="&#x453;" horiz-adv-x="391" 
d="M58 500h317v-59h-252v-441h-65v500zM170 584l86 134h74l-95 -134h-65z" />
    <glyph glyph-name="uni0454" unicode="&#x454;" horiz-adv-x="522" 
d="M79 227v55h282v-55h-282zM270 -8q-67 0 -120.5 33t-85 91.5t-31.5 133.5q0 57 18 104t50.5 81.5t75.5 53.5t93 19q48 0 91.5 -15.5t79.5 -52.5t58 -101l-58 -24q-25 73 -68.5 103t-102.5 30q-35 0 -66 -13t-54.5 -38.5t-37 -62.5t-13.5 -84q0 -63 23.5 -107.5t62.5 -67.5
t85 -23q59 0 102.5 30t68.5 103l58 -24q-22 -64 -58 -101t-79.5 -52.5t-91.5 -15.5z" />
    <glyph glyph-name="uni0455" unicode="&#x455;" horiz-adv-x="458" 
d="M233 -9q-49 0 -91.5 15t-73.5 49.5t-46 92.5l57 16q10 -41 33.5 -66t54.5 -36t65 -11q59 0 94 23t35 57t-30 52.5t-91 33.5l-51 13q-79 20 -113 57t-34 87q0 39 22.5 69t62.5 47.5t92 17.5q48 0 91 -17t73 -52t38 -90l-58 -12q-12 62 -52.5 86t-91.5 24q-47 0 -78 -20
t-31 -53q0 -25 16.5 -41.5t43 -27t56.5 -18.5l51 -13q78 -20 114.5 -53.5t36.5 -88.5q0 -40 -24 -72t-68 -50.5t-103 -18.5z" />
    <glyph glyph-name="uni0456" unicode="&#x456;" horiz-adv-x="181" 
d="M123 500v-500h-65v500h65zM90 616q-21 0 -35 14.5t-14 36.5q0 21 14 35.5t35 14.5q22 0 36.5 -14.5t14.5 -35.5q0 -22 -14.5 -36.5t-36.5 -14.5z" />
    <glyph glyph-name="uni0457" unicode="&#x457;" horiz-adv-x="181" 
d="M25 616q-18 0 -30 12t-12 33t12 33t30 12t30 -12t12 -33t-12 -33t-30 -12zM155 616q-18 0 -30 12t-12 33t12 33t30 12t30 -12t12 -33t-12 -33t-30 -12zM123 500v-500h-65v500h65z" />
    <glyph glyph-name="uni0458" unicode="&#x458;" horiz-adv-x="181" 
d="M123 -41q0 -62 -29 -94.5t-81 -32.5h-23v61h17q25 0 38 17t13 52v538h65v-541zM90 616q-21 0 -35 14.5t-14 36.5q0 21 14 35.5t35 14.5q22 0 36.5 -14.5t14.5 -35.5q0 -22 -14.5 -36.5t-36.5 -14.5z" />
    <glyph glyph-name="uni0459" unicode="&#x459;" horiz-adv-x="793" 
d="M404 0v59h193q51 0 79 21.5t28 69.5t-28 69.5t-79 21.5h-193v59h198q50 0 88 -17.5t59 -51t21 -81.5q0 -47 -21 -81t-59 -51.5t-88 -17.5h-198zM450 500v-500h-65v441h-215l-5 -232q-1 -72 -20 -116t-50.5 -67.5t-70.5 -34.5l-16 60q28 8 48.5 25t32.5 50t13 88l8 286
h340z" />
    <glyph glyph-name="uni045A" unicode="&#x45a;" horiz-adv-x="802" 
d="M435 0v59h171q51 0 79 21.5t28 69.5t-28 69.5t-79 21.5h-171v59h176q50 0 88 -17.5t59 -51t21 -81.5q0 -47 -21 -81t-59 -51.5t-88 -17.5h-176zM394 300v200h65v-500h-65v241h-271v-241h-65v500h65v-200h271z" />
    <glyph glyph-name="uni045B" unicode="&#x45b;" horiz-adv-x="528" 
d="M251 615v-57h-267v57h267zM58 0v700h65v-311l-10 9q24 58 71.5 84t98.5 26q56 0 99.5 -24.5t68 -69.5t24.5 -106v-308h-65v299q0 68 -37.5 108.5t-98.5 40.5q-67 0 -109 -40.5t-42 -108.5v-299h-65z" />
    <glyph glyph-name="uni045C" unicode="&#x45c;" horiz-adv-x="436" 
d="M365 0l-251 254l238 246h80l-262 -263l2 39l274 -276h-81zM58 0v500h65v-500h-65zM200 584l86 134h74l-95 -134h-65z" />
    <glyph glyph-name="uni045D" unicode="&#x45d;" horiz-adv-x="543" 
d="M58 -1v501h65v-310v-59.5v-27.5v0l17 22t36 47l255 329h54v-501h-65v309v60.5v27.5v0l-8 -10t-20 -26t-25 -33l-254 -329h-55zM254 584l-95 134h74l86 -134h-65z" />
    <glyph glyph-name="uni045E" unicode="&#x45e;" horiz-adv-x="495" 
d="M229 230q11 -22 20.5 -40.5l9.5 -18.5v0l9 18.5t20 40.5l136 270h72l-332 -663h-72l132 265l-208 398h74zM257 580q-40 0 -73 16.5t-52.5 47.5t-19.5 74h61q0 -40 23.5 -61.5t60.5 -21.5t60.5 21.5t23.5 61.5h61q0 -64 -42.5 -101t-102.5 -37z" />
    <glyph glyph-name="uni045F" unicode="&#x45f;" horiz-adv-x="525" 
d="M58 500h65v-441h279v441h65v-500h-409v500zM232 -136v172h62v-172h-62z" />
    <glyph glyph-name="uni0462" unicode="&#x462;" horiz-adv-x="695" 
d="M215 0v63h225q75 0 116 33.5t41 107.5t-41 107.5t-116 33.5h-225v63h231q65 0 115 -23t78 -68.5t28 -112.5t-28 -112.5t-78 -68.5t-115 -23h-231zM175 0v715h67v-715h-67zM20 531v64h529v-64h-529z" />
    <glyph glyph-name="uni0463" unicode="&#x463;" horiz-adv-x="578" 
d="M198 0v59h183q51 0 79 21.5t28 66.5t-28 66.5t-79 21.5h-183v59h188q75 0 121.5 -39.5t46.5 -107.5q0 -45 -21 -78t-59 -51t-88 -18h-188zM157 0v700h65v-700h-65zM16 441v59h441v-59h-441z" />
    <glyph glyph-name="uni0472" unicode="&#x472;" horiz-adv-x="767" 
d="M673 328q-34 -18 -66.5 -25t-64.5 -7q-43 0 -84 9.5t-80.5 21.5t-78.5 21.5t-80 9.5q-29 0 -58.5 -6.5t-60.5 -23.5l-6 63q34 18 67 25t64 7q43 0 84 -9.5t80.5 -21.5t79 -21.5t79.5 -9.5q29 0 58.5 7t60.5 23zM384 -9q-102 0 -181 45.5t-123.5 126.5t-44.5 187
q0 80 25.5 146t72 113.5t110.5 73.5t141 26q103 0 181 -45.5t122.5 -126t44.5 -187.5q0 -80 -25.5 -146t-72 -113.5t-110 -73.5t-140.5 -26zM384 56q60 0 110.5 20t88.5 58.5t58.5 93t20.5 122.5q0 91 -36 157t-99 101.5t-143 35.5q-60 0 -111 -20t-88.5 -58.5t-58.5 -93
t-21 -122.5q0 -91 36.5 -157t99.5 -101.5t143 -35.5z" />
    <glyph glyph-name="uni0473" unicode="&#x473;" horiz-adv-x="562" 
d="M87 284q24 11 46 16t43 5q41 0 74 -10t65.5 -20.5t68.5 -10.5q20 0 41 4.5t44 15.5l3 -55q-24 -11 -46 -16t-43 -5q-40 0 -73.5 10.5t-65.5 20.5t-69 10q-19 0 -40.5 -4.5t-44.5 -15.5zM281 -9q-71 0 -127 32.5t-88.5 91t-32.5 135.5q0 57 18.5 104.5t52 82t79 53
t98.5 18.5q71 0 127 -32.5t88.5 -90.5t32.5 -135q0 -58 -18.5 -105.5t-52 -82t-79 -53t-98.5 -18.5zM281 51q39 0 72.5 13.5t58 39.5t38 63t13.5 83q0 61 -23.5 105.5t-64.5 68.5t-94 24q-39 0 -72.5 -13.5t-58 -39.5t-38 -62.5t-13.5 -82.5q0 -61 23.5 -106t65 -69
t93.5 -24z" />
    <glyph glyph-name="uni0474" unicode="&#x474;" horiz-adv-x="692" 
d="M279 0l-273 701h72l204 -532q11 -28 20 -51.5l9 -23.5v0l9 23.5t20 51.5l170 445q11 27 26 47.5t37 32t51 11.5q14 0 28.5 -3t28.5 -9l-21 -59q-6 3 -14 4.5t-16 1.5q-25 0 -38 -15t-24 -41l-226 -584h-63z" />
    <glyph glyph-name="uni0475" unicode="&#x475;" horiz-adv-x="557" 
d="M224 -1l-214 501h70l143 -341q11 -26 20.5 -48l9.5 -22v0l9 22t19 49l100 247q20 49 44.5 73t67.5 24q13 0 25.5 -2.5t23.5 -8.5l-22 -53q-6 3 -11.5 4t-11.5 1q-22 0 -34.5 -16.5t-24.5 -45.5l-158 -384h-56z" />
    <glyph glyph-name="uni0490" unicode="&#x490;" horiz-adv-x="519" 
d="M443 846h64v-210h-370v-636h-67v700h373v146z" />
    <glyph glyph-name="uni0491" unicode="&#x491;" horiz-adv-x="392" 
d="M58 0v500h318v-59h-253v-441h-65zM314 451v183h62v-183h-62z" />
    <glyph glyph-name="uni0492" unicode="&#x492;" horiz-adv-x="541" 
d="M400 372v-63h-390v63h390zM166 636v-636h-67v700h430v-64h-363z" />
    <glyph glyph-name="uni0493" unicode="&#x493;" horiz-adv-x="428" 
d="M328 280v-59h-309v59h309zM95 500h317v-59h-252v-441h-65v500z" />
    <glyph glyph-name="uni0496" unicode="&#x496;" horiz-adv-x="932" 
d="M874 -136v136h-38l-20 63h122v-199h-64zM826 0l-358 351l336 349h81l-353 -364l-1 40l382 -376h-87zM-16 0l382 376l-1 -40l-353 364h81l336 -349l-358 -351h-87zM415 0v700h67v-700h-67z" />
    <glyph glyph-name="uni0497" unicode="&#x497;" horiz-adv-x="694" 
d="M631 -136v136h-38v59h100v-195h-62zM588 0l-234 251l221 249h78l-244 -270v43l258 -273h-79zM-6 0l258 273v-43l-244 270h78l221 -249l-234 -251h-79zM298 0v500h65v-500h-65z" />
    <glyph glyph-name="uni0498" unicode="&#x498;" horiz-adv-x="582" 
d="M278 -8q-50 0 -103 17t-96.5 59t-65.5 116l63 23q17 -57 50.5 -89.5t74 -46.5t76.5 -14q50 0 96 12.5t75 41.5t29 80t-27.5 81t-74.5 43t-106 13h-82v63h82q56 0 96.5 13t63 41t22.5 71q0 57 -46 92t-125 35q-44 0 -80 -13.5t-64 -43.5t-48 -81l-58 26q20 58 57.5 97.5
t87.5 59.5t109 20q71 0 124 -24t83 -66.5t30 -98.5q0 -43 -18.5 -75.5t-54 -54t-87.5 -31.5l-1 9q62 -7 103.5 -30t62.5 -60t21 -86q0 -57 -24 -95t-63 -61t-86.5 -33t-95.5 -10zM218 -168v59h54q33 0 33 27q0 21 -22 43l-38 39l46 15l41 -38q20 -18 29 -37.5t9 -37.5
q0 -29 -23.5 -49.5t-70.5 -20.5h-58z" />
    <glyph glyph-name="uni0499" unicode="&#x499;" horiz-adv-x="472" 
d="M242 -9q-46 0 -89 16t-77.5 49.5t-58.5 86.5l56 26q28 -63 69 -90.5t91 -27.5q37 0 69 8t52.5 27.5t20.5 53.5q0 35 -20 53.5t-53.5 26t-74.5 7.5h-73v58h74q36 0 65.5 8.5t46.5 26.5t17 46q0 41 -35 61.5t-89 20.5q-47 0 -83.5 -24.5t-56.5 -76.5l-57 23q18 45 47 76
t68.5 46.5t86.5 15.5q53 0 94.5 -17t65.5 -48t24 -73q0 -45 -35.5 -75t-91.5 -43v10q42 -5 75 -21.5t51.5 -43t18.5 -61.5q0 -49 -27 -81t-72 -48t-99 -16zM191 -168v59h54q33 0 33 27q0 21 -22 43l-38 39l46 15l41 -38q20 -18 29 -37.5t9 -37.5q0 -29 -23.5 -49.5
t-70.5 -20.5h-58z" />
    <glyph glyph-name="uni049A" unicode="&#x49a;" horiz-adv-x="620" 
d="M562 -136v136h-38l-20 63h122v-199h-64zM137 700v-700h-67v700h67zM511 0l-388 351l367 349h91l-389 -364l-1 40l416 -376h-96z" />
    <glyph glyph-name="uni049B" unicode="&#x49b;" horiz-adv-x="467" 
d="M406 -136v136h-38v59h100v-195h-62zM365 0l-251 254l238 246h80l-262 -263l2 39l274 -276h-81zM58 0v500h65v-500h-65z" />
    <glyph glyph-name="uni049C" unicode="&#x49c;" horiz-adv-x="622" 
d="M551 0l-268 351l247 349h80l-265 -364l-1 40l292 -376h-85zM70 0v700h67v-700h-67zM97 321v63h237v-63h-237zM218 129v442h64v-442h-64z" />
    <glyph glyph-name="uni049D" unicode="&#x49d;" horiz-adv-x="462" 
d="M454 500l-198 -267l1 47l211 -280h-73l-191 256l178 244h72zM123 500v-500h-65v500h65zM107 229l-25 59h189l-25 -59h-139zM219 416v-318h-53v318h53z" />
    <glyph glyph-name="uni04A0" unicode="&#x4a0;" horiz-adv-x="755" 
d="M11 637v63h255v-63h-255zM303 700v-700h-67v700h67zM677 0l-388 351l367 349h91l-389 -364l-1 40l416 -376h-96z" />
    <glyph glyph-name="uni04A1" unicode="&#x4a1;" horiz-adv-x="548" 
d="M16 441v59h197v-59h-197zM477 0l-251 254l238 246h80l-262 -263l2 39l274 -276h-81zM170 0v500h65v-500h-65z" />
    <glyph glyph-name="uni04A2" unicode="&#x4a2;" horiz-adv-x="716" 
d="M628 -136v136h-38l-20 63h122v-199h-64zM621 700v-700h-67v700h67zM137 700v-700h-67v700h67zM594 384v-63h-497v63h497z" />
    <glyph glyph-name="uni04A3" unicode="&#x4a3;" horiz-adv-x="572" 
d="M485 -136v136h-38v59h100v-195h-62zM420 0v500h65v-500h-65zM58 0v500h65v-500h-65zM107 229l-25 59h379l-25 -59h-329z" />
    <glyph glyph-name="uni04A4" unicode="&#x4a4;" horiz-adv-x="887" 
d="M591 637v63h285v-63h-285zM621 700v-700h-67v700h67zM137 700v-700h-67v700h67zM594 384v-63h-497v63h497z" />
    <glyph glyph-name="uni04A5" unicode="&#x4a5;" horiz-adv-x="655" 
d="M456 441v59h197v-59h-197zM420 0v500h65v-500h-65zM58 0v500h65v-500h-65zM107 229l-25 59h379l-25 -59h-329z" />
    <glyph glyph-name="uni04AA" unicode="&#x4aa;" horiz-adv-x="700" 
d="M378 -9q-99 0 -176.5 45.5t-121.5 126.5t-44 187q0 80 25 146t71 113.5t108.5 73.5t137.5 26q72 0 132 -25t104 -71t69 -110l-63 -29q-19 54 -54.5 92t-83 58t-104.5 20q-58 0 -107.5 -20t-86.5 -58.5t-57.5 -93t-20.5 -122.5q0 -91 35.5 -157t97.5 -101.5t139 -35.5
q85 0 149 45t93 125l63 -29q-37 -95 -117 -150.5t-188 -55.5zM317 -168v59h54q33 0 33 27q0 21 -22 43l-38 39l46 15l41 -38q20 -18 29 -37.5t9 -37.5q0 -29 -23.5 -49.5t-70.5 -20.5h-58z" />
    <glyph glyph-name="uni04AB" unicode="&#x4ab;" horiz-adv-x="518" 
d="M270 -8q-67 0 -120.5 33t-85 91.5t-31.5 133.5q0 57 18 104t50.5 81.5t75.5 53.5t93 19q48 0 91.5 -15.5t79.5 -52.5t58 -101l-58 -24q-25 73 -68.5 103t-102.5 30q-35 0 -66 -13t-54.5 -38.5t-37 -62.5t-13.5 -84q0 -63 23.5 -107.5t62.5 -67.5t85 -23q59 0 102.5 30
t68.5 103l58 -24q-22 -64 -58 -101t-79.5 -52.5t-91.5 -15.5zM206 -168v59h54q33 0 33 27q0 21 -22 43l-38 39l46 15l41 -38q20 -18 29 -37.5t9 -37.5q0 -29 -23.5 -49.5t-70.5 -20.5h-58z" />
    <glyph glyph-name="uni04AE" unicode="&#x4ae;" horiz-adv-x="651" 
d="M326 300l-314 400h80l240 -297h-12l240 297h78zM292 0v392h67v-392h-67z" />
    <glyph glyph-name="uni04AF" unicode="&#x4af;" horiz-adv-x="489" 
d="M214 -1l-203 501h70l140 -349q11 -25 17.5 -43l6.5 -18v0l7.5 18t17.5 43l139 349h69l-203 -501h-61zM214 -163v167h61v-167h-61z" />
    <glyph glyph-name="uni04B0" unicode="&#x4b0;" horiz-adv-x="629" 
d="M518 343v-63h-420v63h420zM315 300l-314 400h80l240 -297h-12l240 297h78zM281 0v392h67v-392h-67z" />
    <glyph glyph-name="uni04B1" unicode="&#x4b1;" horiz-adv-x="489" 
d="M104 -59v59h281v-59h-281zM214 -1l-203 501h70l140 -349q11 -25 17.5 -43l6.5 -18v0l7.5 18t17.5 43l139 349h69l-203 -501h-61zM214 -163v167h61v-167h-61z" />
    <glyph glyph-name="uni04B2" unicode="&#x4b2;" horiz-adv-x="642" 
d="M583 -136v136h-38l-20 63h122v-199h-64zM-7 0l287 380v-46l-275 366h81l162 -215q12 -15 24.5 -32.5t21.5 -29.5l9 -12v0l9 12t22.5 29.5t24.5 32.5l162 215h79l-274 -364v46l286 -382h-81l-174 231q-11 16 -24 33t-22 29l-9 12v0l-9 -12t-22 -29.5t-25 -32.5l-174 -231
h-79z" />
    <glyph glyph-name="uni04B3" unicode="&#x4b3;" horiz-adv-x="503" 
d="M440 -136v136h-38v59h100v-195h-62zM186 145l-113 -145h-76l217 278v-46l-207 268h79l103 -132q9 -12 20 -26.5t19 -25l8 -10.5v0l8.5 10.5t20 25t20.5 26.5l103 132h76l-207 -266v46l217 -280h-79l-113 145q-9 12 -20 26.5t-19 25l-8 10.5v0l-8.5 -10.5t-19.5 -25
t-21 -26.5z" />
    <glyph glyph-name="uni04B6" unicode="&#x4b6;" horiz-adv-x="626" 
d="M538 -136v136h-38l-20 63h122v-199h-64zM293 272q-77 0 -134 29t-88 83.5t-31 131.5v184h67v-184q0 -88 49 -133.5t137 -45.5q43 0 96 6.5t102 23.5v-62q-33 -11 -66 -18.5t-66 -11t-66 -3.5zM464 0v700h67v-700h-67z" />
    <glyph glyph-name="uni04B7" unicode="&#x4b7;" horiz-adv-x="531" 
d="M444 -136v136h-38v59h100v-195h-62zM233 183q-65 0 -109 20t-65.5 58.5t-21.5 95.5v143h65v-133q0 -64 32 -94.5t99 -30.5q35 0 82 6.5t96 23.5v-56q-49 -16 -92.5 -24.5t-85.5 -8.5zM379 0v500h65v-500h-65z" />
    <glyph glyph-name="uni04B8" unicode="&#x4b8;" horiz-adv-x="609" 
d="M301 303q-80 0 -139.5 28t-91.5 80.5t-32 126.5v162h67v-162q0 -84 51.5 -127t144.5 -43q43 0 96 6.5t102 23.5v-62q-33 -11 -66 -18.5t-66 -11t-66 -3.5zM253 129v442h64v-442h-64zM472 0v700h67v-700h-67z" />
    <glyph glyph-name="uni04B9" unicode="&#x4b9;" horiz-adv-x="500" 
d="M231 204q-65 0 -109 20t-65.5 58.5t-21.5 95.5v122h65v-112q0 -64 32 -94.5t99 -30.5q35 0 82 6.5t96 23.5v-56q-49 -16 -92.5 -24.5t-85.5 -8.5zM212 98v318h53v-318h-53zM377 0v500h65v-500h-65z" />
    <glyph glyph-name="uni04BA" unicode="&#x4ba;" horiz-adv-x="604" 
d="M308 428q77 0 134 -29t88 -83.5t31 -131.5v-184h-67v184q0 88 -49 133.5t-137 45.5q-43 0 -96 -6.5t-102 -23.5v62q33 11 66 18.5t66 11t66 3.5zM137 700v-700h-67v700h67z" />
    <glyph glyph-name="uni04BB" unicode="&#x4bb;" horiz-adv-x="528" 
d="M58 0v700h65v-311l-10 9q24 58 71.5 84t98.5 26q56 0 99.5 -24.5t68 -69.5t24.5 -106v-308h-65v299q0 68 -37.5 108.5t-98.5 40.5q-67 0 -109 -40.5t-42 -108.5v-299h-65z" />
    <glyph glyph-name="uni04C0" unicode="&#x4c0;" horiz-adv-x="207" 
d="M137 700v-700h-67v700h67z" />
    <glyph glyph-name="uni04C1" unicode="&#x4c1;" horiz-adv-x="897" 
d="M826 0l-358 351l336 349h81l-353 -364l-1 40l382 -376h-87zM-16 0l382 376l-1 -40l-353 364h81l336 -349l-358 -351h-87zM415 0v700h67v-700h-67zM449 780q-40 0 -73 16.5t-52.5 47.5t-19.5 74h61q0 -40 23.5 -61.5t60.5 -21.5t60.5 21.5t23.5 61.5h61q0 -64 -42.5 -101
t-102.5 -37z" />
    <glyph glyph-name="uni04C2" unicode="&#x4c2;" horiz-adv-x="661" 
d="M588 0l-234 251l221 249h78l-244 -270v43l258 -273h-79zM-6 0l258 273v-43l-244 270h78l221 -249l-234 -251h-79zM298 0v500h65v-500h-65zM331 580q-40 0 -73 16.5t-52.5 47.5t-19.5 74h61q0 -40 23.5 -61.5t60.5 -21.5t60.5 21.5t23.5 61.5h61q0 -64 -42.5 -101
t-102.5 -37z" />
    <glyph glyph-name="uni04CF" unicode="&#x4cf;" horiz-adv-x="181" 
d="M123 700v-700h-65v700h65z" />
    <glyph glyph-name="uni04D0" unicode="&#x4d0;" horiz-adv-x="637" 
d="M5 0l282 700h63l283 -700h-72l-214 542q-11 28 -20 50.5l-9 22.5v0l-9 -22.5t-20 -50.5l-214 -542h-70zM146 221l25 63h294l25 -63h-344zM319 780q-40 0 -73 16.5t-52.5 47.5t-19.5 74h61q0 -40 23.5 -61.5t60.5 -21.5t60.5 21.5t23.5 61.5h61q0 -64 -42.5 -101
t-102.5 -37z" />
    <glyph glyph-name="uni04D1" unicode="&#x4d1;" horiz-adv-x="508" 
d="M390 0v97l3 14v80l-3 6v108q0 54 -21.5 85.5t-55 45t-70.5 13.5q-55 0 -94 -28.5t-51 -76.5l-56 18q16 69 71.5 107.5t129.5 38.5q40 0 77.5 -11t68 -34t48.5 -60.5t18 -90.5v-312h-65zM229 -9q-52 0 -98.5 17t-75.5 51.5t-29 84.5q0 51 29 85t75.5 51t97.5 17
q94 0 143 -41t49 -112v0q0 -71 -48.5 -112t-142.5 -41zM244 46q62 0 105 25t43 73t-43 73t-105 25t-106.5 -24t-44.5 -74q0 -49 44.5 -73.5t106.5 -24.5zM251 580q-40 0 -73 16.5t-52.5 47.5t-19.5 74h61q0 -40 23.5 -61.5t60.5 -21.5t60.5 21.5t23.5 61.5h61
q0 -64 -42.5 -101t-102.5 -37z" />
    <glyph glyph-name="uni04D2" unicode="&#x4d2;" horiz-adv-x="637" 
d="M5 0l282 700h63l283 -700h-72l-214 542q-11 28 -20 50.5l-9 22.5v0l-9 -22.5t-20 -50.5l-214 -542h-70zM146 221l25 63h294l25 -63h-344zM209 796q-19 0 -32 12.5t-13 32.5t13 32.5t32 12.5q20 0 32.5 -12.5t12.5 -32.5t-12.5 -32.5t-32.5 -12.5zM429 796q-19 0 -32 12.5
t-13 32.5t13 32.5t32 12.5q20 0 32.5 -12.5t12.5 -32.5t-12.5 -32.5t-32.5 -12.5z" />
    <glyph glyph-name="uni04D3" unicode="&#x4d3;" horiz-adv-x="508" 
d="M390 0v97l3 14v80l-3 6v108q0 54 -21.5 85.5t-55 45t-70.5 13.5q-55 0 -94 -28.5t-51 -76.5l-56 18q16 69 71.5 107.5t129.5 38.5q40 0 77.5 -11t68 -34t48.5 -60.5t18 -90.5v-312h-65zM229 -9q-52 0 -98.5 17t-75.5 51.5t-29 84.5q0 51 29 85t75.5 51t97.5 17
q94 0 143 -41t49 -112v0q0 -71 -48.5 -112t-142.5 -41zM244 46q62 0 105 25t43 73t-43 73t-105 25t-106.5 -24t-44.5 -74q0 -49 44.5 -73.5t106.5 -24.5zM141 596q-19 0 -32 12.5t-13 32.5t13 32.5t32 12.5q20 0 32.5 -12.5t12.5 -32.5t-12.5 -32.5t-32.5 -12.5zM361 596
q-19 0 -32 12.5t-13 32.5t13 32.5t32 12.5q20 0 32.5 -12.5t12.5 -32.5t-12.5 -32.5t-32.5 -12.5z" />
    <glyph glyph-name="uni04D4" unicode="&#x4d4;" horiz-adv-x="968" 
d="M934 700v-63h-370v-253h331v-63h-331v-258h370v-63h-437v201h-288l-143 -201h-79l501 700h446zM497 516v44v34.5v13.5v0l-8 -11t-20 -28t-25 -36l-153 -216q-14 -20 -26 -36.5l-12 -16.5v0h20.5h44.5h179v252z" />
    <glyph glyph-name="uni04D5" unicode="&#x4d5;" horiz-adv-x="884" 
d="M623 -9q-64 0 -115 32.5t-80.5 91t-29.5 135.5q0 60 17 107.5t47.5 81t72 51.5t90.5 18q65 0 116 -31t80.5 -87.5t29.5 -132.5v-11t-1 -10h-423v55h384l-28 -46v4v4q0 66 -21 109t-56.5 64.5t-81.5 21.5q-38 0 -69 -13.5t-53.5 -39.5t-34.5 -62.5t-12 -82.5
q0 -63 23 -107.5t61.5 -68t86.5 -23.5q36 0 67 11.5t56.5 37t42.5 68.5l56 -26q-24 -57 -60 -90t-78.5 -47t-86.5 -14zM238 -9q-58 0 -106 17t-77 51.5t-29 84.5q0 51 29 85t75.5 51t97.5 17q94 0 143 -41t49 -112h24q0 -46 -26.5 -80.5t-72.5 -53.5t-107 -19zM244 46
q62 0 105 25t43 73t-43 73t-105 25q-41 0 -75.5 -11t-55 -32.5t-20.5 -54.5q0 -49 44.5 -73.5t106.5 -24.5zM390 305q0 54 -21.5 85.5t-55 45t-70.5 13.5q-55 0 -94 -28.5t-51 -76.5l-56 18q16 69 71.5 107.5t129.5 38.5q52 0 98.5 -19.5t76 -62.5t29.5 -114l-57 -115v108z
" />
    <glyph glyph-name="uni04D6" unicode="&#x4d6;" horiz-adv-x="569" 
d="M137 700v-700h-67v700h67zM535 63v-63h-438v63h438zM496 384v-63h-399v63h399zM535 700v-63h-438v63h438zM301 780q-40 0 -73 16.5t-52.5 47.5t-19.5 74h61q0 -40 23.5 -61.5t60.5 -21.5t60.5 21.5t23.5 61.5h61q0 -64 -42.5 -101t-102.5 -37z" />
    <glyph glyph-name="uni04D7" unicode="&#x4d7;" horiz-adv-x="528" 
d="M267 -9q-67 0 -120 32.5t-83.5 91t-30.5 135.5q0 60 17.5 107.5t49.5 81t75 51.5t94 18q65 0 116 -31t80.5 -87.5t29.5 -132.5v-11t-1 -10h-423v55h384l-28 -45v4v3q0 98 -45.5 146.5t-113.5 48.5q-38 0 -69 -13.5t-53.5 -39.5t-34.5 -62.5t-12 -82.5q0 -63 23 -107.5
t61.5 -68t86.5 -23.5q36 0 67 11.5t56.5 37t42.5 68.5l56 -26q-24 -57 -60 -90t-78.5 -47t-86.5 -14zM269 580q-40 0 -73 16.5t-52.5 47.5t-19.5 74h61q0 -40 23.5 -61.5t60.5 -21.5t60.5 21.5t23.5 61.5h61q0 -64 -42.5 -101t-102.5 -37z" />
    <glyph glyph-name="uni04D8" unicode="&#x4d8;" horiz-adv-x="737" 
d="M363 -8q-98 0 -172 42.5t-115 120.5t-41 185v10.5v10.5h630v-63h-586l26 53v-2.5v-3.5q0 -91 32 -156t90 -99t136 -34q56 0 105 20t86 58t57.5 92.5t20.5 123.5q0 92 -36.5 158t-99 101t-139.5 35q-85 0 -152 -45.5t-103 -137.5l-61 31q28 69 75 117.5t108.5 74
t131.5 25.5q99 0 177 -44t123.5 -124.5t45.5 -190.5q0 -82 -25.5 -148.5t-72 -113t-108 -71.5t-133.5 -25z" />
    <glyph glyph-name="uni04D9" unicode="&#x4d9;" horiz-adv-x="528" 
d="M261 509q67 0 120 -32.5t83.5 -91t30.5 -135.5q0 -60 -17.5 -107.5t-49.5 -81t-75 -51.5t-94 -18q-65 0 -116 31t-80.5 87.5t-29.5 132.5v11t1 10h423v-55h-384l28 45v-4v-3q0 -98 45.5 -146.5t113.5 -48.5q38 0 69 13.5t53.5 39.5t34.5 62.5t12 82.5q0 63 -23 107.5
t-61.5 68t-86.5 23.5q-36 0 -67 -11.5t-56.5 -37t-42.5 -68.5l-56 26q24 57 60 90t78.5 47t86.5 14z" />
    <glyph glyph-name="uni04DA" unicode="&#x4da;" horiz-adv-x="737" 
d="M363 -8q-98 0 -172 42.5t-115 120.5t-41 185v10.5v10.5h630v-63h-586l26 53v-2.5v-3.5q0 -91 32 -156t90 -99t136 -34q56 0 105 20t86 58t57.5 92.5t20.5 123.5q0 92 -36.5 158t-99 101t-139.5 35q-85 0 -152 -45.5t-103 -137.5l-61 31q28 69 75 117.5t108.5 74
t131.5 25.5q99 0 177 -44t123.5 -124.5t45.5 -190.5q0 -82 -25.5 -148.5t-72 -113t-108 -71.5t-133.5 -25zM246 796q-19 0 -32 12.5t-13 32.5t13 32.5t32 12.5q20 0 32.5 -12.5t12.5 -32.5t-12.5 -32.5t-32.5 -12.5zM466 796q-19 0 -32 12.5t-13 32.5t13 32.5t32 12.5
q20 0 32.5 -12.5t12.5 -32.5t-12.5 -32.5t-32.5 -12.5z" />
    <glyph glyph-name="uni04DB" unicode="&#x4db;" horiz-adv-x="528" 
d="M261 509q67 0 120 -32.5t83.5 -91t30.5 -135.5q0 -60 -17.5 -107.5t-49.5 -81t-75 -51.5t-94 -18q-65 0 -116 31t-80.5 87.5t-29.5 132.5v11t1 10h423v-55h-384l28 45v-4v-3q0 -98 45.5 -146.5t113.5 -48.5q38 0 69 13.5t53.5 39.5t34.5 62.5t12 82.5q0 63 -23 107.5
t-61.5 68t-86.5 23.5q-36 0 -67 -11.5t-56.5 -37t-42.5 -68.5l-56 26q24 57 60 90t78.5 47t86.5 14zM159 596q-19 0 -32 12.5t-13 32.5t13 32.5t32 12.5q20 0 32.5 -12.5t12.5 -32.5t-12.5 -32.5t-32.5 -12.5zM379 596q-19 0 -32 12.5t-13 32.5t13 32.5t32 12.5
q20 0 32.5 -12.5t12.5 -32.5t-12.5 -32.5t-32.5 -12.5z" />
    <glyph glyph-name="uni04DC" unicode="&#x4dc;" horiz-adv-x="897" 
d="M826 0l-358 351l336 349h81l-353 -364l-1 40l382 -376h-87zM-16 0l382 376l-1 -40l-353 364h81l336 -349l-358 -351h-87zM415 0v700h67v-700h-67zM339 796q-19 0 -32 12.5t-13 32.5t13 32.5t32 12.5q20 0 32.5 -12.5t12.5 -32.5t-12.5 -32.5t-32.5 -12.5zM559 796
q-19 0 -32 12.5t-13 32.5t13 32.5t32 12.5q20 0 32.5 -12.5t12.5 -32.5t-12.5 -32.5t-32.5 -12.5z" />
    <glyph glyph-name="uni04DD" unicode="&#x4dd;" horiz-adv-x="661" 
d="M588 0l-234 251l221 249h78l-244 -270v43l258 -273h-79zM-6 0l258 273v-43l-244 270h78l221 -249l-234 -251h-79zM298 0v500h65v-500h-65zM221 596q-19 0 -32 12.5t-13 32.5t13 32.5t32 12.5q20 0 32.5 -12.5t12.5 -32.5t-12.5 -32.5t-32.5 -12.5zM441 596
q-19 0 -32 12.5t-13 32.5t13 32.5t32 12.5q20 0 32.5 -12.5t12.5 -32.5t-12.5 -32.5t-32.5 -12.5z" />
    </font>
</defs>
</svg>
